STARTFONT 2.1
FONT -FontForge-Good Times Rg-Book-R-Normal--53-510-75-75-P-393-ISO10646-1
SIZE 51 75 75
FONTBOUNDINGBOX 106 63 -15 -11
COMMENT "Generated by fontforge, http://fontforge.sourceforge.net"
COMMENT "(c) 1998-2012 Typodermic Fonts Inc. See attached license agreement. If agreement is missing visit typodermicfonts.com for more info. Languages by Chikako Larabie"
STARTPROPERTIES 39
FOUNDRY "FontForge"
FAMILY_NAME "Good Times Rg"
WEIGHT_NAME "Book"
SLANT "R"
SETWIDTH_NAME "Normal"
ADD_STYLE_NAME ""
PIXEL_SIZE 53
POINT_SIZE 510
RESOLUTION_X 75
RESOLUTION_Y 75
SPACING "P"
AVERAGE_WIDTH 393
CHARSET_REGISTRY "ISO10646"
CHARSET_ENCODING "1"
FONTNAME_REGISTRY ""
CHARSET_COLLECTIONS "ISO8859-2 ISO8859-9 ISO8859-4 ISO10646-1"
FONT_NAME "GoodTimesRg-Regular"
FACE_NAME "GoodTimesRg-Regular"
COPYRIGHT "(c) 1998-2012 Typodermic Fonts Inc. See attached license agreement. If agreement is missing visit typodermicfonts.com for more info. Languages by Chikako Larabie"
FONT_VERSION "4.001"
FONT_ASCENT 42
FONT_DESCENT 11
UNDERLINE_POSITION -8
UNDERLINE_THICKNESS 2
X_HEIGHT 38
CAP_HEIGHT 38
RAW_ASCENT 799
RAW_DESCENT 201
NORM_SPACE 16
RELATIVE_WEIGHT 40
RELATIVE_SETWIDTH 50
SUPERSCRIPT_X 0
SUPERSCRIPT_Y 15
SUPERSCRIPT_SIZE 15
SUBSCRIPT_X 0
SUBSCRIPT_Y 0
SUBSCRIPT_SIZE 15
AVG_LOWERCASE_WIDTH 450
AVG_UPPERCASE_WIDTH 448
ENDPROPERTIES
CHARS 372
STARTCHAR space
ENCODING 32
SWIDTH 294 0
DWIDTH 16 0
BBX 1 1 0 0
BITMAP
00
ENDCHAR
STARTCHAR exclam
ENCODING 33
SWIDTH 298 0
DWIDTH 16 0
BBX 8 39 4 0
BITMAP
7E
7E
7E
7E
7E
7E
7E
7E
7E
7E
7E
7E
7E
7E
7E
7E
7E
7E
7E
7E
7E
7E
7E
7E
7E
7E
7E
00
00
00
00
00
3C
7E
7E
FF
7E
7E
3C
ENDCHAR
STARTCHAR quotedbl
ENCODING 34
SWIDTH 452 0
DWIDTH 24 0
BBX 16 14 4 25
BITMAP
FC3F
FC3F
FC3F
FC3F
FC3F
FC3F
FC3F
FC3F
FC3F
FC3F
7C3E
781E
781E
781E
ENDCHAR
STARTCHAR numbersign
ENCODING 35
SWIDTH 697 0
DWIDTH 37 0
BBX 33 39 2 0
BITMAP
0007C03E00
0007C03E00
0007C03C00
0007807C00
000F807C00
000F807800
000F00F800
001F00F800
001F00F000
001F01F000
0FFFFFFF80
0FFFFFFF80
0FFFFFFF80
0FFFFFFF80
0FFFFFFF80
007C03E000
007C07C000
00F807C000
00F807C000
00F8078000
00F00F8000
01F00F8000
01F00F0000
01E01F0000
FFFFFFF800
FFFFFFF800
FFFFFFF800
FFFFFFF800
FFFFFFF800
07C03C0000
07807C0000
0F807C0000
0F80780000
0F00F80000
1F00F80000
1F00F80000
1F01F00000
3E01F00000
3E01F00000
ENDCHAR
STARTCHAR dollar
ENCODING 36
SWIDTH 744 0
DWIDTH 39 0
BBX 33 39 3 0
BITMAP
0001C00000
0001C00000
0001C00000
0001C00000
03FFFFFF00
0FFFFFFF00
3FFFFFFF00
3FFFFFFF00
7FFFFFFF00
7E01C00000
FC01C00000
FC01C00000
FC01C00000
FC01C00000
FC01C00000
FC01C00000
7E01C00000
7FFFFFF000
3FFFFFFC00
1FFFFFFE00
0FFFFFFF00
03FFFFFF80
0001C03F80
0001C00F80
0001C00F80
0001C00F80
0001C00F80
0001C00F80
0001C03F80
FFFFFFFF80
FFFFFFFF00
FFFFFFFF00
FFFFFFFE00
FFFFFFFC00
FFFFFFE000
0001C00000
0001C00000
0001C00000
0001C00000
ENDCHAR
STARTCHAR percent
ENCODING 37
SWIDTH 965 0
DWIDTH 51 0
BBX 47 45 2 -4
BITMAP
0000000003C0
000000000780
01F800000F80
07FF00001F00
1FFF80003E00
3E07C0003C00
3C01E0007800
7801E000F800
7000F001F000
F000F001E000
F0007003C000
F0007007C000
F000700F8000
F000700F0000
7000F01E0000
7000F03E0000
7801E07C0000
3C01E0F80000
1E07C0F00000
0FFF81E00000
07FE03E00000
01F807C00000
000007803F00
00000F01FFC0
00001F03FFF0
00003E07C0F8
00007C0F0078
0000780F003C
0000F01E001C
0001F01E001E
0003E01C001E
0003C01C000E
0007801C001E
000F801C001E
001F001E001E
003E000E001C
003C000F003C
007C00070078
00F80007C0F8
01F00003FFF0
01E00000FFC0
03C000003F00
07C000000000
0F8000000000
1F0000000000
ENDCHAR
STARTCHAR ampersand
ENCODING 38
SWIDTH 759 0
DWIDTH 40 0
BBX 36 39 3 0
BITMAP
00FFF00000
07FFF00000
0FFFF00000
1FFFF00000
3FFFF00000
7FFFF00000
7FFFF00000
7F80000000
FF00000000
FE00000000
FE00000000
FE00000000
7E00000000
7F00000000
7F00000000
3FC0000000
1FFFFFFF80
0FFFFFFF80
07FFFFFF80
1FFFFFFF80
3FFFFFFF80
7FFFFFFF80
7FC003F800
FF0003F800
FE0003F800
FE0003F800
FC0003F800
FC0003F800
FE0003F800
FE0003F800
FF0003F800
FF8003F800
7FFFFFFFF0
7FFFFFFFF0
3FFFFFFFF0
1FFFFFFFF0
0FFFFFFFF0
07FFFFFFF0
00FFFFFFF0
ENDCHAR
STARTCHAR quotesingle
ENCODING 39
SWIDTH 255 0
DWIDTH 14 0
BBX 7 14 3 25
BITMAP
FE
FE
7E
7E
7E
7E
7E
7E
7C
7C
7C
7C
7C
3C
ENDCHAR
STARTCHAR parenleft
ENCODING 40
SWIDTH 356 0
DWIDTH 19 0
BBX 11 49 5 -5
BITMAP
07C0
07C0
0780
0F80
0F80
1F00
1F00
1F00
3E00
3E00
3E00
3C00
7C00
7C00
7800
7800
7800
F800
F800
F800
F000
F000
F000
F000
F000
F000
F000
F000
F000
F800
F800
F800
7800
7800
7800
7C00
7C00
3C00
3C00
3E00
3E00
1E00
1F00
1F00
0F80
0F80
0780
07C0
03E0
ENDCHAR
STARTCHAR parenright
ENCODING 41
SWIDTH 355 0
DWIDTH 19 0
BBX 11 49 3 -5
BITMAP
F800
7C00
7C00
3E00
3E00
1E00
1F00
1F00
0F00
0F80
0F80
0780
0780
07C0
07C0
03C0
03C0
03C0
03E0
03E0
03E0
03E0
03E0
01E0
01E0
01E0
03E0
03E0
03E0
03E0
03E0
03C0
03C0
03C0
07C0
07C0
0780
0780
0F80
0F80
0F00
1F00
1F00
1E00
3E00
3E00
7C00
7C00
F800
ENDCHAR
STARTCHAR asterisk
ENCODING 42
SWIDTH 469 0
DWIDTH 25 0
BBX 19 18 3 21
BITMAP
00E000
00E000
00E000
00E000
00E000
70E1C0
7EEFC0
FFFFE0
3FFF00
03F800
03F000
03F800
07BC00
0F1E00
0F1E00
1E0F00
0C0600
040400
ENDCHAR
STARTCHAR plus
ENCODING 43
SWIDTH 690 0
DWIDTH 37 0
BBX 30 30 3 5
BITMAP
0007C000
0007C000
0007C000
0007C000
0007C000
0007C000
0007C000
0007C000
0007C000
0007C000
0007C000
0007C000
FFFFFFFC
FFFFFFFC
FFFFFFFC
FFFFFFFC
FFFFFFFC
0007C000
0007C000
0007C000
0007C000
0007C000
0007C000
0007C000
0007C000
0007C000
0007C000
0007C000
0007C000
0007C000
ENDCHAR
STARTCHAR comma
ENCODING 44
SWIDTH 259 0
DWIDTH 14 0
BBX 6 14 4 -6
BITMAP
FC
FC
FC
FC
FC
F8
F8
F8
F8
F8
F0
F0
F0
F0
ENDCHAR
STARTCHAR hyphen
ENCODING 45
SWIDTH 296 0
DWIDTH 16 0
BBX 12 5 2 18
BITMAP
FFF0
FFF0
FFF0
FFF0
FFF0
ENDCHAR
STARTCHAR period
ENCODING 46
SWIDTH 262 0
DWIDTH 14 0
BBX 8 7 3 0
BITMAP
38
7E
7E
FF
FE
7E
3C
ENDCHAR
STARTCHAR slash
ENCODING 47
SWIDTH 444 0
DWIDTH 24 0
BBX 23 39 0 0
BITMAP
00003E
00003C
00007C
000078
000078
0000F0
0000F0
0001F0
0001E0
0003E0
0003C0
0007C0
000780
000F80
000F00
001F00
001E00
003E00
003E00
003C00
007C00
007800
00F800
00F000
01F000
01E000
03E000
03C000
07C000
07C000
0F8000
0F8000
1F0000
1F0000
1E0000
3E0000
3C0000
7C0000
F80000
ENDCHAR
STARTCHAR zero
ENCODING 48
SWIDTH 838 0
DWIDTH 44 0
BBX 40 39 2 0
BITMAP
0001FF8000
000FFFF000
003FFFFC00
00FFFFFF00
01FFFFFF80
03FFFFFFE0
07FFFFFFF0
0FFE007FF0
1FF8001FF8
1FE00007FC
3FC00003FC
3F800001FE
7F800000FE
7F000000FE
7F0000007F
7E0000007F
FE0000007F
FE0000007F
FE0000007F
FE0000007F
FE0000007F
FE0000007F
FE0000007F
7E0000007F
7F0000007E
7F000000FE
3F800000FE
3FC00001FC
3FC00003FC
1FF00007F8
0FF8001FF8
0FFE007FF0
07FFFFFFE0
03FFFFFFC0
01FFFFFF80
007FFFFF00
003FFFFC00
000FFFF000
0001FF8000
ENDCHAR
STARTCHAR one
ENCODING 49
SWIDTH 385 0
DWIDTH 20 0
BBX 16 39 1 0
BITMAP
FF00
FFE0
FFF0
FFF8
FFFC
FFFC
FFFE
01FE
00FF
007F
007F
007F
007F
007F
007F
007F
007F
007F
007F
007F
007F
007F
007F
007F
007F
007F
007F
007F
007F
007F
007F
007F
007F
007F
007F
007F
007F
007F
007F
ENDCHAR
STARTCHAR two
ENCODING 50
SWIDTH 825 0
DWIDTH 44 0
BBX 38 39 3 0
BITMAP
7FFFFFFC00
7FFFFFFF80
7FFFFFFFC0
7FFFFFFFE0
7FFFFFFFF0
7FFFFFFFF8
7FFFFFFFF8
00000007FC
00000003FC
00000001FC
00000001FC
00000001FC
00000001FC
00000001FC
00000003F8
00000007F8
00FFFFFFF8
07FFFFFFF0
0FFFFFFFE0
1FFFFFFFC0
3FFFFFFF80
7FFFFFFC00
7F80000000
7F00000000
7E00000000
FE00000000
FE00000000
FE00000000
FE00000000
FE00000000
FE00000000
FE00000000
FFFFFFFFF8
FFFFFFFFF8
FFFFFFFFF8
FFFFFFFFF8
FFFFFFFFF8
FFFFFFFFF8
FFFFFFFFF8
ENDCHAR
STARTCHAR three
ENCODING 51
SWIDTH 827 0
DWIDTH 44 0
BBX 39 39 2 0
BITMAP
7FFFFFFC00
7FFFFFFF80
7FFFFFFFE0
7FFFFFFFF0
7FFFFFFFF8
7FFFFFFFFC
7FFFFFFFFC
00000007FC
00000001FC
00000001FC
00000000FC
00000000FC
00000000FC
00000001FC
00000001FC
00000007F8
003FFFFFF0
003FFFFFE0
003FFFFFC0
003FFFFFF0
003FFFFFF8
003FFFFFFC
00000007FC
00000001FE
00000000FE
00000000FE
00000000FE
00000000FE
00000000FE
00000000FE
00000001FE
00000007FE
FFFFFFFFFC
FFFFFFFFFC
FFFFFFFFF8
FFFFFFFFF0
FFFFFFFFE0
FFFFFFFF80
FFFFFFFE00
ENDCHAR
STARTCHAR four
ENCODING 52
SWIDTH 845 0
DWIDTH 45 0
BBX 40 39 3 0
BITMAP
FC00000FE0
FC00000FE0
FC00000FE0
FC00000FE0
FC00000FE0
FC00000FE0
FC00000FE0
FC00000FE0
FC00000FE0
FC00000FE0
FC00000FE0
FC00000FE0
FC00000FE0
FC00000FE0
FC00000FE0
FC00000FE0
FC00000FE0
FC00000FE0
FE00000FE0
FE00000FE0
FF00000FE0
FF80000FE0
7FFFFFFFFF
7FFFFFFFFF
3FFFFFFFFF
1FFFFFFFFF
0FFFFFFFFF
07FFFFFFFF
00FFFFFFFF
0000000FE0
0000000FE0
0000000FE0
0000000FE0
0000000FE0
0000000FE0
0000000FE0
0000000FE0
0000000FE0
0000000FE0
ENDCHAR
STARTCHAR five
ENCODING 53
SWIDTH 885 0
DWIDTH 47 0
BBX 41 39 3 0
BITMAP
FFFFFFFFFE00
FFFFFFFFFE00
FFFFFFFFFE00
FFFFFFFFFE00
FFFFFFFFFE00
FFFFFFFFFE00
FFFFFFFFFE00
FE0000000000
FE0000000000
FE0000000000
FE0000000000
FE0000000000
FE0000000000
FE0000000000
FE0000000000
FE0000000000
FFFFFFFFC000
FFFFFFFFF000
FFFFFFFFFC00
FFFFFFFFFE00
FFFFFFFFFE00
FFFFFFFFFF00
00000000FF00
000000003F80
000000003F80
000000001F80
000000001F80
000000001F80
000000001F80
000000003F80
000000003F80
00000000FF80
FFFFFFFFFF00
FFFFFFFFFF00
FFFFFFFFFE00
FFFFFFFFFC00
FFFFFFFFF800
FFFFFFFFF000
FFFFFFFF8000
ENDCHAR
STARTCHAR six
ENCODING 54
SWIDTH 872 0
DWIDTH 46 0
BBX 41 39 2 0
BITMAP
0007FFFFFF00
007FFFFFFF00
01FFFFFFFF00
03FFFFFFFF00
07FFFFFFFF00
0FFFFFFFFF00
1FFFFFFFFF00
1FF800000000
3FE000000000
3FC000000000
7F8000000000
7F0000000000
7F0000000000
7F0000000000
FE0000000000
FE0000000000
FFFFFFFFC000
FFFFFFFFF800
FFFFFFFFFC00
FFFFFFFFFE00
FFFFFFFFFF00
FFFFFFFFFF00
FE000000FF80
FE0000003F80
7E0000003F80
7F0000001F80
7F0000001F80
7F8000001F80
3F8000001F80
3FC000003F80
3FE000003F80
1FF80000FF80
0FFFFFFFFF00
0FFFFFFFFF00
07FFFFFFFE00
03FFFFFFFE00
00FFFFFFFC00
003FFFFFF000
0007FFFFC000
ENDCHAR
STARTCHAR seven
ENCODING 55
SWIDTH 756 0
DWIDTH 40 0
BBX 37 39 2 0
BITMAP
FFFFFFFFE0
FFFFFFFFF0
FFFFFFFFF8
FFFFFFFFF8
FFFFFFFFF8
FFFFFFFFF0
FFFFFFFFF0
0000003FE0
0000003FC0
0000007F80
000000FF00
000001FF00
000003FE00
000007FC00
000007F800
00000FF000
00001FF000
00003FE000
00007FC000
00007F8000
0000FF0000
0001FF0000
0003FE0000
0007FC0000
000FF80000
000FF00000
001FF00000
003FE00000
007FC00000
00FF800000
00FF000000
01FE000000
03FE000000
07FC000000
0FF8000000
0FF0000000
1FE0000000
3FE0000000
7FC0000000
ENDCHAR
STARTCHAR eight
ENCODING 56
SWIDTH 898 0
DWIDTH 48 0
BBX 42 39 3 0
BITMAP
00FFFFFF8000
07FFFFFFF000
0FFFFFFFFC00
1FFFFFFFFE00
3FFFFFFFFF00
7FFFFFFFFF00
7FFFFFFFFF80
7FC00000FF80
7F0000007F80
FF0000003F80
FE0000003F80
7E0000003F80
7E0000003F80
7F0000003F80
7F0000007F00
3FC00000FF00
1FFFFFFFFE00
0FFFFFFFF800
07FFFFFFF800
1FFFFFFFFC00
3FFFFFFFFE00
7FFFFFFFFF00
7F800000FF80
FF0000003F80
FE0000003FC0
FE0000001FC0
FE0000001FC0
FC0000001FC0
FE0000001FC0
FE0000003FC0
FF0000003FC0
FFC00000FF80
7FFFFFFFFF80
7FFFFFFFFF00
3FFFFFFFFF00
1FFFFFFFFE00
0FFFFFFFFC00
07FFFFFFF000
00FFFFFF8000
ENDCHAR
STARTCHAR nine
ENCODING 57
SWIDTH 861 0
DWIDTH 46 0
BBX 41 39 2 0
BITMAP
00FFFFF80000
03FFFFFF0000
0FFFFFFFC000
1FFFFFFFE000
3FFFFFFFF000
3FFFFFFFF800
7FFFFFFFFC00
7FC0000FFE00
7F000003FE00
FF000000FF00
FE000000FF00
FE0000007F00
FE0000007F80
FE0000003F80
FE0000003F80
FF0000003F80
7F0000003F80
7FC000001F80
7FFFFFFFFF80
3FFFFFFFFF80
3FFFFFFFFF80
1FFFFFFFFF80
07FFFFFFFF80
01FFFFFFFF80
000000003F80
000000003F80
000000003F80
000000007F80
000000007F00
00000000FF00
00000001FE00
00000007FE00
07FFFFFFFC00
07FFFFFFFC00
07FFFFFFF800
07FFFFFFF000
07FFFFFFC000
07FFFFFF0000
07FFFFF80000
ENDCHAR
STARTCHAR colon
ENCODING 58
SWIDTH 262 0
DWIDTH 14 0
BBX 8 25 3 0
BITMAP
38
7E
7E
FF
FE
7E
3C
00
00
00
00
00
00
00
00
00
00
00
38
7E
7E
FF
FE
7E
3C
ENDCHAR
STARTCHAR semicolon
ENCODING 59
SWIDTH 262 0
DWIDTH 14 0
BBX 8 31 3 -6
BITMAP
3C
7E
7E
FF
FE
7E
3C
00
00
00
00
00
00
00
00
00
00
7E
7E
7E
7E
7E
7C
7C
7C
7C
7C
78
78
78
78
ENDCHAR
STARTCHAR less
ENCODING 60
SWIDTH 690 0
DWIDTH 37 0
BBX 30 29 3 5
BITMAP
0000000C
0000003C
000000FC
000007FC
00001FFC
00007FF0
0003FF80
000FFE00
003FF000
01FFC000
07FE0000
3FF80000
7FC00000
FF000000
FE000000
7F800000
3FF00000
0FFC0000
03FF8000
007FE000
001FFC00
0007FF00
0000FFE0
00003FF8
00000FFC
000001FC
0000007C
0000000C
00000004
ENDCHAR
STARTCHAR equal
ENCODING 61
SWIDTH 690 0
DWIDTH 37 0
BBX 30 19 3 10
BITMAP
FFFFFFFC
FFFFFFFC
FFFFFFFC
FFFFFFFC
FFFFFFFC
00000000
00000000
00000000
00000000
00000000
00000000
00000000
00000000
00000000
FFFFFFFC
FFFFFFFC
FFFFFFFC
FFFFFFFC
FFFFFFFC
ENDCHAR
STARTCHAR greater
ENCODING 62
SWIDTH 690 0
DWIDTH 37 0
BBX 30 29 3 5
BITMAP
C0000000
F8000000
FE000000
FF800000
FFF00000
1FFC0000
07FF0000
00FFE000
003FF800
0007FE00
0001FFC0
00003FF0
00000FFC
000001FC
000000FC
000007FC
00001FF8
0000FFE0
0003FF00
001FFC00
007FE000
03FF8000
0FFE0000
7FF00000
FFC00000
FF000000
F8000000
E0000000
80000000
ENDCHAR
STARTCHAR question
ENCODING 63
SWIDTH 776 0
DWIDTH 41 0
BBX 38 39 2 0
BITMAP
FFFFFFFC00
FFFFFFFF00
FFFFFFFFC0
FFFFFFFFE0
FFFFFFFFF0
FFFFFFFFF0
FFFFFFFFF8
00000007F8
00000003F8
00000003F8
00000001FC
00000001FC
00000001F8
00000003F8
00000003F8
0000000FF8
007FFFFFF0
01FFFFFFF0
03FFFFFFE0
07FFFFFFC0
07FFFFFF00
0FFFFFFC00
0FE0000000
0FC0000000
0FC0000000
0FC0000000
0000000000
0000000000
0000000000
0000000000
0000000000
0000000000
0380000000
0FC0000000
0FE0000000
0FE0000000
0FE0000000
0FC0000000
0780000000
ENDCHAR
STARTCHAR at
ENCODING 64
SWIDTH 833 0
DWIDTH 44 0
BBX 39 39 2 0
BITMAP
0001FFFFFE
000FFFFFFE
003FFFFFFE
00FFFFFFFE
01FFFFFFFE
03FE00003E
07F800003E
0FE000003E
0FC000003E
1F8000003E
3F0000003E
3E00FFF83E
3E03FFF83E
7C07FFF83E
7C0FFFF83E
7C0FC0783E
F80F80783E
F81F00783E
F81F00783E
F81F00783E
F81F00783E
F81F00783E
F80F80783E
FC0FC0783E
7C07FFFFFE
7C07FFFFFE
7E03FFFFFE
3E00FFFFFE
3F00000000
3F80000000
1FC0000000
0FE0000000
07F8000000
07FE000000
03FFFFFFFE
00FFFFFFFE
007FFFFFFE
001FFFFFFE
0001FFFFFE
ENDCHAR
STARTCHAR A
ENCODING 65
SWIDTH 989 0
DWIDTH 52 0
BBX 51 40 1 0
BITMAP
00000040000000
000001F0000000
000003F0000000
000007F8000000
000007FC000000
00000FFC000000
00000FFE000000
00001FFE000000
00003FFF000000
00003FFF000000
00007FFF800000
00007F3FC00000
0000FE1FC00000
0001FE1FE00000
0001FC0FE00000
0003FC0FF00000
0003F807F80000
0007F803F80000
000FF003FC0000
000FE001FC0000
001FE001FE0000
001FC000FF0000
003FC0007F0000
003F80007F8000
007F07FFFF8000
00FF07FFFFC000
00FE0FFFFFE000
01FE0FFFFFE000
01FC1FFFFFF000
03FC1FFFFFF000
07F8200007F800
07F0000003FC00
0FF0000003FC00
0FE0000001FE00
1FE0000001FE00
3FC0000000FF00
3F80000000FF80
7F800000007F80
7F000000003FC0
FF000000003FE0
ENDCHAR
STARTCHAR B
ENCODING 66
SWIDTH 891 0
DWIDTH 47 0
BBX 42 39 3 0
BITMAP
FFFFFFFF8000
FFFFFFFFF000
FFFFFFFFFC00
FFFFFFFFFE00
FFFFFFFFFE00
FFFFFFFFFF00
FFFFFFFFFF00
FE000000FF80
FE0000007F80
FE0000003F80
FE0000003F80
FE0000003F80
FE0000003F80
FE0000003F00
FE0000007F00
FE000000FE00
FE0FFFFFFE00
FE0FFFFFF800
FE0FFFFFF000
FE0FFFFFFC00
FE0FFFFFFE00
FE0FFFFFFF00
FE000000FF80
FE0000003F80
FE0000003F80
FE0000001FC0
FE0000001FC0
FE0000001FC0
FE0000001FC0
FE0000003F80
FE0000007F80
FE000001FF80
FFFFFFFFFF80
FFFFFFFFFF00
FFFFFFFFFE00
FFFFFFFFFE00
FFFFFFFFF800
FFFFFFFFF000
FFFFFFFF8000
ENDCHAR
STARTCHAR C
ENCODING 67
SWIDTH 829 0
DWIDTH 44 0
BBX 40 39 2 0
BITMAP
0003FFFFFF
001FFFFFFF
007FFFFFFF
00FFFFFFFF
03FFFFFFFF
07FFFFFFFF
0FFFFFFFFF
0FFE000000
1FF8000000
3FE0000000
3FC0000000
3F80000000
7F80000000
7F00000000
7F00000000
FE00000000
FE00000000
FE00000000
FE00000000
FE00000000
FE00000000
FE00000000
FE00000000
7F00000000
7F00000000
7F00000000
7F80000000
3F80000000
3FC0000000
1FE0000000
1FF8000000
0FFE000000
07FFFFFFFF
03FFFFFFFF
01FFFFFFFF
00FFFFFFFF
003FFFFFFF
000FFFFFFF
0001FFFFFF
ENDCHAR
STARTCHAR D
ENCODING 68
SWIDTH 879 0
DWIDTH 47 0
BBX 41 39 3 0
BITMAP
FFFFFFE00000
FFFFFFFC0000
FFFFFFFF0000
FFFFFFFFC000
FFFFFFFFE000
FFFFFFFFF000
FFFFFFFFF800
FE00001FFC00
FE000007FE00
FE000003FE00
FE000001FF00
FE000000FF00
FE0000007F00
FE0000007F80
FE0000003F80
FE0000003F80
FE0000003F80
FE0000001F80
FE0000001F80
FE0000001F80
FE0000001F80
FE0000001F80
FE0000003F80
FE0000003F80
FE0000003F80
FE0000007F00
FE0000007F00
FE000000FF00
FE000001FE00
FE000003FE00
FE000007FC00
FE00001FFC00
FFFFFFFFF800
FFFFFFFFF000
FFFFFFFFE000
FFFFFFFFC000
FFFFFFFF0000
FFFFFFFC0000
FFFFFFE00000
ENDCHAR
STARTCHAR E
ENCODING 69
SWIDTH 759 0
DWIDTH 40 0
BBX 35 39 3 0
BITMAP
FFFFFFFFE0
FFFFFFFFE0
FFFFFFFFE0
FFFFFFFFE0
FFFFFFFFE0
FFFFFFFFE0
FFFFFFFFE0
FE00000000
FE00000000
FE00000000
FE00000000
FE00000000
FE00000000
FE00000000
FE00000000
FE00000000
FE0FFFFF80
FE0FFFFF80
FE0FFFFF80
FE0FFFFF80
FE0FFFFF80
FE0FFFFF80
FE00000000
FE00000000
FE00000000
FE00000000
FE00000000
FE00000000
FE00000000
FE00000000
FE00000000
FE00000000
FFFFFFFFE0
FFFFFFFFE0
FFFFFFFFE0
FFFFFFFFE0
FFFFFFFFE0
FFFFFFFFE0
FFFFFFFFE0
ENDCHAR
STARTCHAR F
ENCODING 70
SWIDTH 705 0
DWIDTH 37 0
BBX 33 39 3 0
BITMAP
FFFFFFFF80
FFFFFFFF80
FFFFFFFF80
FFFFFFFF80
FFFFFFFF80
FFFFFFFF80
FFFFFFFF80
FE00000000
FE00000000
FE00000000
FE00000000
FE00000000
FE00000000
FE00000000
FE00000000
FE00000000
FE00000000
FE0FFFFE00
FE0FFFFE00
FE0FFFFE00
FE0FFFFE00
FE0FFFFE00
FE0FFFFE00
FE00000000
FE00000000
FE00000000
FE00000000
FE00000000
FE00000000
FE00000000
FE00000000
FE00000000
FE00000000
FE00000000
FE00000000
FE00000000
FE00000000
FE00000000
FE00000000
ENDCHAR
STARTCHAR G
ENCODING 71
SWIDTH 888 0
DWIDTH 47 0
BBX 42 39 2 0
BITMAP
0003FFFFFF00
001FFFFFFF00
007FFFFFFF00
00FFFFFFFF00
03FFFFFFFF00
07FFFFFFFF00
0FFFFFFFFF00
0FFE00000000
1FF800000000
3FE000000000
3FC000000000
3F8000000000
7F8000000000
7F0000000000
7F0000000000
FE0000000000
FE003FFFFFC0
FE003FFFFFC0
FE003FFFFFC0
FE003FFFFFC0
FE003FFFFFC0
FE003FFFFFC0
FE0000001FC0
7F0000001FC0
7F0000001FC0
7F0000001FC0
7F8000001FC0
3F8000001FC0
3FC000001FC0
1FE000001FC0
1FF800001FC0
0FFE00001FC0
07FFFFFFFFC0
03FFFFFFFFC0
01FFFFFFFFC0
00FFFFFFFFC0
003FFFFFFFC0
000FFFFFFFC0
0001FFFFFFC0
ENDCHAR
STARTCHAR H
ENCODING 72
SWIDTH 838 0
DWIDTH 44 0
BBX 38 39 3 0
BITMAP
FE000001FC
FE000001FC
FE000001FC
FE000001FC
FE000001FC
FE000001FC
FE000001FC
FE000001FC
FE000001FC
FE000001FC
FE000001FC
FE000001FC
FE000001FC
FE000001FC
FE000001FC
FE000001FC
FE0FFFFFFC
FE0FFFFFFC
FE0FFFFFFC
FE0FFFFFFC
FE0FFFFFFC
FE0FFFFFFC
FE000001FC
FE000001FC
FE000001FC
FE000001FC
FE000001FC
FE000001FC
FE000001FC
FE000001FC
FE000001FC
FE000001FC
FE000001FC
FE000001FC
FE000001FC
FE000001FC
FE000001FC
FE000001FC
FE000001FC
ENDCHAR
STARTCHAR I
ENCODING 73
SWIDTH 267 0
DWIDTH 14 0
BBX 6 39 4 0
BITMAP
FC
FC
FC
FC
FC
FC
FC
FC
FC
FC
FC
FC
FC
FC
FC
FC
FC
FC
FC
FC
FC
FC
FC
FC
FC
FC
FC
FC
FC
FC
FC
FC
FC
FC
FC
FC
FC
FC
FC
ENDCHAR
STARTCHAR J
ENCODING 74
SWIDTH 708 0
DWIDTH 38 0
BBX 34 39 1 0
BITMAP
0000001FC0
0000001FC0
0000001FC0
0000001FC0
0000001FC0
0000001FC0
0000001FC0
0000001FC0
0000001FC0
0000001FC0
0000001FC0
0000001FC0
0000001FC0
0000001FC0
0000001FC0
0000001FC0
0000001FC0
0000001FC0
0000001FC0
0000001FC0
0000001FC0
0000001FC0
0000001FC0
0000001FC0
0000001FC0
0000003F80
0000003F80
0000003F80
0000007F80
000000FF00
000001FF00
00000FFF00
FFFFFFFE00
FFFFFFFC00
FFFFFFF800
FFFFFFF000
FFFFFFE000
FFFFFF0000
FFFFF00000
ENDCHAR
STARTCHAR K
ENCODING 75
SWIDTH 875 0
DWIDTH 46 0
BBX 42 39 3 0
BITMAP
FE000001FFC0
FE000007FF00
FE00000FFC00
FE00001FF800
FE00007FF000
FE0000FFC000
FE0001FF8000
FE0003FF0000
FE000FFC0000
FE001FF80000
FE003FF00000
FE00FFC00000
FE01FF800000
FE03FF000000
FE07FC000000
FE1FF8000000
FE3FF0000000
FE7FC0000000
FE7F80000000
FE7F80000000
FE7FC0000000
FE3FF0000000
FE1FF8000000
FE07FC000000
FE03FE000000
FE01FF800000
FE00FFC00000
FE003FE00000
FE001FF80000
FE000FFC0000
FE0007FE0000
FE0001FF8000
FE0000FFC000
FE00007FE000
FE00003FF800
FE00000FFC00
FE000007FE00
FE000003FF00
FE000001FFC0
ENDCHAR
STARTCHAR L
ENCODING 76
SWIDTH 707 0
DWIDTH 37 0
BBX 33 39 3 0
BITMAP
FE00000000
FE00000000
FE00000000
FE00000000
FE00000000
FE00000000
FE00000000
FE00000000
FE00000000
FE00000000
FE00000000
FE00000000
FE00000000
FE00000000
FE00000000
FE00000000
FE00000000
FE00000000
FE00000000
FE00000000
FE00000000
FE00000000
FE00000000
FE00000000
FE00000000
FE00000000
FE00000000
FE00000000
FE00000000
FE00000000
FE00000000
FE00000000
FFFFFFFF80
FFFFFFFF80
FFFFFFFF80
FFFFFFFF80
FFFFFFFF80
FFFFFFFF80
FFFFFFFF80
ENDCHAR
STARTCHAR M
ENCODING 77
SWIDTH 1115 0
DWIDTH 59 0
BBX 57 40 1 -1
BITMAP
000E0000003C0000
001F0000007E0000
003F8000007E0000
003F800000FE0000
003FC00000FF0000
007FC00001FF0000
007FE00001FF0000
007FE00003FF0000
007FF00003FF8000
00FFF00003FF8000
00FFF00007FF8000
00FFF80007FFC000
00FFF8000FFFC000
01FDFC000FDFC000
01FDFC001FCFC000
01F8FE001F8FE000
03F8FE003F8FE000
03F87F003F8FE000
03F87F003F07E000
03F03F007F07F000
07F03F807E07F000
07F03F80FE03F000
07E01FC0FC03F800
0FE01FC1FC03F800
0FE00FE1F803F800
0FE00FE1F801F800
0FC007E3F801FC00
1FC007F3F001FC00
1FC007F7F001FC00
1FC003FFE000FC00
1F8003FFE000FE00
3F8001FFC000FE00
3F8001FFC0007E00
3F0000FFC0007E00
7F0000FF80007F00
7F0000FF80007F00
7F00007F00003F00
7E00007F00003F80
FE00003E00003F80
0000000800000000
ENDCHAR
STARTCHAR N
ENCODING 78
SWIDTH 873 0
DWIDTH 46 0
BBX 40 39 3 0
BITMAP
380000003F
7E0000003F
FF0000003F
FF8000003F
FFC000003F
FFE000003F
FFF000003F
FFF800003F
FFFC00003F
FFFE00003F
FFFF00003F
FFFF80003F
FEFFC0003F
FE7FE0003F
FE3FF0003F
FE1FF8003F
FE0FFC003F
FE07FE003F
FE03FF003F
FE01FF803F
FE00FFC03F
FE007FE03F
FE003FF03F
FE001FF83F
FE000FFC3F
FE0007FE3F
FE0003FF3F
FE0001FFBF
FE0000FFFF
FE00007FFF
FE00003FFF
FE00001FFF
FE00000FFF
FE000003FF
FE000001FF
FE000000FF
FE0000007F
FE0000003E
FE0000001E
ENDCHAR
STARTCHAR O
ENCODING 79
SWIDTH 968 0
DWIDTH 51 0
BBX 47 39 2 0
BITMAP
0003FFFF8000
001FFFFFF000
007FFFFFFC00
00FFFFFFFF00
03FFFFFFFF80
07FFFFFFFFC0
0FFFFFFFFFE0
0FFE0000FFF0
1FF800001FF0
3FE000000FF8
3FC0000007F8
3F80000003FC
7F80000001FC
7F00000001FC
7F00000000FE
FE00000000FE
FE00000000FE
FE00000000FE
FE00000000FE
FE00000000FE
FE00000000FE
FE00000000FE
FE00000000FE
7F00000000FE
7F00000000FE
7F00000001FC
7F80000001FC
3F80000003FC
3FC0000007F8
1FE000000FF8
1FF800001FF0
0FFE0000FFE0
07FFFFFFFFE0
03FFFFFFFFC0
01FFFFFFFF80
00FFFFFFFE00
003FFFFFFC00
000FFFFFF000
0001FFFF8000
ENDCHAR
STARTCHAR P
ENCODING 80
SWIDTH 867 0
DWIDTH 46 0
BBX 42 39 3 0
BITMAP
FFFFFFFF0000
FFFFFFFFE000
FFFFFFFFF000
FFFFFFFFFC00
FFFFFFFFFC00
FFFFFFFFFE00
FFFFFFFFFF00
FE000001FF00
FE0000007F80
FE0000003F80
FE0000003F80
FE0000001F80
FE0000001F80
FE0000001FC0
FE0000001FC0
FE0000001F80
FE0000001F80
FE0000003F80
FE0000003F80
FE0000007F80
FE000001FF00
FE0FFFFFFF00
FE0FFFFFFE00
FE0FFFFFFC00
FE0FFFFFF800
FE0FFFFFF000
FE0FFFFFC000
FE0FFFFF0000
FE0000000000
FE0000000000
FE0000000000
FE0000000000
FE0000000000
FE0000000000
FE0000000000
FE0000000000
FE0000000000
FE0000000000
FE0000000000
ENDCHAR
STARTCHAR Q
ENCODING 81
SWIDTH 968 0
DWIDTH 51 0
BBX 49 39 2 0
BITMAP
0003FFFF800000
001FFFFFF00000
007FFFFFFC0000
00FFFFFFFF0000
03FFFFFFFF8000
07FFFFFFFFC000
0FFFFFFFFFE000
0FFE0000FFF000
1FF800001FF000
3FE000000FF800
3FC0000007F800
3F80000003FC00
7F80000001FC00
7F00000001FC00
7F00000000FE00
FE00000000FE00
FE00000000FE00
FE00000000FE00
FE00000000FE00
FE00000000FE00
FE00000000FE00
FE00000000FE00
FE00000000FE00
7F0007FC00FE00
7F0001FE00FE00
7F0000FF01FC00
7F80007FC1FC00
3F80003FE3FC00
3FC0000FF7F800
1FE00007FFF800
1FF80003FFF000
0FFE0001FFE000
07FFFFFFFFE000
03FFFFFFFFC000
01FFFFFFFFE000
00FFFFFFFFF800
003FFFFFFFFC00
000FFFFFF3FE00
0001FFFF80FF80
ENDCHAR
STARTCHAR R
ENCODING 82
SWIDTH 921 0
DWIDTH 49 0
BBX 46 39 3 0
BITMAP
FFFFFFFF0000
FFFFFFFFE000
FFFFFFFFF800
FFFFFFFFFC00
FFFFFFFFFE00
FFFFFFFFFF00
FFFFFFFFFF00
FE000000FF80
FE0000007F80
FE0000003F80
FE0000001FC0
FE0000001FC0
FE0000001FC0
FE0000001FC0
FE0000001FC0
FE0000001FC0
FE0000001FC0
FE0000001FC0
FE0000001F80
FE0000003F80
FE0000007F80
FE000001FF00
FE0FFFFFFF00
FE0FFFFFFE00
FE0FFFFFFC00
FE0FFFFFF800
FE0FFFFFE000
FE0FFFFFE000
FE00001FF000
FE00000FF800
FE000007F800
FE000007FC00
FE000003FE00
FE000001FF00
FE000000FF80
FE0000007FC0
FE0000003FE0
FE0000001FF0
FE0000000FFC
ENDCHAR
STARTCHAR S
ENCODING 83
SWIDTH 880 0
DWIDTH 47 0
BBX 41 39 3 0
BITMAP
00FFFFFFFE00
07FFFFFFFE00
1FFFFFFFFE00
3FFFFFFFFE00
3FFFFFFFFE00
7FFFFFFFFE00
7FFFFFFFFE00
FF8000000000
FF0000000000
FE0000000000
FE0000000000
FE0000000000
FE0000000000
FE0000000000
FF0000000000
7F8000000000
7FFFFFFFC000
3FFFFFFFF000
1FFFFFFFFC00
0FFFFFFFFE00
07FFFFFFFF00
00FFFFFFFF00
00000000FF00
000000003F80
000000003F80
000000001F80
000000001F80
000000001F80
000000001F80
000000003F80
000000003F80
00000000FF80
FFFFFFFFFF00
FFFFFFFFFF00
FFFFFFFFFE00
FFFFFFFFFC00
FFFFFFFFF800
FFFFFFFFF000
FFFFFFFF8000
ENDCHAR
STARTCHAR T
ENCODING 84
SWIDTH 720 0
DWIDTH 38 0
BBX 36 39 1 0
BITMAP
FFFFFFFFF0
FFFFFFFFF0
FFFFFFFFF0
FFFFFFFFF0
FFFFFFFFF0
FFFFFFFFF0
FFFFFFFFF0
0001F80000
0001F80000
0001F80000
0001F80000
0001F80000
0001F80000
0001F80000
0001F80000
0001F80000
0001F80000
0001F80000
0001F80000
0001F80000
0001F80000
0001F80000
0001F80000
0001F80000
0001F80000
0001F80000
0001F80000
0001F80000
0001F80000
0001F80000
0001F80000
0001F80000
0001F80000
0001F80000
0001F80000
0001F80000
0001F80000
0001F80000
0001F80000
ENDCHAR
STARTCHAR U
ENCODING 85
SWIDTH 889 0
DWIDTH 47 0
BBX 41 40 3 -1
BITMAP
FE0000001F80
FE0000001F80
FE0000001F80
FE0000001F80
FE0000001F80
FE0000001F80
FE0000001F80
FE0000001F80
FE0000001F80
FE0000001F80
FE0000001F80
FE0000001F80
FE0000001F80
FE0000001F80
FE0000001F80
FE0000001F80
FE0000001F80
FE0000001F80
FE0000001F80
FE0000001F80
FE0000001F80
FE0000001F80
FE0000001F80
FE0000001F80
FE0000001F80
FE0000003F80
FE0000003F80
FF0000003F80
FF0000007F80
7F8000007F00
7FC00000FF00
3FE00003FF00
3FFE001FFE00
1FFFFFFFFC00
0FFFFFFFFC00
07FFFFFFF000
03FFFFFFE000
00FFFFFF8000
003FFFFE0000
0001FFC00000
ENDCHAR
STARTCHAR V
ENCODING 86
SWIDTH 989 0
DWIDTH 52 0
BBX 51 40 1 -1
BITMAP
FF000000001FE0
7F800000003FC0
7F800000007F80
3FC00000007F80
3FE0000000FF00
1FE0000000FE00
0FF0000001FE00
0FF0000001FC00
07F8000003FC00
07F8000007F800
03FC000007F000
01FE00000FF000
01FE00000FE000
00FF00001FE000
00FF00003FC000
007F80003F8000
003FC0007F8000
003FC0007F0000
001FE000FF0000
001FE000FE0000
000FF001FC0000
000FF003FC0000
0007F803F80000
0003FC07F80000
0003FC07F00000
0001FE0FE00000
0001FE0FE00000
0000FF1FC00000
00007F3FC00000
00007FBF800000
00003FFF000000
00003FFF000000
00001FFE000000
00000FFE000000
00000FFC000000
000007FC000000
000007F8000000
000003F0000000
000001F0000000
00000040000000
ENDCHAR
STARTCHAR W
ENCODING 87
SWIDTH 1268 0
DWIDTH 67 0
BBX 65 40 1 -1
BITMAP
FF001FF00000003F80
7F800FF00000007F80
7F800FF80000007F00
3FC007F8000000FF00
3FC007FC000000FE00
1FE003FC000001FE00
1FE003FC000001FC00
0FF001FE000003F800
0FF001FE000007F800
07F800FF000007F000
07F800FF00000FF000
03FC007F80000FE000
03FC007F80001FE000
01FE003FC0001FC000
01FE003FC0003FC000
00FF001FE0003F8000
00FF000FE0007F8000
007F800FF0007F0000
007F8007F000FF0000
003FC007F800FE0000
001FC007F801FE0000
001FE00FFC01FC0000
000FE00FFC03FC0000
000FF01FFE03F80000
0007F01FFE07F80000
0007F83FFF07F00000
0003F83FFF0FE00000
0003FC7F7F8FE00000
0001FCFF3F9FC00000
0001FEFE3FDFC00000
0000FFFC1FFF800000
0000FFFC1FFF800000
00007FF80FFF000000
00007FF80FFF000000
00003FF007FE000000
00003FF007FE000000
00001FE003FC000000
00001FE003FC000000
00000FC001F8000000
0000078000F0000000
ENDCHAR
STARTCHAR X
ENCODING 88
SWIDTH 1000 0
DWIDTH 53 0
BBX 51 39 1 0
BITMAP
3FE0000000FF80
1FF0000001FE00
0FF8000003FC00
07FE000007F800
03FF00000FF000
01FF80001FE000
00FFC0003FC000
007FE0007F8000
003FF000FF0000
001FF801FE0000
000FFC03FC0000
0007FE07F80000
0003FF0FF00000
0001FF9FE00000
00007FFFC00000
00003FFF800000
00001FFF000000
00000FFE000000
000007FC000000
00000FFC000000
00001FFE000000
00003FFF800000
00007FFFC00000
0000FFFFE00000
0001FF3FF00000
0003FE1FF80000
0007F80FFC0000
000FF007FE0000
001FE003FF0000
003FC001FF8000
007F8000FFC000
00FF00007FE000
01FE00003FF000
03FC00000FF800
07F800000FFC00
0FF0000003FE00
1FE0000001FF00
3FC0000000FF80
FF800000007FE0
ENDCHAR
STARTCHAR Y
ENCODING 89
SWIDTH 926 0
DWIDTH 49 0
BBX 47 39 1 0
BITMAP
FF80000003FE
7FC0000003FC
3FE0000007F8
1FF000000FF0
1FF800001FF0
0FF800003FE0
07FC00007FC0
03FE0000FF80
01FF0000FF00
00FF8001FE00
007FC003FE00
007FC007FC00
003FE00FF800
001FF01FF000
000FF81FE000
0007FC3FC000
0003FE7F8000
0003FEFF8000
0001FFFF0000
0000FFFE0000
00007FFC0000
00003FF80000
00001FF00000
00000FE00000
00000FE00000
00000FE00000
00000FE00000
00000FE00000
00000FE00000
00000FE00000
00000FE00000
00000FE00000
00000FE00000
00000FE00000
00000FE00000
00000FE00000
00000FE00000
00000FE00000
00000FE00000
ENDCHAR
STARTCHAR Z
ENCODING 90
SWIDTH 802 0
DWIDTH 43 0
BBX 38 39 2 0
BITMAP
7FFFFFFFF0
7FFFFFFFFC
7FFFFFFFFC
7FFFFFFFFC
7FFFFFFFFC
7FFFFFFFF8
7FFFFFFFF8
0000003FF0
0000007FE0
000000FFC0
000001FF80
000003FF00
000007FE00
00000FFC00
00001FF800
00003FF000
00007FE000
00007FC000
0000FF8000
0001FF0000
0003FE0000
0007FC0000
000FF80000
001FF00000
003FE00000
007FC00000
00FF800000
01FF000000
03FE000000
07FC000000
0FF8000000
1FF0000000
3FFFFFFFFC
7FFFFFFFFC
FFFFFFFFFC
FFFFFFFFFC
FFFFFFFFFC
7FFFFFFFFC
3FFFFFFFFC
ENDCHAR
STARTCHAR bracketleft
ENCODING 91
SWIDTH 333 0
DWIDTH 18 0
BBX 9 49 5 -5
BITMAP
FF80
FF80
FF80
FF80
F800
F800
F800
F800
F800
F800
F800
F800
F800
F800
F800
F800
F800
F800
F800
F800
F800
F800
F800
F800
F800
F800
F800
F800
F800
F800
F800
F800
F800
F800
F800
F800
F800
F800
F800
F800
F800
F800
F800
F800
F800
FF80
FF80
FF80
FF80
ENDCHAR
STARTCHAR backslash
ENCODING 92
SWIDTH 445 0
DWIDTH 24 0
BBX 22 39 1 0
BITMAP
F00000
F80000
780000
7C0000
3C0000
3E0000
3E0000
1E0000
1F0000
0F0000
0F8000
078000
07C000
03C000
03E000
01E000
01F000
00F000
00F800
00F800
007800
007C00
003C00
003E00
001E00
001F00
000F00
000F80
000780
0007C0
0007C0
0003E0
0003E0
0001F0
0001F0
0000F0
0000F8
000078
00007C
ENDCHAR
STARTCHAR bracketright
ENCODING 93
SWIDTH 333 0
DWIDTH 18 0
BBX 9 49 3 -5
BITMAP
FF80
FF80
FF80
FF80
0780
0780
0780
0780
0780
0780
0780
0780
0780
0780
0780
0780
0780
0780
0780
0780
0780
0780
0780
0780
0780
0780
0780
0780
0780
0780
0780
0780
0780
0780
0780
0780
0780
0780
0780
0780
0780
0780
0780
0780
0780
FF80
FF80
FF80
FF80
ENDCHAR
STARTCHAR asciicircum
ENCODING 94
SWIDTH 559 0
DWIDTH 30 0
BBX 23 24 3 15
BITMAP
003800
003C00
007E00
007E00
00FE00
00FF00
01FF00
01EF80
01E780
03C7C0
03C3C0
07C3C0
0783E0
0781E0
0F01F0
0F00F0
1F00F0
1E00F8
3E0078
3C007C
3C003C
7C003C
78003E
F8001E
ENDCHAR
STARTCHAR underscore
ENCODING 95
SWIDTH 668 0
DWIDTH 35 0
BBX 36 3 0 -9
BITMAP
FFFFFFFFF0
FFFFFFFFF0
FFFFFFFFF0
ENDCHAR
STARTCHAR grave
ENCODING 96
SWIDTH 362 0
DWIDTH 19 0
BBX 13 8 3 41
BITMAP
8000
E000
FE00
FFC0
FFF8
0FF8
00F8
0008
ENDCHAR
STARTCHAR a
ENCODING 97
SWIDTH 989 0
DWIDTH 52 0
BBX 51 40 1 0
BITMAP
00000040000000
000001F0000000
000003F0000000
000007F8000000
000007FC000000
00000FFC000000
00000FFE000000
00001FFE000000
00003FFF000000
00003FFF000000
00007FFF800000
00007F3FC00000
0000FE1FC00000
0001FE1FE00000
0001FC0FE00000
0003FC0FF00000
0003F807F80000
0007F803F80000
000FF003FC0000
000FE001FC0000
001FE001FE0000
001FC000FF0000
003FC0007F0000
003F80007F8000
007F07FFFF8000
00FF07FFFFC000
00FE0FFFFFE000
01FE0FFFFFE000
01FC1FFFFFF000
03FC1FFFFFF000
07F8200007F800
07F0000003FC00
0FF0000003FC00
0FE0000001FE00
1FE0000001FE00
3FC0000000FF00
3F80000000FF80
7F800000007F80
7F000000003FC0
FF000000003FE0
ENDCHAR
STARTCHAR b
ENCODING 98
SWIDTH 891 0
DWIDTH 47 0
BBX 42 39 3 0
BITMAP
FFFFFFFF8000
FFFFFFFFF000
FFFFFFFFFC00
FFFFFFFFFE00
FFFFFFFFFE00
FFFFFFFFFF00
FFFFFFFFFF00
FE000000FF80
FE0000007F80
FE0000003F80
FE0000003F80
FE0000003F80
FE0000003F80
FE0000003F00
FE0000007F00
FE000000FE00
FE0FFFFFFE00
FE0FFFFFF800
FE0FFFFFF000
FE0FFFFFFC00
FE0FFFFFFE00
FE0FFFFFFF00
FE000000FF80
FE0000003F80
FE0000003F80
FE0000001FC0
FE0000001FC0
FE0000001FC0
FE0000001FC0
FE0000003F80
FE0000007F80
FE000001FF80
FFFFFFFFFF80
FFFFFFFFFF00
FFFFFFFFFE00
FFFFFFFFFE00
FFFFFFFFF800
FFFFFFFFF000
FFFFFFFF8000
ENDCHAR
STARTCHAR c
ENCODING 99
SWIDTH 829 0
DWIDTH 44 0
BBX 40 39 2 0
BITMAP
0003FFFFFF
001FFFFFFF
007FFFFFFF
00FFFFFFFF
03FFFFFFFF
07FFFFFFFF
0FFFFFFFFF
0FFE000000
1FF8000000
3FE0000000
3FC0000000
3F80000000
7F80000000
7F00000000
7F00000000
FE00000000
FE00000000
FE00000000
FE00000000
FE00000000
FE00000000
FE00000000
FE00000000
7F00000000
7F00000000
7F00000000
7F80000000
3F80000000
3FC0000000
1FE0000000
1FF8000000
0FFE000000
07FFFFFFFF
03FFFFFFFF
01FFFFFFFF
00FFFFFFFF
003FFFFFFF
000FFFFFFF
0001FFFFFF
ENDCHAR
STARTCHAR d
ENCODING 100
SWIDTH 879 0
DWIDTH 47 0
BBX 41 39 3 0
BITMAP
FFFFFFE00000
FFFFFFFC0000
FFFFFFFF0000
FFFFFFFFC000
FFFFFFFFE000
FFFFFFFFF000
FFFFFFFFF800
FE00001FFC00
FE000007FE00
FE000003FE00
FE000001FF00
FE000000FF00
FE0000007F00
FE0000007F80
FE0000003F80
FE0000003F80
FE0000003F80
FE0000001F80
FE0000001F80
FE0000001F80
FE0000001F80
FE0000001F80
FE0000003F80
FE0000003F80
FE0000003F80
FE0000007F00
FE0000007F00
FE000000FF00
FE000001FE00
FE000003FE00
FE000007FC00
FE00001FFC00
FFFFFFFFF800
FFFFFFFFF000
FFFFFFFFE000
FFFFFFFFC000
FFFFFFFF0000
FFFFFFFC0000
FFFFFFE00000
ENDCHAR
STARTCHAR e
ENCODING 101
SWIDTH 759 0
DWIDTH 40 0
BBX 35 39 3 0
BITMAP
FFFFFFFFE0
FFFFFFFFE0
FFFFFFFFE0
FFFFFFFFE0
FFFFFFFFE0
FFFFFFFFE0
FFFFFFFFE0
FE00000000
FE00000000
FE00000000
FE00000000
FE00000000
FE00000000
FE00000000
FE00000000
FE00000000
FE0FFFFF80
FE0FFFFF80
FE0FFFFF80
FE0FFFFF80
FE0FFFFF80
FE0FFFFF80
FE00000000
FE00000000
FE00000000
FE00000000
FE00000000
FE00000000
FE00000000
FE00000000
FE00000000
FE00000000
FFFFFFFFE0
FFFFFFFFE0
FFFFFFFFE0
FFFFFFFFE0
FFFFFFFFE0
FFFFFFFFE0
FFFFFFFFE0
ENDCHAR
STARTCHAR f
ENCODING 102
SWIDTH 705 0
DWIDTH 37 0
BBX 33 39 3 0
BITMAP
FFFFFFFF80
FFFFFFFF80
FFFFFFFF80
FFFFFFFF80
FFFFFFFF80
FFFFFFFF80
FFFFFFFF80
FE00000000
FE00000000
FE00000000
FE00000000
FE00000000
FE00000000
FE00000000
FE00000000
FE00000000
FE00000000
FE0FFFFE00
FE0FFFFE00
FE0FFFFE00
FE0FFFFE00
FE0FFFFE00
FE0FFFFE00
FE00000000
FE00000000
FE00000000
FE00000000
FE00000000
FE00000000
FE00000000
FE00000000
FE00000000
FE00000000
FE00000000
FE00000000
FE00000000
FE00000000
FE00000000
FE00000000
ENDCHAR
STARTCHAR g
ENCODING 103
SWIDTH 888 0
DWIDTH 47 0
BBX 42 39 2 0
BITMAP
0003FFFFFF00
001FFFFFFF00
007FFFFFFF00
00FFFFFFFF00
03FFFFFFFF00
07FFFFFFFF00
0FFFFFFFFF00
0FFE00000000
1FF800000000
3FE000000000
3FC000000000
3F8000000000
7F8000000000
7F0000000000
7F0000000000
FE0000000000
FE003FFFFFC0
FE003FFFFFC0
FE003FFFFFC0
FE003FFFFFC0
FE003FFFFFC0
FE003FFFFFC0
FE0000001FC0
7F0000001FC0
7F0000001FC0
7F0000001FC0
7F8000001FC0
3F8000001FC0
3FC000001FC0
1FE000001FC0
1FF800001FC0
0FFE00001FC0
07FFFFFFFFC0
03FFFFFFFFC0
01FFFFFFFFC0
00FFFFFFFFC0
003FFFFFFFC0
000FFFFFFFC0
0001FFFFFFC0
ENDCHAR
STARTCHAR h
ENCODING 104
SWIDTH 838 0
DWIDTH 44 0
BBX 38 39 3 0
BITMAP
FE000001FC
FE000001FC
FE000001FC
FE000001FC
FE000001FC
FE000001FC
FE000001FC
FE000001FC
FE000001FC
FE000001FC
FE000001FC
FE000001FC
FE000001FC
FE000001FC
FE000001FC
FE000001FC
FE0FFFFFFC
FE0FFFFFFC
FE0FFFFFFC
FE0FFFFFFC
FE0FFFFFFC
FE0FFFFFFC
FE000001FC
FE000001FC
FE000001FC
FE000001FC
FE000001FC
FE000001FC
FE000001FC
FE000001FC
FE000001FC
FE000001FC
FE000001FC
FE000001FC
FE000001FC
FE000001FC
FE000001FC
FE000001FC
FE000001FC
ENDCHAR
STARTCHAR i
ENCODING 105
SWIDTH 267 0
DWIDTH 14 0
BBX 6 39 4 0
BITMAP
FC
FC
FC
FC
FC
FC
FC
FC
FC
FC
FC
FC
FC
FC
FC
FC
FC
FC
FC
FC
FC
FC
FC
FC
FC
FC
FC
FC
FC
FC
FC
FC
FC
FC
FC
FC
FC
FC
FC
ENDCHAR
STARTCHAR j
ENCODING 106
SWIDTH 708 0
DWIDTH 38 0
BBX 34 39 1 0
BITMAP
0000001FC0
0000001FC0
0000001FC0
0000001FC0
0000001FC0
0000001FC0
0000001FC0
0000001FC0
0000001FC0
0000001FC0
0000001FC0
0000001FC0
0000001FC0
0000001FC0
0000001FC0
0000001FC0
0000001FC0
0000001FC0
0000001FC0
0000001FC0
0000001FC0
0000001FC0
0000001FC0
0000001FC0
0000001FC0
0000003F80
0000003F80
0000003F80
0000007F80
000000FF00
000001FF00
00000FFF00
FFFFFFFE00
FFFFFFFC00
FFFFFFF800
FFFFFFF000
FFFFFFE000
FFFFFF0000
FFFFF00000
ENDCHAR
STARTCHAR k
ENCODING 107
SWIDTH 875 0
DWIDTH 46 0
BBX 42 39 3 0
BITMAP
FE000001FFC0
FE000007FF00
FE00000FFC00
FE00001FF800
FE00007FF000
FE0000FFC000
FE0001FF8000
FE0003FF0000
FE000FFC0000
FE001FF80000
FE003FF00000
FE00FFC00000
FE01FF800000
FE03FF000000
FE07FC000000
FE1FF8000000
FE3FF0000000
FE7FC0000000
FE7F80000000
FE7F80000000
FE7FC0000000
FE3FF0000000
FE1FF8000000
FE07FC000000
FE03FE000000
FE01FF800000
FE00FFC00000
FE003FE00000
FE001FF80000
FE000FFC0000
FE0007FE0000
FE0001FF8000
FE0000FFC000
FE00007FE000
FE00003FF800
FE00000FFC00
FE000007FE00
FE000003FF00
FE000001FFC0
ENDCHAR
STARTCHAR l
ENCODING 108
SWIDTH 707 0
DWIDTH 37 0
BBX 33 39 3 0
BITMAP
FE00000000
FE00000000
FE00000000
FE00000000
FE00000000
FE00000000
FE00000000
FE00000000
FE00000000
FE00000000
FE00000000
FE00000000
FE00000000
FE00000000
FE00000000
FE00000000
FE00000000
FE00000000
FE00000000
FE00000000
FE00000000
FE00000000
FE00000000
FE00000000
FE00000000
FE00000000
FE00000000
FE00000000
FE00000000
FE00000000
FE00000000
FE00000000
FFFFFFFF80
FFFFFFFF80
FFFFFFFF80
FFFFFFFF80
FFFFFFFF80
FFFFFFFF80
FFFFFFFF80
ENDCHAR
STARTCHAR m
ENCODING 109
SWIDTH 1115 0
DWIDTH 59 0
BBX 57 40 1 -1
BITMAP
000E0000003C0000
001F0000007E0000
003F8000007E0000
003F800000FE0000
003FC00000FF0000
007FC00001FF0000
007FE00001FF0000
007FE00003FF0000
007FF00003FF8000
00FFF00003FF8000
00FFF00007FF8000
00FFF80007FFC000
00FFF8000FFFC000
01FDFC000FDFC000
01FDFC001FCFC000
01F8FE001F8FE000
03F8FE003F8FE000
03F87F003F8FE000
03F87F003F07E000
03F03F007F07F000
07F03F807E07F000
07F03F80FE03F000
07E01FC0FC03F800
0FE01FC1FC03F800
0FE00FE1F803F800
0FE00FE1F801F800
0FC007E3F801FC00
1FC007F3F001FC00
1FC007F7F001FC00
1FC003FFE000FC00
1F8003FFE000FE00
3F8001FFC000FE00
3F8001FFC0007E00
3F0000FFC0007E00
7F0000FF80007F00
7F0000FF80007F00
7F00007F00003F00
7E00007F00003F80
FE00003E00003F80
0000000800000000
ENDCHAR
STARTCHAR n
ENCODING 110
SWIDTH 873 0
DWIDTH 46 0
BBX 40 39 3 0
BITMAP
380000003F
7E0000003F
FF0000003F
FF8000003F
FFC000003F
FFE000003F
FFF000003F
FFF800003F
FFFC00003F
FFFE00003F
FFFF00003F
FFFF80003F
FEFFC0003F
FE7FE0003F
FE3FF0003F
FE1FF8003F
FE0FFC003F
FE07FE003F
FE03FF003F
FE01FF803F
FE00FFC03F
FE007FE03F
FE003FF03F
FE001FF83F
FE000FFC3F
FE0007FE3F
FE0003FF3F
FE0001FFBF
FE0000FFFF
FE00007FFF
FE00003FFF
FE00001FFF
FE00000FFF
FE000003FF
FE000001FF
FE000000FF
FE0000007F
FE0000003E
FE0000001E
ENDCHAR
STARTCHAR o
ENCODING 111
SWIDTH 968 0
DWIDTH 51 0
BBX 47 39 2 0
BITMAP
0003FFFF8000
001FFFFFF000
007FFFFFFC00
00FFFFFFFF00
03FFFFFFFF80
07FFFFFFFFC0
0FFFFFFFFFE0
0FFE0000FFF0
1FF800001FF0
3FE000000FF8
3FC0000007F8
3F80000003FC
7F80000001FC
7F00000001FC
7F00000000FE
FE00000000FE
FE00000000FE
FE00000000FE
FE00000000FE
FE00000000FE
FE00000000FE
FE00000000FE
FE00000000FE
7F00000000FE
7F00000000FE
7F00000001FC
7F80000001FC
3F80000003FC
3FC0000007F8
1FE000000FF8
1FF800001FF0
0FFE0000FFE0
07FFFFFFFFE0
03FFFFFFFFC0
01FFFFFFFF80
00FFFFFFFE00
003FFFFFFC00
000FFFFFF000
0001FFFF8000
ENDCHAR
STARTCHAR p
ENCODING 112
SWIDTH 867 0
DWIDTH 46 0
BBX 42 39 3 0
BITMAP
FFFFFFFF0000
FFFFFFFFE000
FFFFFFFFF000
FFFFFFFFFC00
FFFFFFFFFC00
FFFFFFFFFE00
FFFFFFFFFF00
FE000001FF00
FE0000007F80
FE0000003F80
FE0000003F80
FE0000001F80
FE0000001F80
FE0000001FC0
FE0000001FC0
FE0000001F80
FE0000001F80
FE0000003F80
FE0000003F80
FE0000007F80
FE000001FF00
FE0FFFFFFF00
FE0FFFFFFE00
FE0FFFFFFC00
FE0FFFFFF800
FE0FFFFFF000
FE0FFFFFC000
FE0FFFFF0000
FE0000000000
FE0000000000
FE0000000000
FE0000000000
FE0000000000
FE0000000000
FE0000000000
FE0000000000
FE0000000000
FE0000000000
FE0000000000
ENDCHAR
STARTCHAR q
ENCODING 113
SWIDTH 968 0
DWIDTH 51 0
BBX 49 39 2 0
BITMAP
0003FFFF800000
001FFFFFF00000
007FFFFFFC0000
00FFFFFFFF0000
03FFFFFFFF8000
07FFFFFFFFC000
0FFFFFFFFFE000
0FFE0000FFF000
1FF800001FF000
3FE000000FF800
3FC0000007F800
3F80000003FC00
7F80000001FC00
7F00000001FC00
7F00000000FE00
FE00000000FE00
FE00000000FE00
FE00000000FE00
FE00000000FE00
FE00000000FE00
FE00000000FE00
FE00000000FE00
FE00000000FE00
7F0007FC00FE00
7F0001FE00FE00
7F0000FF01FC00
7F80007FC1FC00
3F80003FE3FC00
3FC0000FF7F800
1FE00007FFF800
1FF80003FFF000
0FFE0001FFE000
07FFFFFFFFE000
03FFFFFFFFC000
01FFFFFFFFE000
00FFFFFFFFF800
003FFFFFFFFC00
000FFFFFF3FE00
0001FFFF80FF80
ENDCHAR
STARTCHAR r
ENCODING 114
SWIDTH 921 0
DWIDTH 49 0
BBX 46 39 3 0
BITMAP
FFFFFFFF0000
FFFFFFFFE000
FFFFFFFFF800
FFFFFFFFFC00
FFFFFFFFFE00
FFFFFFFFFF00
FFFFFFFFFF00
FE000000FF80
FE0000007F80
FE0000003F80
FE0000001FC0
FE0000001FC0
FE0000001FC0
FE0000001FC0
FE0000001FC0
FE0000001FC0
FE0000001FC0
FE0000001FC0
FE0000001F80
FE0000003F80
FE0000007F80
FE000001FF00
FE0FFFFFFF00
FE0FFFFFFE00
FE0FFFFFFC00
FE0FFFFFF800
FE0FFFFFE000
FE0FFFFFE000
FE00001FF000
FE00000FF800
FE000007F800
FE000007FC00
FE000003FE00
FE000001FF00
FE000000FF80
FE0000007FC0
FE0000003FE0
FE0000001FF0
FE0000000FFC
ENDCHAR
STARTCHAR s
ENCODING 115
SWIDTH 880 0
DWIDTH 47 0
BBX 41 39 3 0
BITMAP
00FFFFFFFE00
07FFFFFFFE00
1FFFFFFFFE00
3FFFFFFFFE00
3FFFFFFFFE00
7FFFFFFFFE00
7FFFFFFFFE00
FF8000000000
FF0000000000
FE0000000000
FE0000000000
FE0000000000
FE0000000000
FE0000000000
FF0000000000
7F8000000000
7FFFFFFFC000
3FFFFFFFF000
1FFFFFFFFC00
0FFFFFFFFE00
07FFFFFFFF00
00FFFFFFFF00
00000000FF00
000000003F80
000000003F80
000000001F80
000000001F80
000000001F80
000000001F80
000000003F80
000000003F80
00000000FF80
FFFFFFFFFF00
FFFFFFFFFF00
FFFFFFFFFE00
FFFFFFFFFC00
FFFFFFFFF800
FFFFFFFFF000
FFFFFFFF8000
ENDCHAR
STARTCHAR t
ENCODING 116
SWIDTH 720 0
DWIDTH 38 0
BBX 36 39 1 0
BITMAP
FFFFFFFFF0
FFFFFFFFF0
FFFFFFFFF0
FFFFFFFFF0
FFFFFFFFF0
FFFFFFFFF0
FFFFFFFFF0
0001F80000
0001F80000
0001F80000
0001F80000
0001F80000
0001F80000
0001F80000
0001F80000
0001F80000
0001F80000
0001F80000
0001F80000
0001F80000
0001F80000
0001F80000
0001F80000
0001F80000
0001F80000
0001F80000
0001F80000
0001F80000
0001F80000
0001F80000
0001F80000
0001F80000
0001F80000
0001F80000
0001F80000
0001F80000
0001F80000
0001F80000
0001F80000
ENDCHAR
STARTCHAR u
ENCODING 117
SWIDTH 889 0
DWIDTH 47 0
BBX 41 40 3 -1
BITMAP
FE0000001F80
FE0000001F80
FE0000001F80
FE0000001F80
FE0000001F80
FE0000001F80
FE0000001F80
FE0000001F80
FE0000001F80
FE0000001F80
FE0000001F80
FE0000001F80
FE0000001F80
FE0000001F80
FE0000001F80
FE0000001F80
FE0000001F80
FE0000001F80
FE0000001F80
FE0000001F80
FE0000001F80
FE0000001F80
FE0000001F80
FE0000001F80
FE0000001F80
FE0000003F80
FE0000003F80
FF0000003F80
FF0000007F80
7F8000007F00
7FC00000FF00
3FE00003FF00
3FFE001FFE00
1FFFFFFFFC00
0FFFFFFFFC00
07FFFFFFF000
03FFFFFFE000
00FFFFFF8000
003FFFFE0000
0001FFC00000
ENDCHAR
STARTCHAR v
ENCODING 118
SWIDTH 989 0
DWIDTH 52 0
BBX 51 40 1 -1
BITMAP
FF000000001FE0
7F800000003FC0
7F800000007F80
3FC00000007F80
3FE0000000FF00
1FE0000000FE00
0FF0000001FE00
0FF0000001FC00
07F8000003FC00
07F8000007F800
03FC000007F000
01FE00000FF000
01FE00000FE000
00FF00001FE000
00FF00003FC000
007F80003F8000
003FC0007F8000
003FC0007F0000
001FE000FF0000
001FE000FE0000
000FF001FC0000
000FF003FC0000
0007F803F80000
0003FC07F80000
0003FC07F00000
0001FE0FE00000
0001FE0FE00000
0000FF1FC00000
00007F3FC00000
00007FBF800000
00003FFF000000
00003FFF000000
00001FFE000000
00000FFE000000
00000FFC000000
000007FC000000
000007F8000000
000003F0000000
000001F0000000
00000040000000
ENDCHAR
STARTCHAR w
ENCODING 119
SWIDTH 1268 0
DWIDTH 67 0
BBX 65 40 1 -1
BITMAP
FF001FF00000003F80
7F800FF00000007F80
7F800FF80000007F00
3FC007F8000000FF00
3FC007FC000000FE00
1FE003FC000001FE00
1FE003FC000001FC00
0FF001FE000003F800
0FF001FE000007F800
07F800FF000007F000
07F800FF00000FF000
03FC007F80000FE000
03FC007F80001FE000
01FE003FC0001FC000
01FE003FC0003FC000
00FF001FE0003F8000
00FF000FE0007F8000
007F800FF0007F0000
007F8007F000FF0000
003FC007F800FE0000
001FC007F801FE0000
001FE00FFC01FC0000
000FE00FFC03FC0000
000FF01FFE03F80000
0007F01FFE07F80000
0007F83FFF07F00000
0003F83FFF0FE00000
0003FC7F7F8FE00000
0001FCFF3F9FC00000
0001FEFE3FDFC00000
0000FFFC1FFF800000
0000FFFC1FFF800000
00007FF80FFF000000
00007FF80FFF000000
00003FF007FE000000
00003FF007FE000000
00001FE003FC000000
00001FE003FC000000
00000FC001F8000000
0000078000F0000000
ENDCHAR
STARTCHAR x
ENCODING 120
SWIDTH 1000 0
DWIDTH 53 0
BBX 51 39 1 0
BITMAP
3FE0000000FF80
1FF0000001FE00
0FF8000003FC00
07FE000007F800
03FF00000FF000
01FF80001FE000
00FFC0003FC000
007FE0007F8000
003FF000FF0000
001FF801FE0000
000FFC03FC0000
0007FE07F80000
0003FF0FF00000
0001FF9FE00000
00007FFFC00000
00003FFF800000
00001FFF000000
00000FFE000000
000007FC000000
00000FFC000000
00001FFE000000
00003FFF800000
00007FFFC00000
0000FFFFE00000
0001FF3FF00000
0003FE1FF80000
0007F80FFC0000
000FF007FE0000
001FE003FF0000
003FC001FF8000
007F8000FFC000
00FF00007FE000
01FE00003FF000
03FC00000FF800
07F800000FFC00
0FF0000003FE00
1FE0000001FF00
3FC0000000FF80
FF800000007FE0
ENDCHAR
STARTCHAR y
ENCODING 121
SWIDTH 926 0
DWIDTH 49 0
BBX 47 39 1 0
BITMAP
FF80000003FE
7FC0000003FC
3FE0000007F8
1FF000000FF0
1FF800001FF0
0FF800003FE0
07FC00007FC0
03FE0000FF80
01FF0000FF00
00FF8001FE00
007FC003FE00
007FC007FC00
003FE00FF800
001FF01FF000
000FF81FE000
0007FC3FC000
0003FE7F8000
0003FEFF8000
0001FFFF0000
0000FFFE0000
00007FFC0000
00003FF80000
00001FF00000
00000FE00000
00000FE00000
00000FE00000
00000FE00000
00000FE00000
00000FE00000
00000FE00000
00000FE00000
00000FE00000
00000FE00000
00000FE00000
00000FE00000
00000FE00000
00000FE00000
00000FE00000
00000FE00000
ENDCHAR
STARTCHAR z
ENCODING 122
SWIDTH 802 0
DWIDTH 43 0
BBX 38 39 2 0
BITMAP
7FFFFFFFF0
7FFFFFFFFC
7FFFFFFFFC
7FFFFFFFFC
7FFFFFFFFC
7FFFFFFFF8
7FFFFFFFF8
0000003FF0
0000007FE0
000000FFC0
000001FF80
000003FF00
000007FE00
00000FFC00
00001FF800
00003FF000
00007FE000
00007FC000
0000FF8000
0001FF0000
0003FE0000
0007FC0000
000FF80000
001FF00000
003FE00000
007FC00000
00FF800000
01FF000000
03FE000000
07FC000000
0FF8000000
1FF0000000
3FFFFFFFFC
7FFFFFFFFC
FFFFFFFFFC
FFFFFFFFFC
FFFFFFFFFC
7FFFFFFFFC
3FFFFFFFFC
ENDCHAR
STARTCHAR braceleft
ENCODING 123
SWIDTH 337 0
DWIDTH 18 0
BBX 11 49 3 -5
BITMAP
03E0
07E0
0FE0
1FE0
1F80
1F00
1F00
1E00
1E00
1E00
1E00
1E00
1E00
1E00
1E00
1E00
1E00
1E00
1E00
1E00
1E00
1E00
1E00
FE00
FC00
FC00
FE00
1E00
1E00
1E00
1E00
1E00
1E00
1E00
1E00
1E00
1E00
1E00
1E00
1E00
1E00
1E00
1E00
1F00
1F80
1FE0
0FE0
07E0
03E0
ENDCHAR
STARTCHAR bar
ENCODING 124
SWIDTH 297 0
DWIDTH 16 0
BBX 4 49 6 -5
BITMAP
F0
F0
F0
F0
F0
F0
F0
F0
F0
F0
F0
F0
F0
F0
F0
F0
F0
F0
F0
F0
F0
F0
F0
F0
F0
F0
F0
F0
F0
F0
F0
F0
F0
F0
F0
F0
F0
F0
F0
F0
F0
F0
F0
F0
F0
F0
F0
F0
F0
ENDCHAR
STARTCHAR braceright
ENCODING 125
SWIDTH 337 0
DWIDTH 18 0
BBX 11 49 3 -5
BITMAP
F800
FE00
FF00
FF00
1F80
0F80
0F80
0F80
0F80
0F80
0F80
0F80
0F80
0F80
0F80
0F80
0F80
0F80
0F80
0F80
0F80
0F80
0F80
07E0
07E0
03E0
07E0
0F80
0F80
0F80
0F80
0F80
0F80
0F80
0F80
0F80
0F80
0F80
0F80
0F80
0F80
0F80
0F80
0F80
1F80
FF00
FF00
FE00
FC00
ENDCHAR
STARTCHAR asciitilde
ENCODING 126
SWIDTH 691 0
DWIDTH 37 0
BBX 30 8 3 16
BITMAP
0FF00004
3FFE0004
FFFFE03C
FFFFFFFC
FFFFFFFC
F80FFFFC
C001FFF8
80001FE0
ENDCHAR
STARTCHAR nonbreakingspace
ENCODING 160
SWIDTH 294 0
DWIDTH 16 0
BBX 1 1 0 0
BITMAP
00
ENDCHAR
STARTCHAR exclamdown
ENCODING 161
SWIDTH 298 0
DWIDTH 16 0
BBX 8 39 4 0
BITMAP
3C
7E
FE
FF
7E
7E
3C
00
00
00
00
00
7E
7E
7E
7E
7E
7E
7E
7E
7E
7E
7E
7E
7E
7E
7E
7E
7E
7E
7E
7E
7E
7E
7E
7E
7E
7E
7E
ENDCHAR
STARTCHAR cent
ENCODING 162
SWIDTH 692 0
DWIDTH 37 0
BBX 32 39 2 0
BITMAP
00001C00
00001C00
00001C00
00001C00
001FFFFF
00FFFFFF
01FFFFFF
07FFFFFF
0FFFFFFF
1FFFFFFF
1FF01C00
3FC01C00
7F801C00
7F001C00
7E001C00
7C001C00
FC001C00
FC001C00
FC001C00
FC001C00
FC001C00
FC001C00
FC001C00
7C001C00
7E001C00
7F001C00
3F801C00
3FC01C00
1FF01C00
0FFFFFFF
0FFFFFFF
07FFFFFF
01FFFFFF
007FFFFF
001FFFFF
00001C00
00001C00
00001C00
00001C00
ENDCHAR
STARTCHAR sterling
ENCODING 163
SWIDTH 709 0
DWIDTH 38 0
BBX 33 39 2 0
BITMAP
000FFFF000
007FFFF000
00FFFFF000
01FFFFF000
03FFFFF000
07FFFFF000
07FFFFF000
07F8000000
0FF0000000
0FE0000000
0FE0000000
0FE0000000
0FE0000000
0FE0000000
0FE0000000
0FE0000000
3FFFF80000
3FFFF80000
3FFFF80000
3FFFF80000
3FFFF80000
0FE0000000
0FE0000000
0FE0000000
0FE0000000
0FE0000000
0FE0000000
0FE0000000
0FE0000000
0FE0000000
0FE0000000
0FE0000000
FFFFFFFF80
FFFFFFFF80
FFFFFFFF80
FFFFFFFF80
FFFFFFFF80
FFFFFFFF80
FFFFFFFF80
ENDCHAR
STARTCHAR yen
ENCODING 165
SWIDTH 787 0
DWIDTH 42 0
BBX 39 39 1 0
BITMAP
FF000001FE
7F800001FC
3FC00003FC
3FC00007F8
1FE00007F0
0FF0000FF0
0FF0001FE0
07F8001FC0
03F8003FC0
03FC003F80
01FE007F80
00FE00FF00
00FF00FE00
007F81FE00
003F83FC00
003FC3F800
001FE7F800
000FE7F000
000FFFE000
0007FFE000
0003FFC000
03FFFFFFC0
03FFFFFFC0
03FFFFFFC0
03FFFFFFC0
03FFFFFFC0
00007E0000
00007E0000
00007E0000
00007E0000
03FFFFFFC0
03FFFFFFC0
03FFFFFFC0
03FFFFFFC0
03FFFFFFC0
00007E0000
00007E0000
00007E0000
00007E0000
ENDCHAR
STARTCHAR brokenbar
ENCODING 166
SWIDTH 297 0
DWIDTH 16 0
BBX 4 49 6 -5
BITMAP
F0
F0
F0
F0
F0
F0
F0
F0
F0
F0
F0
F0
F0
F0
F0
F0
F0
F0
F0
F0
F0
F0
00
00
00
00
00
00
F0
F0
F0
F0
F0
F0
F0
F0
F0
F0
F0
F0
F0
F0
F0
F0
F0
F0
F0
F0
F0
ENDCHAR
STARTCHAR section
ENCODING 167
SWIDTH 773 0
DWIDTH 41 0
BBX 35 50 3 -11
BITMAP
01FFFFFE00
0FFFFFFE00
1FFFFFFE00
3FFFFFFE00
7FFFFFFE00
7FFFFFFE00
FFFFFFFE00
FF00000000
FE00000000
FC00000000
FC00000000
FC00000000
FC00000000
FC00000000
FE00000000
7F00000000
7FFFFFF000
3FFFFFFC00
1FFFFFFE00
0FFFFFFF00
1FFFFFFF00
3F80007F80
3F00003F80
3F00001F80
3E00001F80
7E00001F80
7F00001F80
3F00003F00
3F80007F00
3FFFFFFE00
1FFFFFFC00
1FFFFFFE00
07FFFFFF00
01FFFFFF80
0000003FC0
0000001FC0
0000000FE0
0000000FE0
0000000FE0
0000000FE0
0000000FE0
0000001FE0
0000003FE0
0FFFFFFFC0
0FFFFFFFC0
0FFFFFFF80
0FFFFFFF00
0FFFFFFF00
0FFFFFFC00
0FFFFFF000
ENDCHAR
STARTCHAR dieresis
ENCODING 168
SWIDTH 393 0
DWIDTH 21 0
BBX 15 5 3 43
BITMAP
701C
F83E
F83E
F83E
701C
ENDCHAR
STARTCHAR copyright
ENCODING 169
SWIDTH 829 0
DWIDTH 44 0
BBX 40 40 2 -1
BITMAP
0000FF0000
000FFFF000
003E007C00
0078000E00
01E0000780
03800001C0
07000000E0
0600000060
0C00000030
1800000018
1800000018
3000FFC00C
3003FFC00C
6007FFC006
600F800006
601E000006
C01C000002
C038000003
C038000003
C038000003
C038000003
C038000003
C038000003
401C000002
601C000006
600E000006
6007800006
3003FFC00C
3000FFC00C
1800000018
1800000018
0C00000030
0600000060
07000000E0
03800001C0
01E0000700
0078000E00
003E007C00
000FFFF000
0000FF8000
ENDCHAR
STARTCHAR ordfeminine
ENCODING 170
SWIDTH 604 0
DWIDTH 32 0
BBX 28 23 2 16
BITMAP
00040000
000F0000
000F0000
001F8000
001F8000
003FC000
007FE000
0079E000
00F1F000
00F0F000
01E07800
03E07C00
03C03C00
07803E00
078FFE00
0F1FFF00
0F3FFF00
1E000780
3E0007C0
3C0003C0
780003E0
780001E0
F00000F0
ENDCHAR
STARTCHAR guillemotleft
ENCODING 171
SWIDTH 629 0
DWIDTH 33 0
BBX 29 20 2 10
BITMAP
00020008
00060018
001E0078
003E01F8
00F803E0
03F00FC0
07C03F00
1F007C00
7E01F000
F803E000
F003C000
7C01F000
1F007C00
0F803E00
03E00F80
00F803E0
007E01F0
001E0078
00060018
00020008
ENDCHAR
STARTCHAR registered
ENCODING 174
SWIDTH 585 0
DWIDTH 31 0
BBX 25 25 3 14
BITMAP
007F0000
01FFC000
0780F000
0E003800
1C001C00
38000E00
30000600
61FF8700
61FFC300
6180C300
C180C180
C180C180
C19FC180
C19F8180
C1838380
6181C300
6180E300
60000700
30000600
38000E00
1C001C00
0E003800
0780F000
01FFC000
007F0000
ENDCHAR
STARTCHAR macron
ENCODING 175
SWIDTH 362 0
DWIDTH 19 0
BBX 13 3 3 44
BITMAP
FFF8
FFF8
FFF8
ENDCHAR
STARTCHAR degree
ENCODING 176
SWIDTH 361 0
DWIDTH 19 0
BBX 15 15 2 24
BITMAP
0FE0
3FF8
3FFC
783C
701E
E00E
E00E
E00E
E00E
E00E
701E
783C
7FFC
3FF8
0FE0
ENDCHAR
STARTCHAR plusminus
ENCODING 177
SWIDTH 690 0
DWIDTH 37 0
BBX 30 37 3 -2
BITMAP
0007C000
0007C000
0007C000
0007C000
0007C000
0007C000
0007C000
0007C000
0007C000
0007C000
0007C000
0007C000
FFFFFFFC
FFFFFFFC
FFFFFFFC
FFFFFFFC
FFFFFFFC
0007C000
0007C000
0007C000
0007C000
0007C000
0007C000
0007C000
0007C000
0007C000
0007C000
0007C000
0007C000
0007C000
00000000
00000000
FFFFFFFC
FFFFFFFC
FFFFFFFC
FFFFFFFC
FFFFFFFC
ENDCHAR
STARTCHAR twosuperior
ENCODING 178
SWIDTH 442 0
DWIDTH 23 0
BBX 19 19 2 19
BITMAP
7FFF00
7FFFC0
7FFFC0
0001E0
0000E0
0000E0
0000E0
0001E0
1FFFC0
3FFF80
7FFF00
700000
F00000
F00000
F00000
F00000
FFFFE0
FFFFE0
FFFFE0
ENDCHAR
STARTCHAR threesuperior
ENCODING 179
SWIDTH 443 0
DWIDTH 23 0
BBX 19 19 2 19
BITMAP
FFFF00
FFFFC0
FFFFC0
0001E0
0001E0
0000E0
0001E0
0001C0
07FF80
07FF80
07FFE0
0001E0
0000E0
0000E0
0000E0
0001E0
FFFFE0
FFFFC0
FFFF00
ENDCHAR
STARTCHAR acute
ENCODING 180
SWIDTH 362 0
DWIDTH 19 0
BBX 13 8 3 41
BITMAP
0008
0038
03F8
1FF8
FFF8
FF80
F800
8000
ENDCHAR
STARTCHAR paragraph
ENCODING 182
SWIDTH 629 0
DWIDTH 33 0
BBX 28 44 2 -5
BITMAP
03FFFFF0
0FFFFFF0
1FFFFFF0
3FFFFFF0
7FFF80F0
7FFF80F0
7FFF80F0
FFFF80F0
FFFF80F0
FFFF80F0
7FFF80F0
7FFF80F0
7FFF80F0
3FFF80F0
3FFF80F0
1FFF80F0
07FF80F0
000780F0
000780F0
000780F0
000780F0
000780F0
000780F0
000780F0
000780F0
000780F0
000780F0
000780F0
000780F0
000780F0
000780F0
000780F0
000780F0
000780F0
000780F0
000780F0
000780F0
000780F0
000780F0
000780F0
000780F0
000780F0
000780F0
000780F0
ENDCHAR
STARTCHAR periodcentered
ENCODING 183
SWIDTH 262 0
DWIDTH 14 0
BBX 8 7 3 16
BITMAP
38
7E
7E
FF
FE
7E
3C
ENDCHAR
STARTCHAR cedilla
ENCODING 184
SWIDTH 219 0
DWIDTH 12 0
BBX 7 8 2 -11
BITMAP
FE
7E
7C
3C
38
18
18
10
ENDCHAR
STARTCHAR onesuperior
ENCODING 185
SWIDTH 222 0
DWIDTH 12 0
BBX 8 19 1 20
BITMAP
F8
FE
FE
0F
07
07
07
07
07
07
07
07
07
07
07
07
07
07
07
ENDCHAR
STARTCHAR ordmasculine
ENCODING 186
SWIDTH 592 0
DWIDTH 31 0
BBX 26 22 3 16
BITMAP
01FFE000
07FFF800
1FFFFC00
3FFFFE00
7F003F00
7C000F00
78000780
F0000780
F0000380
F00003C0
F00003C0
F00003C0
F00003C0
F0000380
F0000780
78000780
7C000F00
3F003F00
3FFFFE00
1FFFFC00
07FFF800
01FFC000
ENDCHAR
STARTCHAR guillemotright
ENCODING 187
SWIDTH 629 0
DWIDTH 33 0
BBX 29 20 2 10
BITMAP
80020000
E0030000
F003C000
FC03F000
3F00F800
0F803E00
07E01F80
01F807C0
007C01F0
001E00F8
001E0078
007C01F0
00F803C0
03E00F80
0F803E00
1F00FC00
7C01F000
F003C000
E0038000
80020000
ENDCHAR
STARTCHAR onequarter
ENCODING 188
SWIDTH 972 0
DWIDTH 52 0
BBX 47 45 2 -4
BITMAP
000000001F00
000000003C00
078000007C00
07E00000F800
07F00000F000
00F00001E000
00700003E000
00700007C000
0078000F8000
0078000F0000
0078001E0000
0078003E0000
0078007C0000
007800780000
007800F00000
007801F00000
007803E00000
007807C00000
007807800000
00780F800000
00781F000000
00003E000000
00003C000000
0000781C0070
0000F81C0070
0001F01C0070
0001E01C0070
0003C01C0070
0007C01C0070
000F801C0070
001F001C0070
001E001C0070
003C001C0070
007C001E0070
00F8000FFFFE
00F0000FFFFE
01E00003FFFE
03E000000070
07C000000070
0F8000000070
0F0000000070
1F0000000070
3E0000000000
7C0000000000
F80000000000
ENDCHAR
STARTCHAR onehalf
ENCODING 189
SWIDTH 948 0
DWIDTH 50 0
BBX 46 45 2 -4
BITMAP
000000001F00
000000003C00
078000007C00
07E00000F800
07F00000F000
00F00001E000
00700003E000
00700007C000
0078000F8000
0078000F0000
0078001E0000
0078003E0000
0078007C0000
007800780000
007800F00000
007801F00000
007803E00000
007807C00000
007807800000
00780F800000
00781F000000
00003E000000
00003C000000
0000781FFFE0
0000F81FFFF0
0001F01FFFF8
0001E000003C
0003C000003C
0007C000001C
000F8000003C
001F0000003C
001E0003FFF8
003C0007FFF0
007C000FFFE0
00F8001E0000
00F0001C0000
01E0001C0000
03E0001C0000
07C0001C0000
0F80001FFFFC
0F00001FFFFC
1F00001FFFFC
3E0000000000
7C0000000000
F80000000000
ENDCHAR
STARTCHAR threequarters
ENCODING 190
SWIDTH 1029 0
DWIDTH 55 0
BBX 50 45 2 -4
BITMAP
0000000003E000
00000000078000
000000000F8000
FFFF00001F0000
FFFFC0001E0000
FFFFE0003C0000
0001E0007C0000
0000E000F80000
0000E001F00000
0000E001E00000
0001E003C00000
07FFC007C00000
07FFC00F800000
07FFE00F000000
0001E01E000000
0000F03E000000
0000F07C000000
0000F078000000
0001E0F0000000
FFFFE1F0000000
FFFFC3E0000000
FFFF07C0000000
00000780000000
00000F03800F00
00001F03800F00
00003E03800F00
00003C03800F00
00007803800F00
0000F803800F00
0001F003800F00
0003E003800F00
0003C003800F00
0007C003800F00
000F8003C00F00
001F0001FFFFC0
001E0001FFFFC0
003C00007FFFC0
007C0000000F00
00F80000000F00
01F00000000F00
01E00000000F00
03E00000000F00
07C00000000000
0F800000000000
1F000000000000
ENDCHAR
STARTCHAR questiondown
ENCODING 191
SWIDTH 776 0
DWIDTH 41 0
BBX 38 39 1 0
BITMAP
0000000780
0000000FC0
0000001FC0
0000001FC0
0000001FC0
0000000FC0
0000000700
0000000000
0000000000
0000000000
0000000000
0000000000
0000000000
0000000FC0
0000000FC0
0000000FC0
0000001FC0
00FFFFFFC0
03FFFFFF80
0FFFFFFF80
1FFFFFFF00
3FFFFFFE00
3FFFFFF800
7FC0000000
7F00000000
7F00000000
7E00000000
FE00000000
FE00000000
7F00000000
7F00000000
7F80000000
7FFFFFFFFC
3FFFFFFFFC
3FFFFFFFFC
1FFFFFFFFC
0FFFFFFFFC
03FFFFFFFC
00FFFFFFFC
ENDCHAR
STARTCHAR Agrave
ENCODING 192
SWIDTH 989 0
DWIDTH 52 0
BBX 51 49 1 0
BITMAP
00008000000000
00007000000000
00007F00000000
00007FE0000000
00007FFC000000
000007FC000000
0000007C000000
00000002000000
00000000000000
00000040000000
000001F0000000
000003F0000000
000007F8000000
000007FC000000
00000FFC000000
00000FFE000000
00001FFE000000
00003FFF000000
00003FFF000000
00007FFF800000
00007F3FC00000
0000FE1FC00000
0001FE1FE00000
0001FC0FE00000
0003FC0FF00000
0003F807F80000
0007F803F80000
000FF003FC0000
000FE001FC0000
001FE001FE0000
001FC000FF0000
003FC0007F0000
003F80007F8000
007F07FFFF8000
00FF07FFFFC000
00FE0FFFFFE000
01FE0FFFFFE000
01FC1FFFFFF000
03FC1FFFFFF000
07F8200007F800
07F0000003FC00
0FF0000003FC00
0FE0000001FE00
1FE0000001FE00
3FC0000000FF00
3F80000000FF80
7F800000007F80
7F000000003FC0
FF000000003FE0
ENDCHAR
STARTCHAR Aacute
ENCODING 193
SWIDTH 989 0
DWIDTH 52 0
BBX 51 49 1 0
BITMAP
00000000400000
00000003C00000
0000001FC00000
000001FFC00000
00000FFFC00000
00000FFC000000
00000F80000000
00000800000000
00000000000000
00000040000000
000001F0000000
000003F0000000
000007F8000000
000007FC000000
00000FFC000000
00000FFE000000
00001FFE000000
00003FFF000000
00003FFF000000
00007FFF800000
00007F3FC00000
0000FE1FC00000
0001FE1FE00000
0001FC0FE00000
0003FC0FF00000
0003F807F80000
0007F803F80000
000FF003FC0000
000FE001FC0000
001FE001FE0000
001FC000FF0000
003FC0007F0000
003F80007F8000
007F07FFFF8000
00FF07FFFFC000
00FE0FFFFFE000
01FE0FFFFFE000
01FC1FFFFFF000
03FC1FFFFFF000
07F8200007F800
07F0000003FC00
0FF0000003FC00
0FE0000001FE00
1FE0000001FE00
3FC0000000FF00
3F80000000FF80
7F800000007F80
7F000000003FC0
FF000000003FE0
ENDCHAR
STARTCHAR Acircumflex
ENCODING 194
SWIDTH 989 0
DWIDTH 52 0
BBX 51 49 1 0
BITMAP
000003F0000000
000003F8000000
000007B8000000
00000F3C000000
00000E1E000000
00001E0E000000
00003C0F000000
00000000000000
00000000000000
00000040000000
000001F0000000
000003F0000000
000007F8000000
000007FC000000
00000FFC000000
00000FFE000000
00001FFE000000
00003FFF000000
00003FFF000000
00007FFF800000
00007F3FC00000
0000FE1FC00000
0001FE1FE00000
0001FC0FE00000
0003FC0FF00000
0003F807F80000
0007F803F80000
000FF003FC0000
000FE001FC0000
001FE001FE0000
001FC000FF0000
003FC0007F0000
003F80007F8000
007F07FFFF8000
00FF07FFFFC000
00FE0FFFFFE000
01FE0FFFFFE000
01FC1FFFFFF000
03FC1FFFFFF000
07F8200007F800
07F0000003FC00
0FF0000003FC00
0FE0000001FE00
1FE0000001FE00
3FC0000000FF00
3F80000000FF80
7F800000007F80
7F000000003FC0
FF000000003FE0
ENDCHAR
STARTCHAR Atilde
ENCODING 195
SWIDTH 989 0
DWIDTH 52 0
BBX 51 48 1 0
BITMAP
00000F01000000
00003FC1000000
00003FFF000000
000030FF000000
0000203E000000
00000000000000
00000000000000
00000000000000
00000040000000
000001F0000000
000003F0000000
000007F8000000
000007FC000000
00000FFC000000
00000FFE000000
00001FFE000000
00003FFF000000
00003FFF000000
00007FFF800000
00007F3FC00000
0000FE1FC00000
0001FE1FE00000
0001FC0FE00000
0003FC0FF00000
0003F807F80000
0007F803F80000
000FF003FC0000
000FE001FC0000
001FE001FE0000
001FC000FF0000
003FC0007F0000
003F80007F8000
007F07FFFF8000
00FF07FFFFC000
00FE0FFFFFE000
01FE0FFFFFE000
01FC1FFFFFF000
03FC1FFFFFF000
07F8200007F800
07F0000003FC00
0FF0000003FC00
0FE0000001FE00
1FE0000001FE00
3FC0000000FF00
3F80000000FF80
7F800000007F80
7F000000003FC0
FF000000003FE0
ENDCHAR
STARTCHAR Adieresis
ENCODING 196
SWIDTH 989 0
DWIDTH 52 0
BBX 51 48 1 0
BITMAP
00001C0F000000
00003E0F800000
00003E1F800000
00003E0F800000
00001C0F000000
00000000000000
00000000000000
00000000000000
00000040000000
000001F0000000
000003F0000000
000007F8000000
000007FC000000
00000FFC000000
00000FFE000000
00001FFE000000
00003FFF000000
00003FFF000000
00007FFF800000
00007F3FC00000
0000FE1FC00000
0001FE1FE00000
0001FC0FE00000
0003FC0FF00000
0003F807F80000
0007F803F80000
000FF003FC0000
000FE001FC0000
001FE001FE0000
001FC000FF0000
003FC0007F0000
003F80007F8000
007F07FFFF8000
00FF07FFFFC000
00FE0FFFFFE000
01FE0FFFFFE000
01FC1FFFFFF000
03FC1FFFFFF000
07F8200007F800
07F0000003FC00
0FF0000003FC00
0FE0000001FE00
1FE0000001FE00
3FC0000000FF00
3F80000000FF80
7F800000007F80
7F000000003FC0
FF000000003FE0
ENDCHAR
STARTCHAR Aring
ENCODING 197
SWIDTH 989 0
DWIDTH 52 0
BBX 51 52 1 0
BITMAP
000007F8000000
00000FFC000000
00001C0E000000
00001807000000
00003803000000
00003003000000
00003803000000
00001807000000
00001C0E000000
00000FFC000000
000007F8000000
00000000000000
00000040000000
000001F0000000
000003F0000000
000007F8000000
000007FC000000
00000FFC000000
00000FFE000000
00001FFE000000
00003FFF000000
00003FFF000000
00007FFF800000
00007F3FC00000
0000FE1FC00000
0001FE1FE00000
0001FC0FE00000
0003FC0FF00000
0003F807F80000
0007F803F80000
000FF003FC0000
000FE001FC0000
001FE001FE0000
001FC000FF0000
003FC0007F0000
003F80007F8000
007F07FFFF8000
00FF07FFFFC000
00FE0FFFFFE000
01FE0FFFFFE000
01FC1FFFFFF000
03FC1FFFFFF000
07F8200007F800
07F0000003FC00
0FF0000003FC00
0FE0000001FE00
1FE0000001FE00
3FC0000000FF00
3F80000000FF80
7F800000007F80
7F000000003FC0
FF000000003FE0
ENDCHAR
STARTCHAR AE
ENCODING 198
SWIDTH 1345 0
DWIDTH 71 0
BBX 68 39 1 0
BITMAP
000003FFFFFFFFFFF0
000007FFFFFFFFFFF0
000007FFFFFFFFFFF0
00000FFFFFFFFFFFF0
00000FFFFFFFFFFFF0
00001FFFFFFFFFFFF0
00003FFFFFFFFFFFF0
00003F800FC0000000
00007F800FC0000000
00007F000FC0000000
0000FE000FC0000000
0000FE000FC0000000
0001FC000FC0000000
0003FC000FC0000000
0003F8000FC0000000
0007F8000FC0000000
0007F0000FC1FFFFC0
000FE0000FC1FFFFC0
000FE0000FC1FFFFC0
001FC0000FC1FFFFC0
003FC0000FC1FFFFC0
003F80000FC1FFFFC0
007F80000FC0000000
007F00000FC0000000
00FF07FFFFC0000000
01FE07FFFFC0000000
01FC0FFFFFC0000000
03FC1FFFFFC0000000
03F81FFFFFC0000000
07F83FFFFFC0000000
07F000000FC0000000
0FF000000FC0000000
1FE000000FFFFFFFF0
1FC000000FFFFFFFF0
3FC000000FFFFFFFF0
3F8000000FFFFFFFF0
7F8000000FFFFFFFF0
7F0000000FFFFFFFF0
FF0000000FFFFFFFF0
ENDCHAR
STARTCHAR Ccedilla
ENCODING 199
SWIDTH 829 0
DWIDTH 44 0
BBX 40 50 2 -11
BITMAP
0003FFFFFF
001FFFFFFF
007FFFFFFF
00FFFFFFFF
03FFFFFFFF
07FFFFFFFF
0FFFFFFFFF
0FFE000000
1FF8000000
3FE0000000
3FC0000000
3F80000000
7F80000000
7F00000000
7F00000000
FE00000000
FE00000000
FE00000000
FE00000000
FE00000000
FE00000000
FE00000000
FE00000000
7F00000000
7F00000000
7F00000000
7F80000000
3F80000000
3FC0000000
1FE0000000
1FF8000000
0FFE000000
07FFFFFFFF
03FFFFFFFF
01FFFFFFFF
00FFFFFFFF
003FFFFFFF
000FFFFFFF
0001FFFFFF
0000000000
0000000000
0000000000
00007F8000
00003F0000
00001E0000
00001E0000
00001E0000
00000C0000
00000C0000
0000040000
ENDCHAR
STARTCHAR Egrave
ENCODING 200
SWIDTH 759 0
DWIDTH 40 0
BBX 35 49 3 0
BITMAP
0080000000
0070000000
007F000000
007FE00000
007FFC0000
0007FC0000
00007C0000
0000020000
0000000000
0000000000
FFFFFFFFE0
FFFFFFFFE0
FFFFFFFFE0
FFFFFFFFE0
FFFFFFFFE0
FFFFFFFFE0
FFFFFFFFE0
FE00000000
FE00000000
FE00000000
FE00000000
FE00000000
FE00000000
FE00000000
FE00000000
FE00000000
FE0FFFFF80
FE0FFFFF80
FE0FFFFF80
FE0FFFFF80
FE0FFFFF80
FE0FFFFF80
FE00000000
FE00000000
FE00000000
FE00000000
FE00000000
FE00000000
FE00000000
FE00000000
FE00000000
FE00000000
FFFFFFFFE0
FFFFFFFFE0
FFFFFFFFE0
FFFFFFFFE0
FFFFFFFFE0
FFFFFFFFE0
FFFFFFFFE0
ENDCHAR
STARTCHAR Eacute
ENCODING 201
SWIDTH 759 0
DWIDTH 40 0
BBX 35 49 3 0
BITMAP
0000004000
0000038000
00001F8000
0001FF8000
000FFF8000
000FFC0000
000F800000
0008000000
0000000000
0000000000
FFFFFFFFE0
FFFFFFFFE0
FFFFFFFFE0
FFFFFFFFE0
FFFFFFFFE0
FFFFFFFFE0
FFFFFFFFE0
FE00000000
FE00000000
FE00000000
FE00000000
FE00000000
FE00000000
FE00000000
FE00000000
FE00000000
FE0FFFFF80
FE0FFFFF80
FE0FFFFF80
FE0FFFFF80
FE0FFFFF80
FE0FFFFF80
FE00000000
FE00000000
FE00000000
FE00000000
FE00000000
FE00000000
FE00000000
FE00000000
FE00000000
FE00000000
FFFFFFFFE0
FFFFFFFFE0
FFFFFFFFE0
FFFFFFFFE0
FFFFFFFFE0
FFFFFFFFE0
FFFFFFFFE0
ENDCHAR
STARTCHAR Ecircumflex
ENCODING 202
SWIDTH 759 0
DWIDTH 40 0
BBX 35 49 3 0
BITMAP
0003F00000
0003F80000
0007B80000
000F3C0000
000E1E0000
001E0E0000
003C0F0000
0000000000
0000000000
0000000000
FFFFFFFFE0
FFFFFFFFE0
FFFFFFFFE0
FFFFFFFFE0
FFFFFFFFE0
FFFFFFFFE0
FFFFFFFFE0
FE00000000
FE00000000
FE00000000
FE00000000
FE00000000
FE00000000
FE00000000
FE00000000
FE00000000
FE0FFFFF80
FE0FFFFF80
FE0FFFFF80
FE0FFFFF80
FE0FFFFF80
FE0FFFFF80
FE00000000
FE00000000
FE00000000
FE00000000
FE00000000
FE00000000
FE00000000
FE00000000
FE00000000
FE00000000
FFFFFFFFE0
FFFFFFFFE0
FFFFFFFFE0
FFFFFFFFE0
FFFFFFFFE0
FFFFFFFFE0
FFFFFFFFE0
ENDCHAR
STARTCHAR Edieresis
ENCODING 203
SWIDTH 759 0
DWIDTH 40 0
BBX 35 48 3 0
BITMAP
001C0F0000
003E1F8000
003E1F8000
003E1F8000
003C0F0000
0000000000
0000000000
0000000000
0000000000
FFFFFFFFE0
FFFFFFFFE0
FFFFFFFFE0
FFFFFFFFE0
FFFFFFFFE0
FFFFFFFFE0
FFFFFFFFE0
FE00000000
FE00000000
FE00000000
FE00000000
FE00000000
FE00000000
FE00000000
FE00000000
FE00000000
FE0FFFFF80
FE0FFFFF80
FE0FFFFF80
FE0FFFFF80
FE0FFFFF80
FE0FFFFF80
FE00000000
FE00000000
FE00000000
FE00000000
FE00000000
FE00000000
FE00000000
FE00000000
FE00000000
FE00000000
FFFFFFFFE0
FFFFFFFFE0
FFFFFFFFE0
FFFFFFFFE0
FFFFFFFFE0
FFFFFFFFE0
FFFFFFFFE0
ENDCHAR
STARTCHAR Igrave
ENCODING 204
SWIDTH 267 0
DWIDTH 14 0
BBX 13 49 -1 0
BITMAP
8000
E000
FE00
FFC0
FFF8
0FF8
00F8
0008
0000
0000
07E0
07E0
07E0
07E0
07E0
07E0
07E0
07E0
07E0
07E0
07E0
07E0
07E0
07E0
07E0
07E0
07E0
07E0
07E0
07E0
07E0
07E0
07E0
07E0
07E0
07E0
07E0
07E0
07E0
07E0
07E0
07E0
07E0
07E0
07E0
07E0
07E0
07E0
07E0
ENDCHAR
STARTCHAR Iacute
ENCODING 205
SWIDTH 267 0
DWIDTH 14 0
BBX 14 49 2 0
BITMAP
0004
003C
01FC
1FFC
FFFC
FFC0
F800
8000
0000
0000
3F00
3F00
3F00
3F00
3F00
3F00
3F00
3F00
3F00
3F00
3F00
3F00
3F00
3F00
3F00
3F00
3F00
3F00
3F00
3F00
3F00
3F00
3F00
3F00
3F00
3F00
3F00
3F00
3F00
3F00
3F00
3F00
3F00
3F00
3F00
3F00
3F00
3F00
3F00
ENDCHAR
STARTCHAR Icircumflex
ENCODING 206
SWIDTH 267 0
DWIDTH 14 0
BBX 14 49 0 0
BITMAP
0FC0
0FE0
1EE0
3CF0
3878
7838
F03C
0000
0000
0000
0FC0
0FC0
0FC0
0FC0
0FC0
0FC0
0FC0
0FC0
0FC0
0FC0
0FC0
0FC0
0FC0
0FC0
0FC0
0FC0
0FC0
0FC0
0FC0
0FC0
0FC0
0FC0
0FC0
0FC0
0FC0
0FC0
0FC0
0FC0
0FC0
0FC0
0FC0
0FC0
0FC0
0FC0
0FC0
0FC0
0FC0
0FC0
0FC0
ENDCHAR
STARTCHAR Idieresis
ENCODING 207
SWIDTH 267 0
DWIDTH 14 0
BBX 15 48 0 0
BITMAP
703C
F87E
F87E
F83E
F03C
0000
0000
0000
0000
0FC0
0FC0
0FC0
0FC0
0FC0
0FC0
0FC0
0FC0
0FC0
0FC0
0FC0
0FC0
0FC0
0FC0
0FC0
0FC0
0FC0
0FC0
0FC0
0FC0
0FC0
0FC0
0FC0
0FC0
0FC0
0FC0
0FC0
0FC0
0FC0
0FC0
0FC0
0FC0
0FC0
0FC0
0FC0
0FC0
0FC0
0FC0
0FC0
ENDCHAR
STARTCHAR Eth
ENCODING 208
SWIDTH 877 0
DWIDTH 46 0
BBX 43 39 1 0
BITMAP
3FFFFFF80000
3FFFFFFF0000
3FFFFFFFC000
3FFFFFFFF000
3FFFFFFFF800
3FFFFFFFFC00
3FFFFFFFFE00
3F800007FF00
3F800001FF80
3F800000FF80
3F8000007FC0
3F8000003FC0
3F8000001FC0
3F8000001FE0
3F8000000FE0
3F8000000FE0
FFFFFF000FE0
FFFFFF000FE0
FFFFFF0007E0
FFFFFF0007E0
FFFFFF0007E0
FFFFFF000FE0
3F8000000FE0
3F8000000FE0
3F8000000FE0
3F8000001FC0
3F8000001FC0
3F8000003FC0
3F8000007F80
3F800000FF80
3F800001FF00
3F800007FE00
3FFFFFFFFE00
3FFFFFFFFC00
3FFFFFFFF800
3FFFFFFFF000
3FFFFFFFC000
3FFFFFFF0000
3FFFFFF80000
ENDCHAR
STARTCHAR Ntilde
ENCODING 209
SWIDTH 873 0
DWIDTH 46 0
BBX 40 48 3 0
BITMAP
0001E02000
0007F86000
0007FFE000
00061FE000
000407C000
0000000000
0000000000
0000000000
0000000000
380000003F
7E0000003F
FF0000003F
FF8000003F
FFC000003F
FFE000003F
FFF000003F
FFF800003F
FFFC00003F
FFFE00003F
FFFF00003F
FFFF80003F
FEFFC0003F
FE7FE0003F
FE3FF0003F
FE1FF8003F
FE0FFC003F
FE07FE003F
FE03FF003F
FE01FF803F
FE00FFC03F
FE007FE03F
FE003FF03F
FE001FF83F
FE000FFC3F
FE0007FE3F
FE0003FF3F
FE0001FFBF
FE0000FFFF
FE00007FFF
FE00003FFF
FE00001FFF
FE00000FFF
FE000003FF
FE000001FF
FE000000FF
FE0000007F
FE0000003E
FE0000001E
ENDCHAR
STARTCHAR Ograve
ENCODING 210
SWIDTH 968 0
DWIDTH 51 0
BBX 47 49 2 0
BITMAP
000100000000
0001E0000000
0001FC000000
0001FFC00000
0001FFF80000
00001FF80000
000000F80000
000000080000
000000000000
000000000000
0003FFFF8000
001FFFFFF000
007FFFFFFC00
00FFFFFFFF00
03FFFFFFFF80
07FFFFFFFFC0
0FFFFFFFFFE0
0FFE0000FFF0
1FF800001FF0
3FE000000FF8
3FC0000007F8
3F80000003FC
7F80000001FC
7F00000001FC
7F00000000FE
FE00000000FE
FE00000000FE
FE00000000FE
FE00000000FE
FE00000000FE
FE00000000FE
FE00000000FE
FE00000000FE
7F00000000FE
7F00000000FE
7F00000001FC
7F80000001FC
3F80000003FC
3FC0000007F8
1FE000000FF8
1FF800001FF0
0FFE0000FFE0
07FFFFFFFFE0
03FFFFFFFFC0
01FFFFFFFF80
00FFFFFFFE00
003FFFFFFC00
000FFFFFF000
0001FFFF8000
ENDCHAR
STARTCHAR Oacute
ENCODING 211
SWIDTH 968 0
DWIDTH 51 0
BBX 47 49 2 0
BITMAP
000000010000
0000000F0000
0000007F0000
000003FF0000
00001FFF0000
00003FF00000
00003F000000
000020000000
000000000000
000000000000
0003FFFF8000
001FFFFFF000
007FFFFFFC00
00FFFFFFFF00
03FFFFFFFF80
07FFFFFFFFC0
0FFFFFFFFFE0
0FFE0000FFF0
1FF800001FF0
3FE000000FF8
3FC0000007F8
3F80000003FC
7F80000001FC
7F00000001FC
7F00000000FE
FE00000000FE
FE00000000FE
FE00000000FE
FE00000000FE
FE00000000FE
FE00000000FE
FE00000000FE
FE00000000FE
7F00000000FE
7F00000000FE
7F00000001FC
7F80000001FC
3F80000003FC
3FC0000007F8
1FE000000FF8
1FF800001FF0
0FFE0000FFE0
07FFFFFFFFE0
03FFFFFFFFC0
01FFFFFFFF80
00FFFFFFFE00
003FFFFFFC00
000FFFFFF000
0001FFFF8000
ENDCHAR
STARTCHAR Ocircumflex
ENCODING 212
SWIDTH 968 0
DWIDTH 51 0
BBX 47 49 2 0
BITMAP
000007C00000
00000FE00000
00001EF00000
00001C700000
00003C780000
0000783C0000
0000F01E0000
000000000000
000000000000
000000000000
0003FFFF8000
001FFFFFF000
007FFFFFFC00
00FFFFFFFF00
03FFFFFFFF80
07FFFFFFFFC0
0FFFFFFFFFE0
0FFE0000FFF0
1FF800001FF0
3FE000000FF8
3FC0000007F8
3F80000003FC
7F80000001FC
7F00000001FC
7F00000000FE
FE00000000FE
FE00000000FE
FE00000000FE
FE00000000FE
FE00000000FE
FE00000000FE
FE00000000FE
FE00000000FE
7F00000000FE
7F00000000FE
7F00000001FC
7F80000001FC
3F80000003FC
3FC0000007F8
1FE000000FF8
1FF800001FF0
0FFE0000FFE0
07FFFFFFFFE0
03FFFFFFFFC0
01FFFFFFFF80
00FFFFFFFE00
003FFFFFFC00
000FFFFFF000
0001FFFF8000
ENDCHAR
STARTCHAR Otilde
ENCODING 213
SWIDTH 968 0
DWIDTH 51 0
BBX 47 48 2 0
BITMAP
00003C020000
00007F040000
00007FFC0000
000041FC0000
000080780000
000000000000
000000000000
000000000000
000000000000
0003FFFF8000
001FFFFFF000
007FFFFFFC00
00FFFFFFFF00
03FFFFFFFF80
07FFFFFFFFC0
0FFFFFFFFFE0
0FFE0000FFF0
1FF800001FF0
3FE000000FF8
3FC0000007F8
3F80000003FC
7F80000001FC
7F00000001FC
7F00000000FE
FE00000000FE
FE00000000FE
FE00000000FE
FE00000000FE
FE00000000FE
FE00000000FE
FE00000000FE
FE00000000FE
7F00000000FE
7F00000000FE
7F00000001FC
7F80000001FC
3F80000003FC
3FC0000007F8
1FE000000FF8
1FF800001FF0
0FFE0000FFE0
07FFFFFFFFE0
03FFFFFFFFC0
01FFFFFFFF80
00FFFFFFFE00
003FFFFFFC00
000FFFFFF000
0001FFFF8000
ENDCHAR
STARTCHAR Odieresis
ENCODING 214
SWIDTH 968 0
DWIDTH 51 0
BBX 47 48 2 0
BITMAP
0000701C0000
0000F83E0000
0000F83E0000
0000F83E0000
0000701C0000
000000000000
000000000000
000000000000
000000000000
0003FFFF8000
001FFFFFF000
007FFFFFFC00
00FFFFFFFF00
03FFFFFFFF80
07FFFFFFFFC0
0FFFFFFFFFE0
0FFE0000FFF0
1FF800001FF0
3FE000000FF8
3FC0000007F8
3F80000003FC
7F80000001FC
7F00000001FC
7F00000000FE
FE00000000FE
FE00000000FE
FE00000000FE
FE00000000FE
FE00000000FE
FE00000000FE
FE00000000FE
FE00000000FE
7F00000000FE
7F00000000FE
7F00000001FC
7F80000001FC
3F80000003FC
3FC0000007F8
1FE000000FF8
1FF800001FF0
0FFE0000FFE0
07FFFFFFFFE0
03FFFFFFFFC0
01FFFFFFFF80
00FFFFFFFE00
003FFFFFFC00
000FFFFFF000
0001FFFF8000
ENDCHAR
STARTCHAR multiply
ENCODING 215
SWIDTH 690 0
DWIDTH 37 0
BBX 24 25 6 7
BITMAP
100004
38000E
7C001F
FE003F
7F007E
3F80FC
1FC1F8
0FE3F0
07F7E0
03FFC0
01FF80
00FF00
007F00
00FF80
01FFC0
03FFE0
07E7F0
0FC3F8
1F81FC
3F00FE
7E007F
FC003F
78001E
30000C
000004
ENDCHAR
STARTCHAR Oslash
ENCODING 216
SWIDTH 968 0
DWIDTH 51 0
BBX 47 45 2 -3
BITMAP
000000000080
0000000000C0
0000000001E0
0003FFFF83C0
001FFFFFF780
007FFFFFFF00
00FFFFFFFF00
03FFFFFFFF80
07FFFFFFFFC0
0FFFFFFFFFE0
0FFE0000FFF0
1FF80000FFF0
3FE00001CFF8
3FC0000387F8
3F80000783FC
7F80000F01FC
7F00001E01FC
7F00003C00FE
FE00003800FE
FE00007000FE
FE0000E000FE
FE0001E000FE
FE0003C000FE
FE00078000FE
FE00070000FE
FE000E0000FE
7E001C0000FE
7F003C0000FE
7F00780001FC
7F80F00001FC
3F80E00003FC
3FC1C00007F8
1FE380000FF8
1FFF80001FF0
0FFF0000FFE0
07FFFFFFFFE0
03FFFFFFFFC0
01FFFFFFFF80
00FFFFFFFE00
00FFFFFFFC00
01FFFFFFF000
03C3FFFF8000
078000000000
030000000000
010000000000
ENDCHAR
STARTCHAR Ugrave
ENCODING 217
SWIDTH 889 0
DWIDTH 47 0
BBX 41 50 3 -1
BITMAP
000800000000
000F00000000
000FE0000000
000FFC000000
000FFFC00000
0000FFC00000
000007C00000
000000400000
000000000000
000000000000
FE0000001F80
FE0000001F80
FE0000001F80
FE0000001F80
FE0000001F80
FE0000001F80
FE0000001F80
FE0000001F80
FE0000001F80
FE0000001F80
FE0000001F80
FE0000001F80
FE0000001F80
FE0000001F80
FE0000001F80
FE0000001F80
FE0000001F80
FE0000001F80
FE0000001F80
FE0000001F80
FE0000001F80
FE0000001F80
FE0000001F80
FE0000001F80
FE0000001F80
FE0000003F80
FE0000003F80
FF0000003F80
FF0000007F80
7F8000007F00
7FC00000FF00
3FE00003FF00
3FFE001FFE00
1FFFFFFFFC00
0FFFFFFFFC00
07FFFFFFF000
03FFFFFFE000
00FFFFFF8000
003FFFFE0000
0001FFC00000
ENDCHAR
STARTCHAR Uacute
ENCODING 218
SWIDTH 889 0
DWIDTH 47 0
BBX 41 50 3 -1
BITMAP
000000080000
000000780000
000003F80000
00001FF80000
0001FFF80000
0001FF800000
0001F0000000
000100000000
000000000000
000000000000
FE0000001F80
FE0000001F80
FE0000001F80
FE0000001F80
FE0000001F80
FE0000001F80
FE0000001F80
FE0000001F80
FE0000001F80
FE0000001F80
FE0000001F80
FE0000001F80
FE0000001F80
FE0000001F80
FE0000001F80
FE0000001F80
FE0000001F80
FE0000001F80
FE0000001F80
FE0000001F80
FE0000001F80
FE0000001F80
FE0000001F80
FE0000001F80
FE0000001F80
FE0000003F80
FE0000003F80
FF0000003F80
FF0000007F80
7F8000007F00
7FC00000FF00
3FE00003FF00
3FFE001FFE00
1FFFFFFFFC00
0FFFFFFFFC00
07FFFFFFF000
03FFFFFFE000
00FFFFFF8000
003FFFFE0000
0001FFC00000
ENDCHAR
STARTCHAR Ucircumflex
ENCODING 219
SWIDTH 889 0
DWIDTH 47 0
BBX 41 50 3 -1
BITMAP
00003E000000
00007F000000
0000F7800000
0000E3800000
0001E3C00000
0003C1E00000
000780F00000
000000000000
000000000000
000000000000
FE0000001F80
FE0000001F80
FE0000001F80
FE0000001F80
FE0000001F80
FE0000001F80
FE0000001F80
FE0000001F80
FE0000001F80
FE0000001F80
FE0000001F80
FE0000001F80
FE0000001F80
FE0000001F80
FE0000001F80
FE0000001F80
FE0000001F80
FE0000001F80
FE0000001F80
FE0000001F80
FE0000001F80
FE0000001F80
FE0000001F80
FE0000001F80
FE0000001F80
FE0000003F80
FE0000003F80
FF0000003F80
FF0000007F80
7F8000007F00
7FC00000FF00
3FE00003FF00
3FFE001FFE00
1FFFFFFFFC00
0FFFFFFFFC00
07FFFFFFF000
03FFFFFFE000
00FFFFFF8000
003FFFFE0000
0001FFC00000
ENDCHAR
STARTCHAR Udieresis
ENCODING 220
SWIDTH 889 0
DWIDTH 47 0
BBX 41 49 3 -1
BITMAP
000380E00000
0007C1F00000
0007C1F00000
0007C1F00000
000380E00000
000000000000
000000000000
000000000000
000000000000
FE0000001F80
FE0000001F80
FE0000001F80
FE0000001F80
FE0000001F80
FE0000001F80
FE0000001F80
FE0000001F80
FE0000001F80
FE0000001F80
FE0000001F80
FE0000001F80
FE0000001F80
FE0000001F80
FE0000001F80
FE0000001F80
FE0000001F80
FE0000001F80
FE0000001F80
FE0000001F80
FE0000001F80
FE0000001F80
FE0000001F80
FE0000001F80
FE0000001F80
FE0000003F80
FE0000003F80
FF0000003F80
FF0000007F80
7F8000007F00
7FC00000FF00
3FE00003FF00
3FFE001FFE00
1FFFFFFFFC00
0FFFFFFFFC00
07FFFFFFF000
03FFFFFFE000
00FFFFFF8000
003FFFFE0000
0001FFC00000
ENDCHAR
STARTCHAR Yacute
ENCODING 221
SWIDTH 926 0
DWIDTH 49 0
BBX 47 49 1 0
BITMAP
000000010000
000000070000
0000007F0000
000003FF0000
00001FFF0000
00001FF00000
00001F000000
000020000000
000000000000
000000000000
FF80000003FE
7FC0000003FC
3FE0000007F8
1FF000000FF0
1FF800001FF0
0FF800003FE0
07FC00007FC0
03FE0000FF80
01FF0000FF00
00FF8001FE00
007FC003FE00
007FC007FC00
003FE00FF800
001FF01FF000
000FF81FE000
0007FC3FC000
0003FE7F8000
0003FEFF8000
0001FFFF0000
0000FFFE0000
00007FFC0000
00003FF80000
00001FF00000
00000FE00000
00000FE00000
00000FE00000
00000FE00000
00000FE00000
00000FE00000
00000FE00000
00000FE00000
00000FE00000
00000FE00000
00000FE00000
00000FE00000
00000FE00000
00000FE00000
00000FE00000
00000FE00000
ENDCHAR
STARTCHAR Thorn
ENCODING 222
SWIDTH 843 0
DWIDTH 45 0
BBX 40 39 3 0
BITMAP
FE00000000
FE00000000
FE00000000
FE00000000
FE00000000
FFFFFFF800
FFFFFFFF80
FFFFFFFFC0
FFFFFFFFF0
FFFFFFFFF8
FFFFFFFFFC
FFFFFFFFFC
FE000007FE
FE000001FE
FE000000FE
FE0000007F
FE0000007F
FE0000007F
FE0000007F
FE0000007F
FE0000007F
FE0000007F
FE0000007F
FE0000007F
FE000000FE
FE000001FE
FE000007FE
FE0FFFFFFC
FE0FFFFFFC
FE0FFFFFF8
FE0FFFFFF0
FE0FFFFFE0
FE0FFFFF80
FE0FFFFC00
FE00000000
FE00000000
FE00000000
FE00000000
FE00000000
ENDCHAR
STARTCHAR germandbls
ENCODING 223
SWIDTH 1760 0
DWIDTH 93 0
BBX 88 39 3 0
BITMAP
00FFFFFFFE0003FFFFFFFC
07FFFFFFFE000FFFFFFFFC
1FFFFFFFFE003FFFFFFFFC
3FFFFFFFFE007FFFFFFFFC
3FFFFFFFFE00FFFFFFFFFC
7FFFFFFFFE00FFFFFFFFFC
7FFFFFFFFE01FFFFFFFFFC
FF8000000001FE00000000
FF0000000001FC00000000
FE0000000003FC00000000
FE0000000003F800000000
FE0000000003F800000000
FE0000000003F800000000
FE0000000001FC00000000
FF0000000001FC00000000
7F8000000001FF00000000
7FFFFFFFC000FFFFFFFF00
3FFFFFFFF000FFFFFFFFE0
1FFFFFFFFC007FFFFFFFF0
0FFFFFFFFE003FFFFFFFF8
07FFFFFFFF000FFFFFFFFC
00FFFFFFFF0003FFFFFFFE
00000000FF0000000001FE
000000003F8000000000FE
000000003F80000000007F
000000001F80000000007F
000000001F80000000007F
000000001F80000000007F
000000001F80000000007F
000000003F80000000007F
000000003F8000000000FF
00000000FF8000000001FE
FFFFFFFFFF01FFFFFFFFFE
FFFFFFFFFF01FFFFFFFFFC
FFFFFFFFFE01FFFFFFFFFC
FFFFFFFFFC01FFFFFFFFF8
FFFFFFFFF801FFFFFFFFF0
FFFFFFFFF001FFFFFFFFC0
FFFFFFFF8001FFFFFFFF00
ENDCHAR
STARTCHAR agrave
ENCODING 224
SWIDTH 989 0
DWIDTH 52 0
BBX 51 49 1 0
BITMAP
00008000000000
00007000000000
00007F00000000
00007FE0000000
00007FFC000000
000007FC000000
0000007C000000
00000002000000
00000000000000
00000040000000
000001F0000000
000003F0000000
000007F8000000
000007FC000000
00000FFC000000
00000FFE000000
00001FFE000000
00003FFF000000
00003FFF000000
00007FFF800000
00007F3FC00000
0000FE1FC00000
0001FE1FE00000
0001FC0FE00000
0003FC0FF00000
0003F807F80000
0007F803F80000
000FF003FC0000
000FE001FC0000
001FE001FE0000
001FC000FF0000
003FC0007F0000
003F80007F8000
007F07FFFF8000
00FF07FFFFC000
00FE0FFFFFE000
01FE0FFFFFE000
01FC1FFFFFF000
03FC1FFFFFF000
07F8200007F800
07F0000003FC00
0FF0000003FC00
0FE0000001FE00
1FE0000001FE00
3FC0000000FF00
3F80000000FF80
7F800000007F80
7F000000003FC0
FF000000003FE0
ENDCHAR
STARTCHAR aacute
ENCODING 225
SWIDTH 989 0
DWIDTH 52 0
BBX 51 49 1 0
BITMAP
00000000400000
00000003C00000
0000001FC00000
000001FFC00000
00000FFFC00000
00000FFC000000
00000F80000000
00000800000000
00000000000000
00000040000000
000001F0000000
000003F0000000
000007F8000000
000007FC000000
00000FFC000000
00000FFE000000
00001FFE000000
00003FFF000000
00003FFF000000
00007FFF800000
00007F3FC00000
0000FE1FC00000
0001FE1FE00000
0001FC0FE00000
0003FC0FF00000
0003F807F80000
0007F803F80000
000FF003FC0000
000FE001FC0000
001FE001FE0000
001FC000FF0000
003FC0007F0000
003F80007F8000
007F07FFFF8000
00FF07FFFFC000
00FE0FFFFFE000
01FE0FFFFFE000
01FC1FFFFFF000
03FC1FFFFFF000
07F8200007F800
07F0000003FC00
0FF0000003FC00
0FE0000001FE00
1FE0000001FE00
3FC0000000FF00
3F80000000FF80
7F800000007F80
7F000000003FC0
FF000000003FE0
ENDCHAR
STARTCHAR acircumflex
ENCODING 226
SWIDTH 989 0
DWIDTH 52 0
BBX 51 49 1 0
BITMAP
000003F0000000
000003F8000000
000007B8000000
00000F3C000000
00000E1E000000
00001E0E000000
00003C0F000000
00000000000000
00000000000000
00000040000000
000001F0000000
000003F0000000
000007F8000000
000007FC000000
00000FFC000000
00000FFE000000
00001FFE000000
00003FFF000000
00003FFF000000
00007FFF800000
00007F3FC00000
0000FE1FC00000
0001FE1FE00000
0001FC0FE00000
0003FC0FF00000
0003F807F80000
0007F803F80000
000FF003FC0000
000FE001FC0000
001FE001FE0000
001FC000FF0000
003FC0007F0000
003F80007F8000
007F07FFFF8000
00FF07FFFFC000
00FE0FFFFFE000
01FE0FFFFFE000
01FC1FFFFFF000
03FC1FFFFFF000
07F8200007F800
07F0000003FC00
0FF0000003FC00
0FE0000001FE00
1FE0000001FE00
3FC0000000FF00
3F80000000FF80
7F800000007F80
7F000000003FC0
FF000000003FE0
ENDCHAR
STARTCHAR atilde
ENCODING 227
SWIDTH 989 0
DWIDTH 52 0
BBX 51 48 1 0
BITMAP
00000F01000000
00003FC1000000
00003FFF000000
000030FF000000
0000203E000000
00000000000000
00000000000000
00000000000000
00000040000000
000001F0000000
000003F0000000
000007F8000000
000007FC000000
00000FFC000000
00000FFE000000
00001FFE000000
00003FFF000000
00003FFF000000
00007FFF800000
00007F3FC00000
0000FE1FC00000
0001FE1FE00000
0001FC0FE00000
0003FC0FF00000
0003F807F80000
0007F803F80000
000FF003FC0000
000FE001FC0000
001FE001FE0000
001FC000FF0000
003FC0007F0000
003F80007F8000
007F07FFFF8000
00FF07FFFFC000
00FE0FFFFFE000
01FE0FFFFFE000
01FC1FFFFFF000
03FC1FFFFFF000
07F8200007F800
07F0000003FC00
0FF0000003FC00
0FE0000001FE00
1FE0000001FE00
3FC0000000FF00
3F80000000FF80
7F800000007F80
7F000000003FC0
FF000000003FE0
ENDCHAR
STARTCHAR adieresis
ENCODING 228
SWIDTH 989 0
DWIDTH 52 0
BBX 51 48 1 0
BITMAP
00001C0F000000
00003E0F800000
00003E1F800000
00003E0F800000
00001C0F000000
00000000000000
00000000000000
00000000000000
00000040000000
000001F0000000
000003F0000000
000007F8000000
000007FC000000
00000FFC000000
00000FFE000000
00001FFE000000
00003FFF000000
00003FFF000000
00007FFF800000
00007F3FC00000
0000FE1FC00000
0001FE1FE00000
0001FC0FE00000
0003FC0FF00000
0003F807F80000
0007F803F80000
000FF003FC0000
000FE001FC0000
001FE001FE0000
001FC000FF0000
003FC0007F0000
003F80007F8000
007F07FFFF8000
00FF07FFFFC000
00FE0FFFFFE000
01FE0FFFFFE000
01FC1FFFFFF000
03FC1FFFFFF000
07F8200007F800
07F0000003FC00
0FF0000003FC00
0FE0000001FE00
1FE0000001FE00
3FC0000000FF00
3F80000000FF80
7F800000007F80
7F000000003FC0
FF000000003FE0
ENDCHAR
STARTCHAR aring
ENCODING 229
SWIDTH 989 0
DWIDTH 52 0
BBX 51 52 1 0
BITMAP
000007F8000000
00000FFC000000
00001C0E000000
00001807000000
00003803000000
00003003000000
00003803000000
00001807000000
00001C0E000000
00000FFC000000
000007F8000000
00000000000000
00000040000000
000001F0000000
000003F0000000
000007F8000000
000007FC000000
00000FFC000000
00000FFE000000
00001FFE000000
00003FFF000000
00003FFF000000
00007FFF800000
00007F3FC00000
0000FE1FC00000
0001FE1FE00000
0001FC0FE00000
0003FC0FF00000
0003F807F80000
0007F803F80000
000FF003FC0000
000FE001FC0000
001FE001FE0000
001FC000FF0000
003FC0007F0000
003F80007F8000
007F07FFFF8000
00FF07FFFFC000
00FE0FFFFFE000
01FE0FFFFFE000
01FC1FFFFFF000
03FC1FFFFFF000
07F8200007F800
07F0000003FC00
0FF0000003FC00
0FE0000001FE00
1FE0000001FE00
3FC0000000FF00
3F80000000FF80
7F800000007F80
7F000000003FC0
FF000000003FE0
ENDCHAR
STARTCHAR ae
ENCODING 230
SWIDTH 1345 0
DWIDTH 71 0
BBX 68 39 1 0
BITMAP
000003FFFFFFFFFFF0
000007FFFFFFFFFFF0
000007FFFFFFFFFFF0
00000FFFFFFFFFFFF0
00000FFFFFFFFFFFF0
00001FFFFFFFFFFFF0
00003FFFFFFFFFFFF0
00003F800FC0000000
00007F800FC0000000
00007F000FC0000000
0000FE000FC0000000
0000FE000FC0000000
0001FC000FC0000000
0003FC000FC0000000
0003F8000FC0000000
0007F8000FC0000000
0007F0000FC1FFFFC0
000FE0000FC1FFFFC0
000FE0000FC1FFFFC0
001FC0000FC1FFFFC0
003FC0000FC1FFFFC0
003F80000FC1FFFFC0
007F80000FC0000000
007F00000FC0000000
00FF07FFFFC0000000
01FE07FFFFC0000000
01FC0FFFFFC0000000
03FC1FFFFFC0000000
03F81FFFFFC0000000
07F83FFFFFC0000000
07F000000FC0000000
0FF000000FC0000000
1FE000000FFFFFFFF0
1FC000000FFFFFFFF0
3FC000000FFFFFFFF0
3F8000000FFFFFFFF0
7F8000000FFFFFFFF0
7F0000000FFFFFFFF0
FF0000000FFFFFFFF0
ENDCHAR
STARTCHAR ccedilla
ENCODING 231
SWIDTH 829 0
DWIDTH 44 0
BBX 40 50 2 -11
BITMAP
0003FFFFFF
001FFFFFFF
007FFFFFFF
00FFFFFFFF
03FFFFFFFF
07FFFFFFFF
0FFFFFFFFF
0FFE000000
1FF8000000
3FE0000000
3FC0000000
3F80000000
7F80000000
7F00000000
7F00000000
FE00000000
FE00000000
FE00000000
FE00000000
FE00000000
FE00000000
FE00000000
FE00000000
7F00000000
7F00000000
7F00000000
7F80000000
3F80000000
3FC0000000
1FE0000000
1FF8000000
0FFE000000
07FFFFFFFF
03FFFFFFFF
01FFFFFFFF
00FFFFFFFF
003FFFFFFF
000FFFFFFF
0001FFFFFF
0000000000
0000000000
0000000000
00007F8000
00003F0000
00001E0000
00001E0000
00001E0000
00000C0000
00000C0000
0000040000
ENDCHAR
STARTCHAR egrave
ENCODING 232
SWIDTH 759 0
DWIDTH 40 0
BBX 35 49 3 0
BITMAP
0080000000
0070000000
007F000000
007FE00000
007FFC0000
0007FC0000
00007C0000
0000020000
0000000000
0000000000
FFFFFFFFE0
FFFFFFFFE0
FFFFFFFFE0
FFFFFFFFE0
FFFFFFFFE0
FFFFFFFFE0
FFFFFFFFE0
FE00000000
FE00000000
FE00000000
FE00000000
FE00000000
FE00000000
FE00000000
FE00000000
FE00000000
FE0FFFFF80
FE0FFFFF80
FE0FFFFF80
FE0FFFFF80
FE0FFFFF80
FE0FFFFF80
FE00000000
FE00000000
FE00000000
FE00000000
FE00000000
FE00000000
FE00000000
FE00000000
FE00000000
FE00000000
FFFFFFFFE0
FFFFFFFFE0
FFFFFFFFE0
FFFFFFFFE0
FFFFFFFFE0
FFFFFFFFE0
FFFFFFFFE0
ENDCHAR
STARTCHAR eacute
ENCODING 233
SWIDTH 759 0
DWIDTH 40 0
BBX 35 49 3 0
BITMAP
0000004000
0000038000
00001F8000
0001FF8000
000FFF8000
000FFC0000
000F800000
0008000000
0000000000
0000000000
FFFFFFFFE0
FFFFFFFFE0
FFFFFFFFE0
FFFFFFFFE0
FFFFFFFFE0
FFFFFFFFE0
FFFFFFFFE0
FE00000000
FE00000000
FE00000000
FE00000000
FE00000000
FE00000000
FE00000000
FE00000000
FE00000000
FE0FFFFF80
FE0FFFFF80
FE0FFFFF80
FE0FFFFF80
FE0FFFFF80
FE0FFFFF80
FE00000000
FE00000000
FE00000000
FE00000000
FE00000000
FE00000000
FE00000000
FE00000000
FE00000000
FE00000000
FFFFFFFFE0
FFFFFFFFE0
FFFFFFFFE0
FFFFFFFFE0
FFFFFFFFE0
FFFFFFFFE0
FFFFFFFFE0
ENDCHAR
STARTCHAR ecircumflex
ENCODING 234
SWIDTH 759 0
DWIDTH 40 0
BBX 35 49 3 0
BITMAP
0003F00000
0003F80000
0007B80000
000F3C0000
000E1E0000
001E0E0000
003C0F0000
0000000000
0000000000
0000000000
FFFFFFFFE0
FFFFFFFFE0
FFFFFFFFE0
FFFFFFFFE0
FFFFFFFFE0
FFFFFFFFE0
FFFFFFFFE0
FE00000000
FE00000000
FE00000000
FE00000000
FE00000000
FE00000000
FE00000000
FE00000000
FE00000000
FE0FFFFF80
FE0FFFFF80
FE0FFFFF80
FE0FFFFF80
FE0FFFFF80
FE0FFFFF80
FE00000000
FE00000000
FE00000000
FE00000000
FE00000000
FE00000000
FE00000000
FE00000000
FE00000000
FE00000000
FFFFFFFFE0
FFFFFFFFE0
FFFFFFFFE0
FFFFFFFFE0
FFFFFFFFE0
FFFFFFFFE0
FFFFFFFFE0
ENDCHAR
STARTCHAR edieresis
ENCODING 235
SWIDTH 759 0
DWIDTH 40 0
BBX 35 48 3 0
BITMAP
001C0F0000
003E1F8000
003E1F8000
003E1F8000
003C0F0000
0000000000
0000000000
0000000000
0000000000
FFFFFFFFE0
FFFFFFFFE0
FFFFFFFFE0
FFFFFFFFE0
FFFFFFFFE0
FFFFFFFFE0
FFFFFFFFE0
FE00000000
FE00000000
FE00000000
FE00000000
FE00000000
FE00000000
FE00000000
FE00000000
FE00000000
FE0FFFFF80
FE0FFFFF80
FE0FFFFF80
FE0FFFFF80
FE0FFFFF80
FE0FFFFF80
FE00000000
FE00000000
FE00000000
FE00000000
FE00000000
FE00000000
FE00000000
FE00000000
FE00000000
FE00000000
FFFFFFFFE0
FFFFFFFFE0
FFFFFFFFE0
FFFFFFFFE0
FFFFFFFFE0
FFFFFFFFE0
FFFFFFFFE0
ENDCHAR
STARTCHAR igrave
ENCODING 236
SWIDTH 267 0
DWIDTH 14 0
BBX 13 49 -1 0
BITMAP
8000
E000
FE00
FFC0
FFF8
0FF8
00F8
0008
0000
0000
07E0
07E0
07E0
07E0
07E0
07E0
07E0
07E0
07E0
07E0
07E0
07E0
07E0
07E0
07E0
07E0
07E0
07E0
07E0
07E0
07E0
07E0
07E0
07E0
07E0
07E0
07E0
07E0
07E0
07E0
07E0
07E0
07E0
07E0
07E0
07E0
07E0
07E0
07E0
ENDCHAR
STARTCHAR iacute
ENCODING 237
SWIDTH 267 0
DWIDTH 14 0
BBX 14 49 2 0
BITMAP
0004
003C
01FC
1FFC
FFFC
FFC0
F800
8000
0000
0000
3F00
3F00
3F00
3F00
3F00
3F00
3F00
3F00
3F00
3F00
3F00
3F00
3F00
3F00
3F00
3F00
3F00
3F00
3F00
3F00
3F00
3F00
3F00
3F00
3F00
3F00
3F00
3F00
3F00
3F00
3F00
3F00
3F00
3F00
3F00
3F00
3F00
3F00
3F00
ENDCHAR
STARTCHAR icircumflex
ENCODING 238
SWIDTH 267 0
DWIDTH 14 0
BBX 14 49 0 0
BITMAP
0FC0
0FE0
1EE0
3CF0
3878
7838
F03C
0000
0000
0000
0FC0
0FC0
0FC0
0FC0
0FC0
0FC0
0FC0
0FC0
0FC0
0FC0
0FC0
0FC0
0FC0
0FC0
0FC0
0FC0
0FC0
0FC0
0FC0
0FC0
0FC0
0FC0
0FC0
0FC0
0FC0
0FC0
0FC0
0FC0
0FC0
0FC0
0FC0
0FC0
0FC0
0FC0
0FC0
0FC0
0FC0
0FC0
0FC0
ENDCHAR
STARTCHAR idieresis
ENCODING 239
SWIDTH 267 0
DWIDTH 14 0
BBX 15 48 0 0
BITMAP
703C
F87E
F87E
F83E
F03C
0000
0000
0000
0000
0FC0
0FC0
0FC0
0FC0
0FC0
0FC0
0FC0
0FC0
0FC0
0FC0
0FC0
0FC0
0FC0
0FC0
0FC0
0FC0
0FC0
0FC0
0FC0
0FC0
0FC0
0FC0
0FC0
0FC0
0FC0
0FC0
0FC0
0FC0
0FC0
0FC0
0FC0
0FC0
0FC0
0FC0
0FC0
0FC0
0FC0
0FC0
0FC0
ENDCHAR
STARTCHAR eth
ENCODING 240
SWIDTH 877 0
DWIDTH 46 0
BBX 43 39 1 0
BITMAP
3FFFFFF80000
3FFFFFFF0000
3FFFFFFFC000
3FFFFFFFF000
3FFFFFFFF800
3FFFFFFFFC00
3FFFFFFFFE00
3F800007FF00
3F800001FF80
3F800000FF80
3F8000007FC0
3F8000003FC0
3F8000001FC0
3F8000001FE0
3F8000000FE0
3F8000000FE0
FFFFFF000FE0
FFFFFF000FE0
FFFFFF0007E0
FFFFFF0007E0
FFFFFF0007E0
FFFFFF000FE0
3F8000000FE0
3F8000000FE0
3F8000000FE0
3F8000001FC0
3F8000001FC0
3F8000003FC0
3F8000007F80
3F800000FF80
3F800001FF00
3F800007FE00
3FFFFFFFFE00
3FFFFFFFFC00
3FFFFFFFF800
3FFFFFFFF000
3FFFFFFFC000
3FFFFFFF0000
3FFFFFF80000
ENDCHAR
STARTCHAR ntilde
ENCODING 241
SWIDTH 873 0
DWIDTH 46 0
BBX 40 48 3 0
BITMAP
0001E02000
0007F86000
0007FFE000
00061FE000
000407C000
0000000000
0000000000
0000000000
0000000000
380000003F
7E0000003F
FF0000003F
FF8000003F
FFC000003F
FFE000003F
FFF000003F
FFF800003F
FFFC00003F
FFFE00003F
FFFF00003F
FFFF80003F
FEFFC0003F
FE7FE0003F
FE3FF0003F
FE1FF8003F
FE0FFC003F
FE07FE003F
FE03FF003F
FE01FF803F
FE00FFC03F
FE007FE03F
FE003FF03F
FE001FF83F
FE000FFC3F
FE0007FE3F
FE0003FF3F
FE0001FFBF
FE0000FFFF
FE00007FFF
FE00003FFF
FE00001FFF
FE00000FFF
FE000003FF
FE000001FF
FE000000FF
FE0000007F
FE0000003E
FE0000001E
ENDCHAR
STARTCHAR ograve
ENCODING 242
SWIDTH 968 0
DWIDTH 51 0
BBX 47 49 2 0
BITMAP
000100000000
0001E0000000
0001FC000000
0001FFC00000
0001FFF80000
00001FF80000
000000F80000
000000080000
000000000000
000000000000
0003FFFF8000
001FFFFFF000
007FFFFFFC00
00FFFFFFFF00
03FFFFFFFF80
07FFFFFFFFC0
0FFFFFFFFFE0
0FFE0000FFF0
1FF800001FF0
3FE000000FF8
3FC0000007F8
3F80000003FC
7F80000001FC
7F00000001FC
7F00000000FE
FE00000000FE
FE00000000FE
FE00000000FE
FE00000000FE
FE00000000FE
FE00000000FE
FE00000000FE
FE00000000FE
7F00000000FE
7F00000000FE
7F00000001FC
7F80000001FC
3F80000003FC
3FC0000007F8
1FE000000FF8
1FF800001FF0
0FFE0000FFE0
07FFFFFFFFE0
03FFFFFFFFC0
01FFFFFFFF80
00FFFFFFFE00
003FFFFFFC00
000FFFFFF000
0001FFFF8000
ENDCHAR
STARTCHAR oacute
ENCODING 243
SWIDTH 968 0
DWIDTH 51 0
BBX 47 49 2 0
BITMAP
000000010000
0000000F0000
0000007F0000
000003FF0000
00001FFF0000
00003FF00000
00003F000000
000020000000
000000000000
000000000000
0003FFFF8000
001FFFFFF000
007FFFFFFC00
00FFFFFFFF00
03FFFFFFFF80
07FFFFFFFFC0
0FFFFFFFFFE0
0FFE0000FFF0
1FF800001FF0
3FE000000FF8
3FC0000007F8
3F80000003FC
7F80000001FC
7F00000001FC
7F00000000FE
FE00000000FE
FE00000000FE
FE00000000FE
FE00000000FE
FE00000000FE
FE00000000FE
FE00000000FE
FE00000000FE
7F00000000FE
7F00000000FE
7F00000001FC
7F80000001FC
3F80000003FC
3FC0000007F8
1FE000000FF8
1FF800001FF0
0FFE0000FFE0
07FFFFFFFFE0
03FFFFFFFFC0
01FFFFFFFF80
00FFFFFFFE00
003FFFFFFC00
000FFFFFF000
0001FFFF8000
ENDCHAR
STARTCHAR ocircumflex
ENCODING 244
SWIDTH 968 0
DWIDTH 51 0
BBX 47 49 2 0
BITMAP
000007C00000
00000FE00000
00001EF00000
00001C700000
00003C780000
0000783C0000
0000F01E0000
000000000000
000000000000
000000000000
0003FFFF8000
001FFFFFF000
007FFFFFFC00
00FFFFFFFF00
03FFFFFFFF80
07FFFFFFFFC0
0FFFFFFFFFE0
0FFE0000FFF0
1FF800001FF0
3FE000000FF8
3FC0000007F8
3F80000003FC
7F80000001FC
7F00000001FC
7F00000000FE
FE00000000FE
FE00000000FE
FE00000000FE
FE00000000FE
FE00000000FE
FE00000000FE
FE00000000FE
FE00000000FE
7F00000000FE
7F00000000FE
7F00000001FC
7F80000001FC
3F80000003FC
3FC0000007F8
1FE000000FF8
1FF800001FF0
0FFE0000FFE0
07FFFFFFFFE0
03FFFFFFFFC0
01FFFFFFFF80
00FFFFFFFE00
003FFFFFFC00
000FFFFFF000
0001FFFF8000
ENDCHAR
STARTCHAR otilde
ENCODING 245
SWIDTH 968 0
DWIDTH 51 0
BBX 47 48 2 0
BITMAP
00003C020000
00007F040000
00007FFC0000
000041FC0000
000080780000
000000000000
000000000000
000000000000
000000000000
0003FFFF8000
001FFFFFF000
007FFFFFFC00
00FFFFFFFF00
03FFFFFFFF80
07FFFFFFFFC0
0FFFFFFFFFE0
0FFE0000FFF0
1FF800001FF0
3FE000000FF8
3FC0000007F8
3F80000003FC
7F80000001FC
7F00000001FC
7F00000000FE
FE00000000FE
FE00000000FE
FE00000000FE
FE00000000FE
FE00000000FE
FE00000000FE
FE00000000FE
FE00000000FE
7F00000000FE
7F00000000FE
7F00000001FC
7F80000001FC
3F80000003FC
3FC0000007F8
1FE000000FF8
1FF800001FF0
0FFE0000FFE0
07FFFFFFFFE0
03FFFFFFFFC0
01FFFFFFFF80
00FFFFFFFE00
003FFFFFFC00
000FFFFFF000
0001FFFF8000
ENDCHAR
STARTCHAR odieresis
ENCODING 246
SWIDTH 968 0
DWIDTH 51 0
BBX 47 48 2 0
BITMAP
0000701C0000
0000F83E0000
0000F83E0000
0000F83E0000
0000701C0000
000000000000
000000000000
000000000000
000000000000
0003FFFF8000
001FFFFFF000
007FFFFFFC00
00FFFFFFFF00
03FFFFFFFF80
07FFFFFFFFC0
0FFFFFFFFFE0
0FFE0000FFF0
1FF800001FF0
3FE000000FF8
3FC0000007F8
3F80000003FC
7F80000001FC
7F00000001FC
7F00000000FE
FE00000000FE
FE00000000FE
FE00000000FE
FE00000000FE
FE00000000FE
FE00000000FE
FE00000000FE
FE00000000FE
7F00000000FE
7F00000000FE
7F00000001FC
7F80000001FC
3F80000003FC
3FC0000007F8
1FE000000FF8
1FF800001FF0
0FFE0000FFE0
07FFFFFFFFE0
03FFFFFFFFC0
01FFFFFFFF80
00FFFFFFFE00
003FFFFFFC00
000FFFFFF000
0001FFFF8000
ENDCHAR
STARTCHAR divide
ENCODING 247
SWIDTH 690 0
DWIDTH 37 0
BBX 30 35 3 2
BITMAP
00038000
000FC000
000FE000
000FE000
000FE000
000FC000
00078000
00000000
00000000
00000000
00000000
00000000
00000000
00000000
FFFFFFFC
FFFFFFFC
FFFFFFFC
FFFFFFFC
FFFFFFFC
00000000
00000000
00000000
00000000
00000000
00000000
00000000
00000000
00000000
00038000
000FC000
000FE000
000FE000
000FE000
000FC000
00078000
ENDCHAR
STARTCHAR oslash
ENCODING 248
SWIDTH 968 0
DWIDTH 51 0
BBX 47 45 2 -3
BITMAP
000000000080
0000000000C0
0000000001E0
0003FFFF83C0
001FFFFFF780
007FFFFFFF00
00FFFFFFFF00
03FFFFFFFF80
07FFFFFFFFC0
0FFFFFFFFFE0
0FFE0000FFF0
1FF80000FFF0
3FE00001CFF8
3FC0000387F8
3F80000783FC
7F80000F01FC
7F00001E01FC
7F00003C00FE
FE00003800FE
FE00007000FE
FE0000E000FE
FE0001E000FE
FE0003C000FE
FE00078000FE
FE00070000FE
FE000E0000FE
7E001C0000FE
7F003C0000FE
7F00780001FC
7F80F00001FC
3F80E00003FC
3FC1C00007F8
1FE380000FF8
1FFF80001FF0
0FFF0000FFE0
07FFFFFFFFE0
03FFFFFFFFC0
01FFFFFFFF80
00FFFFFFFE00
00FFFFFFFC00
01FFFFFFF000
03C3FFFF8000
078000000000
030000000000
010000000000
ENDCHAR
STARTCHAR ugrave
ENCODING 249
SWIDTH 889 0
DWIDTH 47 0
BBX 41 50 3 -1
BITMAP
000800000000
000F00000000
000FE0000000
000FFC000000
000FFFC00000
0000FFC00000
000007C00000
000000400000
000000000000
000000000000
FE0000001F80
FE0000001F80
FE0000001F80
FE0000001F80
FE0000001F80
FE0000001F80
FE0000001F80
FE0000001F80
FE0000001F80
FE0000001F80
FE0000001F80
FE0000001F80
FE0000001F80
FE0000001F80
FE0000001F80
FE0000001F80
FE0000001F80
FE0000001F80
FE0000001F80
FE0000001F80
FE0000001F80
FE0000001F80
FE0000001F80
FE0000001F80
FE0000001F80
FE0000003F80
FE0000003F80
FF0000003F80
FF0000007F80
7F8000007F00
7FC00000FF00
3FE00003FF00
3FFE001FFE00
1FFFFFFFFC00
0FFFFFFFFC00
07FFFFFFF000
03FFFFFFE000
00FFFFFF8000
003FFFFE0000
0001FFC00000
ENDCHAR
STARTCHAR uacute
ENCODING 250
SWIDTH 889 0
DWIDTH 47 0
BBX 41 50 3 -1
BITMAP
000000080000
000000780000
000003F80000
00001FF80000
0001FFF80000
0001FF800000
0001F0000000
000100000000
000000000000
000000000000
FE0000001F80
FE0000001F80
FE0000001F80
FE0000001F80
FE0000001F80
FE0000001F80
FE0000001F80
FE0000001F80
FE0000001F80
FE0000001F80
FE0000001F80
FE0000001F80
FE0000001F80
FE0000001F80
FE0000001F80
FE0000001F80
FE0000001F80
FE0000001F80
FE0000001F80
FE0000001F80
FE0000001F80
FE0000001F80
FE0000001F80
FE0000001F80
FE0000001F80
FE0000003F80
FE0000003F80
FF0000003F80
FF0000007F80
7F8000007F00
7FC00000FF00
3FE00003FF00
3FFE001FFE00
1FFFFFFFFC00
0FFFFFFFFC00
07FFFFFFF000
03FFFFFFE000
00FFFFFF8000
003FFFFE0000
0001FFC00000
ENDCHAR
STARTCHAR ucircumflex
ENCODING 251
SWIDTH 889 0
DWIDTH 47 0
BBX 41 50 3 -1
BITMAP
00003E000000
00007F000000
0000F7800000
0000E3800000
0001E3C00000
0003C1E00000
000780F00000
000000000000
000000000000
000000000000
FE0000001F80
FE0000001F80
FE0000001F80
FE0000001F80
FE0000001F80
FE0000001F80
FE0000001F80
FE0000001F80
FE0000001F80
FE0000001F80
FE0000001F80
FE0000001F80
FE0000001F80
FE0000001F80
FE0000001F80
FE0000001F80
FE0000001F80
FE0000001F80
FE0000001F80
FE0000001F80
FE0000001F80
FE0000001F80
FE0000001F80
FE0000001F80
FE0000001F80
FE0000003F80
FE0000003F80
FF0000003F80
FF0000007F80
7F8000007F00
7FC00000FF00
3FE00003FF00
3FFE001FFE00
1FFFFFFFFC00
0FFFFFFFFC00
07FFFFFFF000
03FFFFFFE000
00FFFFFF8000
003FFFFE0000
0001FFC00000
ENDCHAR
STARTCHAR udieresis
ENCODING 252
SWIDTH 889 0
DWIDTH 47 0
BBX 41 49 3 -1
BITMAP
000380E00000
0007C1F00000
0007C1F00000
0007C1F00000
000380E00000
000000000000
000000000000
000000000000
000000000000
FE0000001F80
FE0000001F80
FE0000001F80
FE0000001F80
FE0000001F80
FE0000001F80
FE0000001F80
FE0000001F80
FE0000001F80
FE0000001F80
FE0000001F80
FE0000001F80
FE0000001F80
FE0000001F80
FE0000001F80
FE0000001F80
FE0000001F80
FE0000001F80
FE0000001F80
FE0000001F80
FE0000001F80
FE0000001F80
FE0000001F80
FE0000001F80
FE0000001F80
FE0000003F80
FE0000003F80
FF0000003F80
FF0000007F80
7F8000007F00
7FC00000FF00
3FE00003FF00
3FFE001FFE00
1FFFFFFFFC00
0FFFFFFFFC00
07FFFFFFF000
03FFFFFFE000
00FFFFFF8000
003FFFFE0000
0001FFC00000
ENDCHAR
STARTCHAR yacute
ENCODING 253
SWIDTH 926 0
DWIDTH 49 0
BBX 47 49 1 0
BITMAP
000000010000
000000070000
0000007F0000
000003FF0000
00001FFF0000
00001FF00000
00001F000000
000020000000
000000000000
000000000000
FF80000003FE
7FC0000003FC
3FE0000007F8
1FF000000FF0
1FF800001FF0
0FF800003FE0
07FC00007FC0
03FE0000FF80
01FF0000FF00
00FF8001FE00
007FC003FE00
007FC007FC00
003FE00FF800
001FF01FF000
000FF81FE000
0007FC3FC000
0003FE7F8000
0003FEFF8000
0001FFFF0000
0000FFFE0000
00007FFC0000
00003FF80000
00001FF00000
00000FE00000
00000FE00000
00000FE00000
00000FE00000
00000FE00000
00000FE00000
00000FE00000
00000FE00000
00000FE00000
00000FE00000
00000FE00000
00000FE00000
00000FE00000
00000FE00000
00000FE00000
00000FE00000
ENDCHAR
STARTCHAR thorn
ENCODING 254
SWIDTH 843 0
DWIDTH 45 0
BBX 40 39 3 0
BITMAP
FE00000000
FE00000000
FE00000000
FE00000000
FE00000000
FFFFFFF800
FFFFFFFF80
FFFFFFFFC0
FFFFFFFFF0
FFFFFFFFF8
FFFFFFFFFC
FFFFFFFFFC
FE000007FE
FE000001FE
FE000000FE
FE0000007F
FE0000007F
FE0000007F
FE0000007F
FE0000007F
FE0000007F
FE0000007F
FE0000007F
FE0000007F
FE000000FE
FE000001FE
FE000007FE
FE0FFFFFFC
FE0FFFFFFC
FE0FFFFFF8
FE0FFFFFF0
FE0FFFFFE0
FE0FFFFF80
FE0FFFFC00
FE00000000
FE00000000
FE00000000
FE00000000
FE00000000
ENDCHAR
STARTCHAR ydieresis
ENCODING 255
SWIDTH 926 0
DWIDTH 49 0
BBX 47 48 1 0
BITMAP
0000781C0000
0000F83E0000
0000FC3E0000
0000F83E0000
0000701C0000
000000000000
000000000000
000000000000
000000000000
FF80000003FE
7FC0000003FC
3FE0000007F8
1FF000000FF0
1FF800001FF0
0FF800003FE0
07FC00007FC0
03FE0000FF80
01FF0000FF00
00FF8001FE00
007FC003FE00
007FC007FC00
003FE00FF800
001FF01FF000
000FF81FE000
0007FC3FC000
0003FE7F8000
0003FEFF8000
0001FFFF0000
0000FFFE0000
00007FFC0000
00003FF80000
00001FF00000
00000FE00000
00000FE00000
00000FE00000
00000FE00000
00000FE00000
00000FE00000
00000FE00000
00000FE00000
00000FE00000
00000FE00000
00000FE00000
00000FE00000
00000FE00000
00000FE00000
00000FE00000
00000FE00000
ENDCHAR
STARTCHAR Amacron
ENCODING 256
SWIDTH 989 0
DWIDTH 52 0
BBX 51 47 1 0
BITMAP
00003FFF000000
00003FFF000000
00003FFF000000
00000000000000
00000000000000
00000000000000
00000000000000
00000040000000
000001F0000000
000003F0000000
000007F8000000
000007FC000000
00000FFC000000
00000FFE000000
00001FFE000000
00003FFF000000
00003FFF000000
00007FFF800000
00007F3FC00000
0000FE1FC00000
0001FE1FE00000
0001FC0FE00000
0003FC0FF00000
0003F807F80000
0007F803F80000
000FF003FC0000
000FE001FC0000
001FE001FE0000
001FC000FF0000
003FC0007F0000
003F80007F8000
007F07FFFF8000
00FF07FFFFC000
00FE0FFFFFE000
01FE0FFFFFE000
01FC1FFFFFF000
03FC1FFFFFF000
07F8200007F800
07F0000003FC00
0FF0000003FC00
0FE0000001FE00
1FE0000001FE00
3FC0000000FF00
3F80000000FF80
7F800000007F80
7F000000003FC0
FF000000003FE0
ENDCHAR
STARTCHAR amacron
ENCODING 257
SWIDTH 989 0
DWIDTH 52 0
BBX 51 47 1 0
BITMAP
00003FFF000000
00003FFF000000
00003FFF000000
00000000000000
00000000000000
00000000000000
00000000000000
00000040000000
000001F0000000
000003F0000000
000007F8000000
000007FC000000
00000FFC000000
00000FFE000000
00001FFE000000
00003FFF000000
00003FFF000000
00007FFF800000
00007F3FC00000
0000FE1FC00000
0001FE1FE00000
0001FC0FE00000
0003FC0FF00000
0003F807F80000
0007F803F80000
000FF003FC0000
000FE001FC0000
001FE001FE0000
001FC000FF0000
003FC0007F0000
003F80007F8000
007F07FFFF8000
00FF07FFFFC000
00FE0FFFFFE000
01FE0FFFFFE000
01FC1FFFFFF000
03FC1FFFFFF000
07F8200007F800
07F0000003FC00
0FF0000003FC00
0FE0000001FE00
1FE0000001FE00
3FC0000000FF00
3F80000000FF80
7F800000007F80
7F000000003FC0
FF000000003FE0
ENDCHAR
STARTCHAR Abreve
ENCODING 258
SWIDTH 989 0
DWIDTH 52 0
BBX 51 48 1 0
BITMAP
00003807800000
00003C07000000
00003C0F000000
00001C0F000000
00001E1E000000
00000FFC000000
000007F8000000
00000000000000
00000040000000
000001F0000000
000003F0000000
000007F8000000
000007FC000000
00000FFC000000
00000FFE000000
00001FFE000000
00003FFF000000
00003FFF000000
00007FFF800000
00007F3FC00000
0000FE1FC00000
0001FE1FE00000
0001FC0FE00000
0003FC0FF00000
0003F807F80000
0007F803F80000
000FF003FC0000
000FE001FC0000
001FE001FE0000
001FC000FF0000
003FC0007F0000
003F80007F8000
007F07FFFF8000
00FF07FFFFC000
00FE0FFFFFE000
01FE0FFFFFE000
01FC1FFFFFF000
03FC1FFFFFF000
07F8200007F800
07F0000003FC00
0FF0000003FC00
0FE0000001FE00
1FE0000001FE00
3FC0000000FF00
3F80000000FF80
7F800000007F80
7F000000003FC0
FF000000003FE0
ENDCHAR
STARTCHAR abreve
ENCODING 259
SWIDTH 989 0
DWIDTH 52 0
BBX 51 48 1 0
BITMAP
00003807800000
00003C07000000
00003C0F000000
00001C0F000000
00001E1E000000
00000FFC000000
000007F8000000
00000000000000
00000040000000
000001F0000000
000003F0000000
000007F8000000
000007FC000000
00000FFC000000
00000FFE000000
00001FFE000000
00003FFF000000
00003FFF000000
00007FFF800000
00007F3FC00000
0000FE1FC00000
0001FE1FE00000
0001FC0FE00000
0003FC0FF00000
0003F807F80000
0007F803F80000
000FF003FC0000
000FE001FC0000
001FE001FE0000
001FC000FF0000
003FC0007F0000
003F80007F8000
007F07FFFF8000
00FF07FFFFC000
00FE0FFFFFE000
01FE0FFFFFE000
01FC1FFFFFF000
03FC1FFFFFF000
07F8200007F800
07F0000003FC00
0FF0000003FC00
0FE0000001FE00
1FE0000001FE00
3FC0000000FF00
3F80000000FF80
7F800000007F80
7F000000003FC0
FF000000003FE0
ENDCHAR
STARTCHAR Aogonek
ENCODING 260
SWIDTH 989 0
DWIDTH 52 0
BBX 51 51 1 -11
BITMAP
00000040000000
000001F0000000
000003F0000000
000007F8000000
000007FC000000
00000FFC000000
00000FFE000000
00001FFE000000
00003FFF000000
00003FFF000000
00007FFF800000
00007F3FC00000
0000FE1FC00000
0001FE1FE00000
0001FC0FE00000
0003FC0FF00000
0003F807F80000
0007F803F80000
000FF003FC0000
000FE001FC0000
001FE001FE0000
001FC000FF0000
003FC0007F0000
003F80007F8000
007F07FFFF8000
00FF07FFFFC000
00FE0FFFFFE000
01FE0FFFFFE000
01FC1FFFFFF000
03FC1FFFFFF000
07F8200007F800
07F0000003FC00
0FF0000003FC00
0FE0000001FE00
1FE0000001FE00
3FC0000000FF00
3F80000000FF80
7F800000007F80
7F000000003FC0
FF000000003FE0
000000000001C0
00000000000780
00000000000E00
00000000003C00
00000000007800
00000000007800
00000000007800
00000000007FE0
00000000007FE0
00000000003FE0
00000000001FE0
ENDCHAR
STARTCHAR aogonek
ENCODING 261
SWIDTH 989 0
DWIDTH 52 0
BBX 51 51 1 -11
BITMAP
00000040000000
000001F0000000
000003F0000000
000007F8000000
000007FC000000
00000FFC000000
00000FFE000000
00001FFE000000
00003FFF000000
00003FFF000000
00007FFF800000
00007F3FC00000
0000FE1FC00000
0001FE1FE00000
0001FC0FE00000
0003FC0FF00000
0003F807F80000
0007F803F80000
000FF003FC0000
000FE001FC0000
001FE001FE0000
001FC000FF0000
003FC0007F0000
003F80007F8000
007F07FFFF8000
00FF07FFFFC000
00FE0FFFFFE000
01FE0FFFFFE000
01FC1FFFFFF000
03FC1FFFFFF000
07F8200007F800
07F0000003FC00
0FF0000003FC00
0FE0000001FE00
1FE0000001FE00
3FC0000000FF00
3F80000000FF80
7F800000007F80
7F000000003FC0
FF000000003FE0
000000000001C0
00000000000780
00000000000E00
00000000003C00
00000000007800
00000000007800
00000000007800
00000000007FE0
00000000007FE0
00000000003FE0
00000000001FE0
ENDCHAR
STARTCHAR Cacute
ENCODING 262
SWIDTH 829 0
DWIDTH 44 0
BBX 40 49 2 0
BITMAP
0000000200
0000001E00
000000FE00
000007FE00
00007FFE00
00007FE000
00007C0000
0000400000
0000000000
0000000000
0003FFFFFF
001FFFFFFF
007FFFFFFF
00FFFFFFFF
03FFFFFFFF
07FFFFFFFF
0FFFFFFFFF
0FFE000000
1FF8000000
3FE0000000
3FC0000000
3F80000000
7F80000000
7F00000000
7F00000000
FE00000000
FE00000000
FE00000000
FE00000000
FE00000000
FE00000000
FE00000000
FE00000000
7F00000000
7F00000000
7F00000000
7F80000000
3F80000000
3FC0000000
1FE0000000
1FF8000000
0FFE000000
07FFFFFFFF
03FFFFFFFF
01FFFFFFFF
00FFFFFFFF
003FFFFFFF
000FFFFFFF
0001FFFFFF
ENDCHAR
STARTCHAR cacute
ENCODING 263
SWIDTH 829 0
DWIDTH 44 0
BBX 40 49 2 0
BITMAP
0000000200
0000001E00
000000FE00
000007FE00
00007FFE00
00007FE000
00007C0000
0000400000
0000000000
0000000000
0003FFFFFF
001FFFFFFF
007FFFFFFF
00FFFFFFFF
03FFFFFFFF
07FFFFFFFF
0FFFFFFFFF
0FFE000000
1FF8000000
3FE0000000
3FC0000000
3F80000000
7F80000000
7F00000000
7F00000000
FE00000000
FE00000000
FE00000000
FE00000000
FE00000000
FE00000000
FE00000000
FE00000000
7F00000000
7F00000000
7F00000000
7F80000000
3F80000000
3FC0000000
1FE0000000
1FF8000000
0FFE000000
07FFFFFFFF
03FFFFFFFF
01FFFFFFFF
00FFFFFFFF
003FFFFFFF
000FFFFFFF
0001FFFFFF
ENDCHAR
STARTCHAR Cdotaccent
ENCODING 266
SWIDTH 829 0
DWIDTH 44 0
BBX 40 48 2 0
BITMAP
0000078000
000007C000
00000FC000
000007C000
0000078000
0000000000
0000000000
0000000000
0000000000
0003FFFFFF
001FFFFFFF
007FFFFFFF
00FFFFFFFF
03FFFFFFFF
07FFFFFFFF
0FFFFFFFFF
0FFE000000
1FF8000000
3FE0000000
3FC0000000
3F80000000
7F80000000
7F00000000
7F00000000
FE00000000
FE00000000
FE00000000
FE00000000
FE00000000
FE00000000
FE00000000
FE00000000
7F00000000
7F00000000
7F00000000
7F80000000
3F80000000
3FC0000000
1FE0000000
1FF8000000
0FFE000000
07FFFFFFFF
03FFFFFFFF
01FFFFFFFF
00FFFFFFFF
003FFFFFFF
000FFFFFFF
0001FFFFFF
ENDCHAR
STARTCHAR cdotaccent
ENCODING 267
SWIDTH 829 0
DWIDTH 44 0
BBX 40 48 2 0
BITMAP
0000078000
000007C000
00000FC000
000007C000
0000078000
0000000000
0000000000
0000000000
0000000000
0003FFFFFF
001FFFFFFF
007FFFFFFF
00FFFFFFFF
03FFFFFFFF
07FFFFFFFF
0FFFFFFFFF
0FFE000000
1FF8000000
3FE0000000
3FC0000000
3F80000000
7F80000000
7F00000000
7F00000000
FE00000000
FE00000000
FE00000000
FE00000000
FE00000000
FE00000000
FE00000000
FE00000000
7F00000000
7F00000000
7F00000000
7F80000000
3F80000000
3FC0000000
1FE0000000
1FF8000000
0FFE000000
07FFFFFFFF
03FFFFFFFF
01FFFFFFFF
00FFFFFFFF
003FFFFFFF
000FFFFFFF
0001FFFFFF
ENDCHAR
STARTCHAR Ccaron
ENCODING 268
SWIDTH 829 0
DWIDTH 44 0
BBX 40 48 2 0
BITMAP
0001E03C00
0000F07800
0000787000
000038E000
00003DE000
00001FC000
00000F8000
0000000000
0000000000
0003FFFFFF
001FFFFFFF
007FFFFFFF
00FFFFFFFF
03FFFFFFFF
07FFFFFFFF
0FFFFFFFFF
0FFE000000
1FF8000000
3FE0000000
3FC0000000
3F80000000
7F80000000
7F00000000
7F00000000
FE00000000
FE00000000
FE00000000
FE00000000
FE00000000
FE00000000
FE00000000
FE00000000
7F00000000
7F00000000
7F00000000
7F80000000
3F80000000
3FC0000000
1FE0000000
1FF8000000
0FFE000000
07FFFFFFFF
03FFFFFFFF
01FFFFFFFF
00FFFFFFFF
003FFFFFFF
000FFFFFFF
0001FFFFFF
ENDCHAR
STARTCHAR ccaron
ENCODING 269
SWIDTH 829 0
DWIDTH 44 0
BBX 40 48 2 0
BITMAP
0001E03C00
0000F07800
0000787000
000038E000
00003DE000
00001FC000
00000F8000
0000000000
0000000000
0003FFFFFF
001FFFFFFF
007FFFFFFF
00FFFFFFFF
03FFFFFFFF
07FFFFFFFF
0FFFFFFFFF
0FFE000000
1FF8000000
3FE0000000
3FC0000000
3F80000000
7F80000000
7F00000000
7F00000000
FE00000000
FE00000000
FE00000000
FE00000000
FE00000000
FE00000000
FE00000000
FE00000000
7F00000000
7F00000000
7F00000000
7F80000000
3F80000000
3FC0000000
1FE0000000
1FF8000000
0FFE000000
07FFFFFFFF
03FFFFFFFF
01FFFFFFFF
00FFFFFFFF
003FFFFFFF
000FFFFFFF
0001FFFFFF
ENDCHAR
STARTCHAR Dcaron
ENCODING 270
SWIDTH 879 0
DWIDTH 47 0
BBX 41 48 3 0
BITMAP
001E07800000
000F07000000
00070F000000
00079E000000
0003DC000000
0001FC000000
0001F8000000
000000000000
000000000000
FFFFFFE00000
FFFFFFFC0000
FFFFFFFF0000
FFFFFFFFC000
FFFFFFFFE000
FFFFFFFFF000
FFFFFFFFF800
FE00001FFC00
FE000007FE00
FE000003FE00
FE000001FF00
FE000000FF00
FE0000007F00
FE0000007F80
FE0000003F80
FE0000003F80
FE0000003F80
FE0000001F80
FE0000001F80
FE0000001F80
FE0000001F80
FE0000001F80
FE0000003F80
FE0000003F80
FE0000003F80
FE0000007F00
FE0000007F00
FE000000FF00
FE000001FE00
FE000003FE00
FE000007FC00
FE00001FFC00
FFFFFFFFF800
FFFFFFFFF000
FFFFFFFFE000
FFFFFFFFC000
FFFFFFFF0000
FFFFFFFC0000
FFFFFFE00000
ENDCHAR
STARTCHAR dcaron
ENCODING 271
SWIDTH 879 0
DWIDTH 47 0
BBX 41 48 3 0
BITMAP
001E07800000
000F07000000
00070F000000
00079E000000
0003DC000000
0001FC000000
0001F8000000
000000000000
000000000000
FFFFFFE00000
FFFFFFFC0000
FFFFFFFF0000
FFFFFFFFC000
FFFFFFFFE000
FFFFFFFFF000
FFFFFFFFF800
FE00001FFC00
FE000007FE00
FE000003FE00
FE000001FF00
FE000000FF00
FE0000007F00
FE0000007F80
FE0000003F80
FE0000003F80
FE0000003F80
FE0000001F80
FE0000001F80
FE0000001F80
FE0000001F80
FE0000001F80
FE0000003F80
FE0000003F80
FE0000003F80
FE0000007F00
FE0000007F00
FE000000FF00
FE000001FE00
FE000003FE00
FE000007FC00
FE00001FFC00
FFFFFFFFF800
FFFFFFFFF000
FFFFFFFFE000
FFFFFFFFC000
FFFFFFFF0000
FFFFFFFC0000
FFFFFFE00000
ENDCHAR
STARTCHAR Dcroat
ENCODING 272
SWIDTH 877 0
DWIDTH 46 0
BBX 43 39 1 0
BITMAP
3FFFFFF80000
3FFFFFFF0000
3FFFFFFFC000
3FFFFFFFF000
3FFFFFFFF800
3FFFFFFFFC00
3FFFFFFFFE00
3F800007FF00
3F800001FF80
3F800000FF80
3F8000007FC0
3F8000003FC0
3F8000001FC0
3F8000001FE0
3F8000000FE0
3F8000000FE0
FFFFFF000FE0
FFFFFF000FE0
FFFFFF0007E0
FFFFFF0007E0
FFFFFF0007E0
FFFFFF000FE0
3F8000000FE0
3F8000000FE0
3F8000000FE0
3F8000001FC0
3F8000001FC0
3F8000003FC0
3F8000007F80
3F800000FF80
3F800001FF00
3F800007FE00
3FFFFFFFFE00
3FFFFFFFFC00
3FFFFFFFF800
3FFFFFFFF000
3FFFFFFFC000
3FFFFFFF0000
3FFFFFF80000
ENDCHAR
STARTCHAR dcroat
ENCODING 273
SWIDTH 877 0
DWIDTH 46 0
BBX 43 39 1 0
BITMAP
3FFFFFF80000
3FFFFFFF0000
3FFFFFFFC000
3FFFFFFFF000
3FFFFFFFF800
3FFFFFFFFC00
3FFFFFFFFE00
3F800007FF00
3F800001FF80
3F800000FF80
3F8000007FC0
3F8000003FC0
3F8000001FC0
3F8000001FE0
3F8000000FE0
3F8000000FE0
FFFFFF000FE0
FFFFFF000FE0
FFFFFF0007E0
FFFFFF0007E0
FFFFFF0007E0
FFFFFF000FE0
3F8000000FE0
3F8000000FE0
3F8000000FE0
3F8000001FC0
3F8000001FC0
3F8000003FC0
3F8000007F80
3F800000FF80
3F800001FF00
3F800007FE00
3FFFFFFFFE00
3FFFFFFFFC00
3FFFFFFFF800
3FFFFFFFF000
3FFFFFFFC000
3FFFFFFF0000
3FFFFFF80000
ENDCHAR
STARTCHAR Emacron
ENCODING 274
SWIDTH 759 0
DWIDTH 40 0
BBX 35 47 3 0
BITMAP
003FFF0000
003FFF0000
003FFF0000
0000000000
0000000000
0000000000
0000000000
0000000000
FFFFFFFFE0
FFFFFFFFE0
FFFFFFFFE0
FFFFFFFFE0
FFFFFFFFE0
FFFFFFFFE0
FFFFFFFFE0
FE00000000
FE00000000
FE00000000
FE00000000
FE00000000
FE00000000
FE00000000
FE00000000
FE00000000
FE0FFFFF80
FE0FFFFF80
FE0FFFFF80
FE0FFFFF80
FE0FFFFF80
FE0FFFFF80
FE00000000
FE00000000
FE00000000
FE00000000
FE00000000
FE00000000
FE00000000
FE00000000
FE00000000
FE00000000
FFFFFFFFE0
FFFFFFFFE0
FFFFFFFFE0
FFFFFFFFE0
FFFFFFFFE0
FFFFFFFFE0
FFFFFFFFE0
ENDCHAR
STARTCHAR emacron
ENCODING 275
SWIDTH 759 0
DWIDTH 40 0
BBX 35 47 3 0
BITMAP
003FFF0000
003FFF0000
003FFF0000
0000000000
0000000000
0000000000
0000000000
0000000000
FFFFFFFFE0
FFFFFFFFE0
FFFFFFFFE0
FFFFFFFFE0
FFFFFFFFE0
FFFFFFFFE0
FFFFFFFFE0
FE00000000
FE00000000
FE00000000
FE00000000
FE00000000
FE00000000
FE00000000
FE00000000
FE00000000
FE0FFFFF80
FE0FFFFF80
FE0FFFFF80
FE0FFFFF80
FE0FFFFF80
FE0FFFFF80
FE00000000
FE00000000
FE00000000
FE00000000
FE00000000
FE00000000
FE00000000
FE00000000
FE00000000
FE00000000
FFFFFFFFE0
FFFFFFFFE0
FFFFFFFFE0
FFFFFFFFE0
FFFFFFFFE0
FFFFFFFFE0
FFFFFFFFE0
ENDCHAR
STARTCHAR Ebreve
ENCODING 276
SWIDTH 759 0
DWIDTH 40 0
BBX 35 48 3 0
BITMAP
0038070000
003C070000
003C0F0000
001C0F0000
001E1E0000
000FFC0000
0007F80000
0000000000
0000000000
FFFFFFFFE0
FFFFFFFFE0
FFFFFFFFE0
FFFFFFFFE0
FFFFFFFFE0
FFFFFFFFE0
FFFFFFFFE0
FE00000000
FE00000000
FE00000000
FE00000000
FE00000000
FE00000000
FE00000000
FE00000000
FE00000000
FE0FFFFF80
FE0FFFFF80
FE0FFFFF80
FE0FFFFF80
FE0FFFFF80
FE0FFFFF80
FE00000000
FE00000000
FE00000000
FE00000000
FE00000000
FE00000000
FE00000000
FE00000000
FE00000000
FE00000000
FFFFFFFFE0
FFFFFFFFE0
FFFFFFFFE0
FFFFFFFFE0
FFFFFFFFE0
FFFFFFFFE0
FFFFFFFFE0
ENDCHAR
STARTCHAR ebreve
ENCODING 277
SWIDTH 759 0
DWIDTH 40 0
BBX 35 48 3 0
BITMAP
0038070000
003C070000
003C0F0000
001C0F0000
001E1E0000
000FFC0000
0007F80000
0000000000
0000000000
FFFFFFFFE0
FFFFFFFFE0
FFFFFFFFE0
FFFFFFFFE0
FFFFFFFFE0
FFFFFFFFE0
FFFFFFFFE0
FE00000000
FE00000000
FE00000000
FE00000000
FE00000000
FE00000000
FE00000000
FE00000000
FE00000000
FE0FFFFF80
FE0FFFFF80
FE0FFFFF80
FE0FFFFF80
FE0FFFFF80
FE0FFFFF80
FE00000000
FE00000000
FE00000000
FE00000000
FE00000000
FE00000000
FE00000000
FE00000000
FE00000000
FE00000000
FFFFFFFFE0
FFFFFFFFE0
FFFFFFFFE0
FFFFFFFFE0
FFFFFFFFE0
FFFFFFFFE0
FFFFFFFFE0
ENDCHAR
STARTCHAR Edotaccent
ENCODING 278
SWIDTH 759 0
DWIDTH 40 0
BBX 35 48 3 0
BITMAP
0001E00000
0001F00000
0003F00000
0001F00000
0001E00000
0000000000
0000000000
0000000000
0000000000
FFFFFFFFE0
FFFFFFFFE0
FFFFFFFFE0
FFFFFFFFE0
FFFFFFFFE0
FFFFFFFFE0
FFFFFFFFE0
FE00000000
FE00000000
FE00000000
FE00000000
FE00000000
FE00000000
FE00000000
FE00000000
FE00000000
FE0FFFFF80
FE0FFFFF80
FE0FFFFF80
FE0FFFFF80
FE0FFFFF80
FE0FFFFF80
FE00000000
FE00000000
FE00000000
FE00000000
FE00000000
FE00000000
FE00000000
FE00000000
FE00000000
FE00000000
FFFFFFFFE0
FFFFFFFFE0
FFFFFFFFE0
FFFFFFFFE0
FFFFFFFFE0
FFFFFFFFE0
FFFFFFFFE0
ENDCHAR
STARTCHAR edotaccent
ENCODING 279
SWIDTH 759 0
DWIDTH 40 0
BBX 35 48 3 0
BITMAP
0001E00000
0001F00000
0003F00000
0001F00000
0001E00000
0000000000
0000000000
0000000000
0000000000
FFFFFFFFE0
FFFFFFFFE0
FFFFFFFFE0
FFFFFFFFE0
FFFFFFFFE0
FFFFFFFFE0
FFFFFFFFE0
FE00000000
FE00000000
FE00000000
FE00000000
FE00000000
FE00000000
FE00000000
FE00000000
FE00000000
FE0FFFFF80
FE0FFFFF80
FE0FFFFF80
FE0FFFFF80
FE0FFFFF80
FE0FFFFF80
FE00000000
FE00000000
FE00000000
FE00000000
FE00000000
FE00000000
FE00000000
FE00000000
FE00000000
FE00000000
FFFFFFFFE0
FFFFFFFFE0
FFFFFFFFE0
FFFFFFFFE0
FFFFFFFFE0
FFFFFFFFE0
FFFFFFFFE0
ENDCHAR
STARTCHAR Eogonek
ENCODING 280
SWIDTH 759 0
DWIDTH 40 0
BBX 35 50 3 -11
BITMAP
FFFFFFFFE0
FFFFFFFFE0
FFFFFFFFE0
FFFFFFFFE0
FFFFFFFFE0
FFFFFFFFE0
FFFFFFFFE0
FE00000000
FE00000000
FE00000000
FE00000000
FE00000000
FE00000000
FE00000000
FE00000000
FE00000000
FE0FFFFF80
FE0FFFFF80
FE0FFFFF80
FE0FFFFF80
FE0FFFFF80
FE0FFFFF80
FE00000000
FE00000000
FE00000000
FE00000000
FE00000000
FE00000000
FE00000000
FE00000000
FE00000000
FE00000000
FFFFFFFFE0
FFFFFFFFE0
FFFFFFFFE0
FFFFFFFFE0
FFFFFFFFE0
FFFFFFFFE0
FFFFFFFFE0
00000001C0
0000000780
0000000E00
0000001C00
0000003800
0000007800
0000007800
0000007FE0
0000007FE0
0000003FE0
0000001FE0
ENDCHAR
STARTCHAR eogonek
ENCODING 281
SWIDTH 759 0
DWIDTH 40 0
BBX 35 50 3 -11
BITMAP
FFFFFFFFE0
FFFFFFFFE0
FFFFFFFFE0
FFFFFFFFE0
FFFFFFFFE0
FFFFFFFFE0
FFFFFFFFE0
FE00000000
FE00000000
FE00000000
FE00000000
FE00000000
FE00000000
FE00000000
FE00000000
FE00000000
FE0FFFFF80
FE0FFFFF80
FE0FFFFF80
FE0FFFFF80
FE0FFFFF80
FE0FFFFF80
FE00000000
FE00000000
FE00000000
FE00000000
FE00000000
FE00000000
FE00000000
FE00000000
FE00000000
FE00000000
FFFFFFFFE0
FFFFFFFFE0
FFFFFFFFE0
FFFFFFFFE0
FFFFFFFFE0
FFFFFFFFE0
FFFFFFFFE0
00000001C0
0000000780
0000000E00
0000001C00
0000003800
0000007800
0000007800
0000007FE0
0000007FE0
0000003FE0
0000001FE0
ENDCHAR
STARTCHAR Ecaron
ENCODING 282
SWIDTH 759 0
DWIDTH 40 0
BBX 35 48 3 0
BITMAP
003C0F0000
001E0E0000
000E1E0000
000F3C0000
0007380000
0003F80000
0003F00000
0000000000
0000000000
FFFFFFFFE0
FFFFFFFFE0
FFFFFFFFE0
FFFFFFFFE0
FFFFFFFFE0
FFFFFFFFE0
FFFFFFFFE0
FE00000000
FE00000000
FE00000000
FE00000000
FE00000000
FE00000000
FE00000000
FE00000000
FE00000000
FE0FFFFF80
FE0FFFFF80
FE0FFFFF80
FE0FFFFF80
FE0FFFFF80
FE0FFFFF80
FE00000000
FE00000000
FE00000000
FE00000000
FE00000000
FE00000000
FE00000000
FE00000000
FE00000000
FE00000000
FFFFFFFFE0
FFFFFFFFE0
FFFFFFFFE0
FFFFFFFFE0
FFFFFFFFE0
FFFFFFFFE0
FFFFFFFFE0
ENDCHAR
STARTCHAR ecaron
ENCODING 283
SWIDTH 759 0
DWIDTH 40 0
BBX 35 48 3 0
BITMAP
003C0F0000
001E0E0000
000E1E0000
000F3C0000
0007380000
0003F80000
0003F00000
0000000000
0000000000
FFFFFFFFE0
FFFFFFFFE0
FFFFFFFFE0
FFFFFFFFE0
FFFFFFFFE0
FFFFFFFFE0
FFFFFFFFE0
FE00000000
FE00000000
FE00000000
FE00000000
FE00000000
FE00000000
FE00000000
FE00000000
FE00000000
FE0FFFFF80
FE0FFFFF80
FE0FFFFF80
FE0FFFFF80
FE0FFFFF80
FE0FFFFF80
FE00000000
FE00000000
FE00000000
FE00000000
FE00000000
FE00000000
FE00000000
FE00000000
FE00000000
FE00000000
FFFFFFFFE0
FFFFFFFFE0
FFFFFFFFE0
FFFFFFFFE0
FFFFFFFFE0
FFFFFFFFE0
FFFFFFFFE0
ENDCHAR
STARTCHAR Gbreve
ENCODING 286
SWIDTH 888 0
DWIDTH 47 0
BBX 42 48 2 0
BITMAP
0000E01C0000
0000F01C0000
0000F03C0000
0000703C0000
000078780000
00003FF00000
00001FE00000
000000000000
000000000000
0003FFFFFF00
001FFFFFFF00
007FFFFFFF00
00FFFFFFFF00
03FFFFFFFF00
07FFFFFFFF00
0FFFFFFFFF00
0FFE00000000
1FF800000000
3FE000000000
3FC000000000
3F8000000000
7F8000000000
7F0000000000
7F0000000000
FE0000000000
FE003FFFFFC0
FE003FFFFFC0
FE003FFFFFC0
FE003FFFFFC0
FE003FFFFFC0
FE003FFFFFC0
FE0000001FC0
7F0000001FC0
7F0000001FC0
7F0000001FC0
7F8000001FC0
3F8000001FC0
3FC000001FC0
1FE000001FC0
1FF800001FC0
0FFE00001FC0
07FFFFFFFFC0
03FFFFFFFFC0
01FFFFFFFFC0
00FFFFFFFFC0
003FFFFFFFC0
000FFFFFFFC0
0001FFFFFFC0
ENDCHAR
STARTCHAR gbreve
ENCODING 287
SWIDTH 888 0
DWIDTH 47 0
BBX 42 48 2 0
BITMAP
0000E01C0000
0000F01C0000
0000F03C0000
0000703C0000
000078780000
00003FF00000
00001FE00000
000000000000
000000000000
0003FFFFFF00
001FFFFFFF00
007FFFFFFF00
00FFFFFFFF00
03FFFFFFFF00
07FFFFFFFF00
0FFFFFFFFF00
0FFE00000000
1FF800000000
3FE000000000
3FC000000000
3F8000000000
7F8000000000
7F0000000000
7F0000000000
FE0000000000
FE003FFFFFC0
FE003FFFFFC0
FE003FFFFFC0
FE003FFFFFC0
FE003FFFFFC0
FE003FFFFFC0
FE0000001FC0
7F0000001FC0
7F0000001FC0
7F0000001FC0
7F8000001FC0
3F8000001FC0
3FC000001FC0
1FE000001FC0
1FF800001FC0
0FFE00001FC0
07FFFFFFFFC0
03FFFFFFFFC0
01FFFFFFFFC0
00FFFFFFFFC0
003FFFFFFFC0
000FFFFFFFC0
0001FFFFFFC0
ENDCHAR
STARTCHAR Gdotaccent
ENCODING 288
SWIDTH 888 0
DWIDTH 47 0
BBX 42 48 2 0
BITMAP
000003800000
000007C00000
000007C00000
000007C00000
000003800000
000000000000
000000000000
000000000000
000000000000
0003FFFFFF00
001FFFFFFF00
007FFFFFFF00
00FFFFFFFF00
03FFFFFFFF00
07FFFFFFFF00
0FFFFFFFFF00
0FFE00000000
1FF800000000
3FE000000000
3FC000000000
3F8000000000
7F8000000000
7F0000000000
7F0000000000
FE0000000000
FE003FFFFFC0
FE003FFFFFC0
FE003FFFFFC0
FE003FFFFFC0
FE003FFFFFC0
FE003FFFFFC0
FE0000001FC0
7F0000001FC0
7F0000001FC0
7F0000001FC0
7F8000001FC0
3F8000001FC0
3FC000001FC0
1FE000001FC0
1FF800001FC0
0FFE00001FC0
07FFFFFFFFC0
03FFFFFFFFC0
01FFFFFFFFC0
00FFFFFFFFC0
003FFFFFFFC0
000FFFFFFFC0
0001FFFFFFC0
ENDCHAR
STARTCHAR gdotaccent
ENCODING 289
SWIDTH 888 0
DWIDTH 47 0
BBX 42 48 2 0
BITMAP
000003800000
000007C00000
000007C00000
000007C00000
000003800000
000000000000
000000000000
000000000000
000000000000
0003FFFFFF00
001FFFFFFF00
007FFFFFFF00
00FFFFFFFF00
03FFFFFFFF00
07FFFFFFFF00
0FFFFFFFFF00
0FFE00000000
1FF800000000
3FE000000000
3FC000000000
3F8000000000
7F8000000000
7F0000000000
7F0000000000
FE0000000000
FE003FFFFFC0
FE003FFFFFC0
FE003FFFFFC0
FE003FFFFFC0
FE003FFFFFC0
FE003FFFFFC0
FE0000001FC0
7F0000001FC0
7F0000001FC0
7F0000001FC0
7F8000001FC0
3F8000001FC0
3FC000001FC0
1FE000001FC0
1FF800001FC0
0FFE00001FC0
07FFFFFFFFC0
03FFFFFFFFC0
01FFFFFFFFC0
00FFFFFFFFC0
003FFFFFFFC0
000FFFFFFFC0
0001FFFFFFC0
ENDCHAR
STARTCHAR Gcommaaccent
ENCODING 290
SWIDTH 888 0
DWIDTH 47 0
BBX 42 50 2 -11
BITMAP
0003FFFFFF00
001FFFFFFF00
007FFFFFFF00
00FFFFFFFF00
03FFFFFFFF00
07FFFFFFFF00
0FFFFFFFFF00
0FFE00000000
1FF800000000
3FE000000000
3FC000000000
3F8000000000
7F8000000000
7F0000000000
7F0000000000
FE0000000000
FE003FFFFFC0
FE003FFFFFC0
FE003FFFFFC0
FE003FFFFFC0
FE003FFFFFC0
FE003FFFFFC0
FE0000001FC0
7F0000001FC0
7F0000001FC0
7F0000001FC0
7F8000001FC0
3F8000001FC0
3FC000001FC0
1FE000001FC0
1FF800001FC0
0FFE00001FC0
07FFFFFFFFC0
03FFFFFFFFC0
01FFFFFFFFC0
00FFFFFFFFC0
003FFFFFFFC0
000FFFFFFFC0
0001FFFFFFC0
000000000000
000000000000
000000000000
00001FC00000
00001F800000
00000F800000
00000F000000
00000F000000
000006000000
000006000000
000002000000
ENDCHAR
STARTCHAR gcommaaccent
ENCODING 291
SWIDTH 888 0
DWIDTH 47 0
BBX 42 50 2 -11
BITMAP
0003FFFFFF00
001FFFFFFF00
007FFFFFFF00
00FFFFFFFF00
03FFFFFFFF00
07FFFFFFFF00
0FFFFFFFFF00
0FFE00000000
1FF800000000
3FE000000000
3FC000000000
3F8000000000
7F8000000000
7F0000000000
7F0000000000
FE0000000000
FE003FFFFFC0
FE003FFFFFC0
FE003FFFFFC0
FE003FFFFFC0
FE003FFFFFC0
FE003FFFFFC0
FE0000001FC0
7F0000001FC0
7F0000001FC0
7F0000001FC0
7F8000001FC0
3F8000001FC0
3FC000001FC0
1FE000001FC0
1FF800001FC0
0FFE00001FC0
07FFFFFFFFC0
03FFFFFFFFC0
01FFFFFFFFC0
00FFFFFFFFC0
003FFFFFFFC0
000FFFFFFFC0
0001FFFFFFC0
000000000000
000000000000
000000000000
00001FC00000
00001F800000
00000F800000
00000F000000
00000F000000
000006000000
000006000000
000002000000
ENDCHAR
STARTCHAR Hbar
ENCODING 294
SWIDTH 838 0
DWIDTH 44 0
BBX 38 39 3 0
BITMAP
FE000001FC
FE000001FC
FE000001FC
FE000001FC
FE000001FC
FE000001FC
FE0FFFFFFC
FE0FFFFFFC
FE0FFFFFFC
FE000001FC
FE000001FC
FE000001FC
FE000001FC
FE000001FC
FE000001FC
FE000001FC
FE0FFFFFFC
FE0FFFFFFC
FE0FFFFFFC
FE0FFFFFFC
FE0FFFFFFC
FE0FFFFFFC
FE000001FC
FE000001FC
FE000001FC
FE000001FC
FE000001FC
FE000001FC
FE000001FC
FE000001FC
FE000001FC
FE000001FC
FE000001FC
FE000001FC
FE000001FC
FE000001FC
FE000001FC
FE000001FC
FE000001FC
ENDCHAR
STARTCHAR hbar
ENCODING 295
SWIDTH 838 0
DWIDTH 44 0
BBX 38 39 3 0
BITMAP
FE000001FC
FE000001FC
FE000001FC
FE000001FC
FE000001FC
FE000001FC
FE0FFFFFFC
FE0FFFFFFC
FE0FFFFFFC
FE000001FC
FE000001FC
FE000001FC
FE000001FC
FE000001FC
FE000001FC
FE000001FC
FE0FFFFFFC
FE0FFFFFFC
FE0FFFFFFC
FE0FFFFFFC
FE0FFFFFFC
FE0FFFFFFC
FE000001FC
FE000001FC
FE000001FC
FE000001FC
FE000001FC
FE000001FC
FE000001FC
FE000001FC
FE000001FC
FE000001FC
FE000001FC
FE000001FC
FE000001FC
FE000001FC
FE000001FC
FE000001FC
FE000001FC
ENDCHAR
STARTCHAR uni012A
ENCODING 298
SWIDTH 267 0
DWIDTH 14 0
BBX 14 47 0 0
BITMAP
FFFC
FFFC
FFFC
0000
0000
0000
0000
0000
0FC0
0FC0
0FC0
0FC0
0FC0
0FC0
0FC0
0FC0
0FC0
0FC0
0FC0
0FC0
0FC0
0FC0
0FC0
0FC0
0FC0
0FC0
0FC0
0FC0
0FC0
0FC0
0FC0
0FC0
0FC0
0FC0
0FC0
0FC0
0FC0
0FC0
0FC0
0FC0
0FC0
0FC0
0FC0
0FC0
0FC0
0FC0
0FC0
ENDCHAR
STARTCHAR imacron
ENCODING 299
SWIDTH 267 0
DWIDTH 14 0
BBX 14 47 0 0
BITMAP
FFFC
FFFC
FFFC
0000
0000
0000
0000
0000
0FC0
0FC0
0FC0
0FC0
0FC0
0FC0
0FC0
0FC0
0FC0
0FC0
0FC0
0FC0
0FC0
0FC0
0FC0
0FC0
0FC0
0FC0
0FC0
0FC0
0FC0
0FC0
0FC0
0FC0
0FC0
0FC0
0FC0
0FC0
0FC0
0FC0
0FC0
0FC0
0FC0
0FC0
0FC0
0FC0
0FC0
0FC0
0FC0
ENDCHAR
STARTCHAR Ibreve
ENCODING 300
SWIDTH 267 0
DWIDTH 14 0
BBX 14 48 0 0
BITMAP
F01C
F01C
F03C
703C
7878
3FF0
1FE0
0000
0000
0FC0
0FC0
0FC0
0FC0
0FC0
0FC0
0FC0
0FC0
0FC0
0FC0
0FC0
0FC0
0FC0
0FC0
0FC0
0FC0
0FC0
0FC0
0FC0
0FC0
0FC0
0FC0
0FC0
0FC0
0FC0
0FC0
0FC0
0FC0
0FC0
0FC0
0FC0
0FC0
0FC0
0FC0
0FC0
0FC0
0FC0
0FC0
0FC0
ENDCHAR
STARTCHAR ibreve
ENCODING 301
SWIDTH 267 0
DWIDTH 14 0
BBX 14 48 0 0
BITMAP
F01C
F01C
F03C
703C
7878
3FF0
1FE0
0000
0000
0FC0
0FC0
0FC0
0FC0
0FC0
0FC0
0FC0
0FC0
0FC0
0FC0
0FC0
0FC0
0FC0
0FC0
0FC0
0FC0
0FC0
0FC0
0FC0
0FC0
0FC0
0FC0
0FC0
0FC0
0FC0
0FC0
0FC0
0FC0
0FC0
0FC0
0FC0
0FC0
0FC0
0FC0
0FC0
0FC0
0FC0
0FC0
0FC0
ENDCHAR
STARTCHAR Iogonek
ENCODING 302
SWIDTH 267 0
DWIDTH 14 0
BBX 10 50 0 -11
BITMAP
0FC0
0FC0
0FC0
0FC0
0FC0
0FC0
0FC0
0FC0
0FC0
0FC0
0FC0
0FC0
0FC0
0FC0
0FC0
0FC0
0FC0
0FC0
0FC0
0FC0
0FC0
0FC0
0FC0
0FC0
0FC0
0FC0
0FC0
0FC0
0FC0
0FC0
0FC0
0FC0
0FC0
0FC0
0FC0
0FC0
0FC0
0FC0
0FC0
01C0
0700
0E00
3C00
7800
7000
F800
FFC0
7FC0
7FC0
1FC0
ENDCHAR
STARTCHAR iogonek
ENCODING 303
SWIDTH 267 0
DWIDTH 14 0
BBX 10 50 0 -11
BITMAP
0FC0
0FC0
0FC0
0FC0
0FC0
0FC0
0FC0
0FC0
0FC0
0FC0
0FC0
0FC0
0FC0
0FC0
0FC0
0FC0
0FC0
0FC0
0FC0
0FC0
0FC0
0FC0
0FC0
0FC0
0FC0
0FC0
0FC0
0FC0
0FC0
0FC0
0FC0
0FC0
0FC0
0FC0
0FC0
0FC0
0FC0
0FC0
0FC0
01C0
0700
0E00
3C00
7800
7000
F800
FFC0
7FC0
7FC0
1FC0
ENDCHAR
STARTCHAR Idotaccent
ENCODING 304
SWIDTH 267 0
DWIDTH 14 0
BBX 6 48 4 0
BITMAP
78
7C
FC
7C
78
00
00
00
00
FC
FC
FC
FC
FC
FC
FC
FC
FC
FC
FC
FC
FC
FC
FC
FC
FC
FC
FC
FC
FC
FC
FC
FC
FC
FC
FC
FC
FC
FC
FC
FC
FC
FC
FC
FC
FC
FC
FC
ENDCHAR
STARTCHAR dotlessi
ENCODING 305
SWIDTH 267 0
DWIDTH 14 0
BBX 6 39 4 0
BITMAP
FC
FC
FC
FC
FC
FC
FC
FC
FC
FC
FC
FC
FC
FC
FC
FC
FC
FC
FC
FC
FC
FC
FC
FC
FC
FC
FC
FC
FC
FC
FC
FC
FC
FC
FC
FC
FC
FC
FC
ENDCHAR
STARTCHAR IJ
ENCODING 306
SWIDTH 975 0
DWIDTH 52 0
BBX 45 39 4 0
BITMAP
FC00000003F8
FC00000003F8
FC00000003F8
FC00000003F8
FC00000003F8
FC00000003F8
FC00000003F8
FC00000003F8
FC00000003F8
FC00000003F8
FC00000003F8
FC00000003F8
FC00000003F8
FC00000003F8
FC00000003F8
FC00000003F8
FC00000003F8
FC00000003F8
FC00000003F8
FC00000003F8
FC00000003F8
FC00000003F8
FC00000003F8
FC00000003F8
FC00000003F8
FC00000003F8
FC00000007F0
FC00000007F0
FC0000000FF0
FC0000001FF0
FC0000003FE0
FC000001FFE0
FC1FFFFFFFC0
FC1FFFFFFF80
FC1FFFFFFF00
FC1FFFFFFE00
FC1FFFFFFC00
FC1FFFFFE000
FC1FFFFF0000
ENDCHAR
STARTCHAR ij
ENCODING 307
SWIDTH 975 0
DWIDTH 52 0
BBX 45 39 4 0
BITMAP
FC00000003F8
FC00000003F8
FC00000003F8
FC00000003F8
FC00000003F8
FC00000003F8
FC00000003F8
FC00000003F8
FC00000003F8
FC00000003F8
FC00000003F8
FC00000003F8
FC00000003F8
FC00000003F8
FC00000003F8
FC00000003F8
FC00000003F8
FC00000003F8
FC00000003F8
FC00000003F8
FC00000003F8
FC00000003F8
FC00000003F8
FC00000003F8
FC00000003F8
FC00000003F8
FC00000007F0
FC00000007F0
FC0000000FF0
FC0000001FF0
FC0000003FE0
FC000001FFE0
FC1FFFFFFFC0
FC1FFFFFFF80
FC1FFFFFFF00
FC1FFFFFFE00
FC1FFFFFFC00
FC1FFFFFE000
FC1FFFFF0000
ENDCHAR
STARTCHAR Kcommaaccent
ENCODING 310
SWIDTH 875 0
DWIDTH 46 0
BBX 42 50 3 -11
BITMAP
FE000001FFC0
FE000007FF00
FE00000FFC00
FE00001FF800
FE00007FF000
FE0000FFC000
FE0001FF8000
FE0003FF0000
FE000FFC0000
FE001FF80000
FE003FF00000
FE00FFC00000
FE01FF800000
FE03FF000000
FE07FC000000
FE1FF8000000
FE3FF0000000
FE7FC0000000
FE7F80000000
FE7F80000000
FE7FC0000000
FE3FF0000000
FE1FF8000000
FE07FC000000
FE03FE000000
FE01FF800000
FE00FFC00000
FE003FE00000
FE001FF80000
FE000FFC0000
FE0007FE0000
FE0001FF8000
FE0000FFC000
FE00007FE000
FE00003FF800
FE00000FFC00
FE000007FE00
FE000003FF00
FE000001FFC0
000000000000
000000000000
000000000000
00007F000000
00007E000000
00003E000000
00003C000000
00001C000000
000018000000
000018000000
000008000000
ENDCHAR
STARTCHAR kcommaaccent
ENCODING 311
SWIDTH 875 0
DWIDTH 46 0
BBX 42 50 3 -11
BITMAP
FE000001FFC0
FE000007FF00
FE00000FFC00
FE00001FF800
FE00007FF000
FE0000FFC000
FE0001FF8000
FE0003FF0000
FE000FFC0000
FE001FF80000
FE003FF00000
FE00FFC00000
FE01FF800000
FE03FF000000
FE07FC000000
FE1FF8000000
FE3FF0000000
FE7FC0000000
FE7F80000000
FE7F80000000
FE7FC0000000
FE3FF0000000
FE1FF8000000
FE07FC000000
FE03FE000000
FE01FF800000
FE00FFC00000
FE003FE00000
FE001FF80000
FE000FFC0000
FE0007FE0000
FE0001FF8000
FE0000FFC000
FE00007FE000
FE00003FF800
FE00000FFC00
FE000007FE00
FE000003FF00
FE000001FFC0
000000000000
000000000000
000000000000
00007F000000
00007E000000
00003E000000
00003C000000
00001C000000
000018000000
000018000000
000008000000
ENDCHAR
STARTCHAR Lacute
ENCODING 313
SWIDTH 707 0
DWIDTH 37 0
BBX 35 49 1 0
BITMAP
0004000000
003C000000
01FC000000
0FFC000000
FFFC000000
FFC0000000
F800000000
8000000000
0000000000
0000000000
3F80000000
3F80000000
3F80000000
3F80000000
3F80000000
3F80000000
3F80000000
3F80000000
3F80000000
3F80000000
3F80000000
3F80000000
3F80000000
3F80000000
3F80000000
3F80000000
3F80000000
3F80000000
3F80000000
3F80000000
3F80000000
3F80000000
3F80000000
3F80000000
3F80000000
3F80000000
3F80000000
3F80000000
3F80000000
3F80000000
3F80000000
3F80000000
3FFFFFFFE0
3FFFFFFFE0
3FFFFFFFE0
3FFFFFFFE0
3FFFFFFFE0
3FFFFFFFE0
3FFFFFFFE0
ENDCHAR
STARTCHAR lacute
ENCODING 314
SWIDTH 707 0
DWIDTH 37 0
BBX 35 49 1 0
BITMAP
0004000000
003C000000
01FC000000
0FFC000000
FFFC000000
FFC0000000
F800000000
8000000000
0000000000
0000000000
3F80000000
3F80000000
3F80000000
3F80000000
3F80000000
3F80000000
3F80000000
3F80000000
3F80000000
3F80000000
3F80000000
3F80000000
3F80000000
3F80000000
3F80000000
3F80000000
3F80000000
3F80000000
3F80000000
3F80000000
3F80000000
3F80000000
3F80000000
3F80000000
3F80000000
3F80000000
3F80000000
3F80000000
3F80000000
3F80000000
3F80000000
3F80000000
3FFFFFFFE0
3FFFFFFFE0
3FFFFFFFE0
3FFFFFFFE0
3FFFFFFFE0
3FFFFFFFE0
3FFFFFFFE0
ENDCHAR
STARTCHAR Lcommaaccent
ENCODING 315
SWIDTH 707 0
DWIDTH 37 0
BBX 33 50 3 -11
BITMAP
FE00000000
FE00000000
FE00000000
FE00000000
FE00000000
FE00000000
FE00000000
FE00000000
FE00000000
FE00000000
FE00000000
FE00000000
FE00000000
FE00000000
FE00000000
FE00000000
FE00000000
FE00000000
FE00000000
FE00000000
FE00000000
FE00000000
FE00000000
FE00000000
FE00000000
FE00000000
FE00000000
FE00000000
FE00000000
FE00000000
FE00000000
FE00000000
FFFFFFFF80
FFFFFFFF80
FFFFFFFF80
FFFFFFFF80
FFFFFFFF80
FFFFFFFF80
FFFFFFFF80
0000000000
0000000000
0000000000
0007F00000
0003F00000
0003E00000
0001E00000
0001C00000
0001C00000
0000800000
0000800000
ENDCHAR
STARTCHAR lcommaaccent
ENCODING 316
SWIDTH 707 0
DWIDTH 37 0
BBX 33 50 3 -11
BITMAP
FE00000000
FE00000000
FE00000000
FE00000000
FE00000000
FE00000000
FE00000000
FE00000000
FE00000000
FE00000000
FE00000000
FE00000000
FE00000000
FE00000000
FE00000000
FE00000000
FE00000000
FE00000000
FE00000000
FE00000000
FE00000000
FE00000000
FE00000000
FE00000000
FE00000000
FE00000000
FE00000000
FE00000000
FE00000000
FE00000000
FE00000000
FE00000000
FFFFFFFF80
FFFFFFFF80
FFFFFFFF80
FFFFFFFF80
FFFFFFFF80
FFFFFFFF80
FFFFFFFF80
0000000000
0000000000
0000000000
0007F00000
0003F00000
0003E00000
0001E00000
0001C00000
0001C00000
0000800000
0000800000
ENDCHAR
STARTCHAR Lcaron
ENCODING 317
SWIDTH 707 0
DWIDTH 37 0
BBX 33 39 3 0
BITMAP
FE03F00000
FE03F00000
FE03F00000
FE03F00000
FE03E00000
FE03E00000
FE03E00000
FE03E00000
FE03E00000
FE03E00000
FE03C00000
FE03C00000
FE03C00000
FE03C00000
FE00000000
FE00000000
FE00000000
FE00000000
FE00000000
FE00000000
FE00000000
FE00000000
FE00000000
FE00000000
FE00000000
FE00000000
FE00000000
FE00000000
FE00000000
FE00000000
FE00000000
FE00000000
FFFFFFFF80
FFFFFFFF80
FFFFFFFF80
FFFFFFFF80
FFFFFFFF80
FFFFFFFF80
FFFFFFFF80
ENDCHAR
STARTCHAR lcaron
ENCODING 318
SWIDTH 707 0
DWIDTH 37 0
BBX 33 39 3 0
BITMAP
FE03F00000
FE03F00000
FE03F00000
FE03F00000
FE03E00000
FE03E00000
FE03E00000
FE03E00000
FE03E00000
FE03E00000
FE03C00000
FE03C00000
FE03C00000
FE03C00000
FE00000000
FE00000000
FE00000000
FE00000000
FE00000000
FE00000000
FE00000000
FE00000000
FE00000000
FE00000000
FE00000000
FE00000000
FE00000000
FE00000000
FE00000000
FE00000000
FE00000000
FE00000000
FFFFFFFF80
FFFFFFFF80
FFFFFFFF80
FFFFFFFF80
FFFFFFFF80
FFFFFFFF80
FFFFFFFF80
ENDCHAR
STARTCHAR Ldot
ENCODING 319
SWIDTH 707 0
DWIDTH 37 0
BBX 33 39 3 0
BITMAP
FE00000000
FE00000000
FE00000000
FE00000000
FE00000000
FE00000000
FE00000000
FE00000000
FE00000000
FE00000000
FE00000000
FE00000000
FE00000000
FE00000000
FE00000000
FE00000000
FE07000000
FE0F800000
FE0F800000
FE0F800000
FE07000000
FE00000000
FE00000000
FE00000000
FE00000000
FE00000000
FE00000000
FE00000000
FE00000000
FE00000000
FE00000000
FE00000000
FFFFFFFF80
FFFFFFFF80
FFFFFFFF80
FFFFFFFF80
FFFFFFFF80
FFFFFFFF80
FFFFFFFF80
ENDCHAR
STARTCHAR ldot
ENCODING 320
SWIDTH 707 0
DWIDTH 37 0
BBX 33 39 3 0
BITMAP
FE00000000
FE00000000
FE00000000
FE00000000
FE00000000
FE00000000
FE00000000
FE00000000
FE00000000
FE00000000
FE00000000
FE00000000
FE00000000
FE00000000
FE00000000
FE00000000
FE07000000
FE0F800000
FE0F800000
FE0F800000
FE07000000
FE00000000
FE00000000
FE00000000
FE00000000
FE00000000
FE00000000
FE00000000
FE00000000
FE00000000
FE00000000
FE00000000
FFFFFFFF80
FFFFFFFF80
FFFFFFFF80
FFFFFFFF80
FFFFFFFF80
FFFFFFFF80
FFFFFFFF80
ENDCHAR
STARTCHAR Lslash
ENCODING 321
SWIDTH 707 0
DWIDTH 37 0
BBX 33 39 3 0
BITMAP
FE00000000
FE00000000
FE00000000
FE00000000
FE00000000
FE00000000
FE00000000
FE00000000
FE00000000
FE00000000
FE00000000
FE000C0000
FE003C0000
FE00FC0000
FE03FC0000
FE1FFC0000
FE7FFC0000
FFFFF00000
FFFFC00000
FFFF000000
FFF8000000
FFE0000000
FF80000000
FE00000000
FE00000000
FE00000000
FE00000000
FE00000000
FE00000000
FE00000000
FE00000000
FE00000000
FFFFFFFF80
FFFFFFFF80
FFFFFFFF80
FFFFFFFF80
FFFFFFFF80
FFFFFFFF80
FFFFFFFF80
ENDCHAR
STARTCHAR lslash
ENCODING 322
SWIDTH 707 0
DWIDTH 37 0
BBX 33 39 3 0
BITMAP
FE00000000
FE00000000
FE00000000
FE00000000
FE00000000
FE00000000
FE00000000
FE00000000
FE00000000
FE00000000
FE00000000
FE000C0000
FE003C0000
FE00FC0000
FE03FC0000
FE1FFC0000
FE7FFC0000
FFFFF00000
FFFFC00000
FFFF000000
FFF8000000
FFE0000000
FF80000000
FE00000000
FE00000000
FE00000000
FE00000000
FE00000000
FE00000000
FE00000000
FE00000000
FE00000000
FFFFFFFF80
FFFFFFFF80
FFFFFFFF80
FFFFFFFF80
FFFFFFFF80
FFFFFFFF80
FFFFFFFF80
ENDCHAR
STARTCHAR Nacute
ENCODING 323
SWIDTH 873 0
DWIDTH 46 0
BBX 40 49 3 0
BITMAP
0000000800
0000007000
000003F000
00003FF000
0001FFF000
0001FF8000
0001F00000
0001000000
0000000000
0000000000
380000003F
7E0000003F
FF0000003F
FF8000003F
FFC000003F
FFE000003F
FFF000003F
FFF800003F
FFFC00003F
FFFE00003F
FFFF00003F
FFFF80003F
FEFFC0003F
FE7FE0003F
FE3FF0003F
FE1FF8003F
FE0FFC003F
FE07FE003F
FE03FF003F
FE01FF803F
FE00FFC03F
FE007FE03F
FE003FF03F
FE001FF83F
FE000FFC3F
FE0007FE3F
FE0003FF3F
FE0001FFBF
FE0000FFFF
FE00007FFF
FE00003FFF
FE00001FFF
FE00000FFF
FE000003FF
FE000001FF
FE000000FF
FE0000007F
FE0000003E
FE0000001E
ENDCHAR
STARTCHAR nacute
ENCODING 324
SWIDTH 873 0
DWIDTH 46 0
BBX 40 49 3 0
BITMAP
0000000800
0000007000
000003F000
00003FF000
0001FFF000
0001FF8000
0001F00000
0001000000
0000000000
0000000000
380000003F
7E0000003F
FF0000003F
FF8000003F
FFC000003F
FFE000003F
FFF000003F
FFF800003F
FFFC00003F
FFFE00003F
FFFF00003F
FFFF80003F
FEFFC0003F
FE7FE0003F
FE3FF0003F
FE1FF8003F
FE0FFC003F
FE07FE003F
FE03FF003F
FE01FF803F
FE00FFC03F
FE007FE03F
FE003FF03F
FE001FF83F
FE000FFC3F
FE0007FE3F
FE0003FF3F
FE0001FFBF
FE0000FFFF
FE00007FFF
FE00003FFF
FE00001FFF
FE00000FFF
FE000003FF
FE000001FF
FE000000FF
FE0000007F
FE0000003E
FE0000001E
ENDCHAR
STARTCHAR Ncommaaccent
ENCODING 325
SWIDTH 873 0
DWIDTH 46 0
BBX 40 50 3 -11
BITMAP
380000003F
7E0000003F
FF0000003F
FF8000003F
FFC000003F
FFE000003F
FFF000003F
FFF800003F
FFFC00003F
FFFE00003F
FFFF00003F
FFFF80003F
FEFFC0003F
FE7FE0003F
FE3FF0003F
FE1FF8003F
FE0FFC003F
FE07FE003F
FE03FF003F
FE01FF803F
FE00FFC03F
FE007FE03F
FE003FF03F
FE001FF83F
FE000FFC3F
FE0007FE3F
FE0003FF3F
FE0001FFBF
FE0000FFFF
FE00007FFF
FE00003FFF
FE00001FFF
FE00000FFF
FE000003FF
FE000001FF
FE000000FF
FE0000007F
FE0000003E
FE0000001E
0000000000
0000000000
0000000000
00007F0000
00007E0000
00003E0000
00003C0000
00001C0000
0000180000
0000180000
0000080000
ENDCHAR
STARTCHAR ncommaaccent
ENCODING 326
SWIDTH 873 0
DWIDTH 46 0
BBX 40 50 3 -11
BITMAP
380000003F
7E0000003F
FF0000003F
FF8000003F
FFC000003F
FFE000003F
FFF000003F
FFF800003F
FFFC00003F
FFFE00003F
FFFF00003F
FFFF80003F
FEFFC0003F
FE7FE0003F
FE3FF0003F
FE1FF8003F
FE0FFC003F
FE07FE003F
FE03FF003F
FE01FF803F
FE00FFC03F
FE007FE03F
FE003FF03F
FE001FF83F
FE000FFC3F
FE0007FE3F
FE0003FF3F
FE0001FFBF
FE0000FFFF
FE00007FFF
FE00003FFF
FE00001FFF
FE00000FFF
FE000003FF
FE000001FF
FE000000FF
FE0000007F
FE0000003E
FE0000001E
0000000000
0000000000
0000000000
00007F0000
00007E0000
00003E0000
00003C0000
00001C0000
0000180000
0000180000
0000080000
ENDCHAR
STARTCHAR Ncaron
ENCODING 327
SWIDTH 873 0
DWIDTH 46 0
BBX 40 48 3 0
BITMAP
000781E000
0003C1C000
0001C3C000
0001E78000
0000F70000
00007F0000
00007E0000
0000000000
0000000000
380000003F
7E0000003F
FF0000003F
FF8000003F
FFC000003F
FFE000003F
FFF000003F
FFF800003F
FFFC00003F
FFFE00003F
FFFF00003F
FFFF80003F
FEFFC0003F
FE7FE0003F
FE3FF0003F
FE1FF8003F
FE0FFC003F
FE07FE003F
FE03FF003F
FE01FF803F
FE00FFC03F
FE007FE03F
FE003FF03F
FE001FF83F
FE000FFC3F
FE0007FE3F
FE0003FF3F
FE0001FFBF
FE0000FFFF
FE00007FFF
FE00003FFF
FE00001FFF
FE00000FFF
FE000003FF
FE000001FF
FE000000FF
FE0000007F
FE0000003E
FE0000001E
ENDCHAR
STARTCHAR ncaron
ENCODING 328
SWIDTH 873 0
DWIDTH 46 0
BBX 40 48 3 0
BITMAP
000781E000
0003C1C000
0001C3C000
0001E78000
0000F70000
00007F0000
00007E0000
0000000000
0000000000
380000003F
7E0000003F
FF0000003F
FF8000003F
FFC000003F
FFE000003F
FFF000003F
FFF800003F
FFFC00003F
FFFE00003F
FFFF00003F
FFFF80003F
FEFFC0003F
FE7FE0003F
FE3FF0003F
FE1FF8003F
FE0FFC003F
FE07FE003F
FE03FF003F
FE01FF803F
FE00FFC03F
FE007FE03F
FE003FF03F
FE001FF83F
FE000FFC3F
FE0007FE3F
FE0003FF3F
FE0001FFBF
FE0000FFFF
FE00007FFF
FE00003FFF
FE00001FFF
FE00000FFF
FE000003FF
FE000001FF
FE000000FF
FE0000007F
FE0000003E
FE0000001E
ENDCHAR
STARTCHAR Eng
ENCODING 330
SWIDTH 873 0
DWIDTH 46 0
BBX 40 50 3 -11
BITMAP
380000003F
7E0000003F
FF0000003F
FF8000003F
FFC000003F
FFE000003F
FFF000003F
FFF800003F
FFFC00003F
FFFE00003F
FFFF00003F
FFFF80003F
FEFFC0003F
FE7FE0003F
FE3FF0003F
FE1FF8003F
FE0FFC003F
FE07FE003F
FE03FF003F
FE01FF803F
FE00FFC03F
FE007FE03F
FE003FF03F
FE001FF83F
FE000FFC3F
FE0007FE3F
FE0003FF3F
FE0001FFBF
FE0000FFFF
FE00007FFF
FE00003FFF
FE00001FFF
FE00000FFF
FE000007FF
FE000003FF
FE000001FF
FE000000FF
FE0000007F
FE000000FF
00000001FF
00000003FE
00000007FE
0000003FFC
0000FFFFFC
0000FFFFF8
0000FFFFF0
0000FFFFC0
0000FFFF00
0000FFFC00
0000FFC000
ENDCHAR
STARTCHAR eng
ENCODING 331
SWIDTH 873 0
DWIDTH 46 0
BBX 40 50 3 -11
BITMAP
380000003F
7E0000003F
FF0000003F
FF8000003F
FFC000003F
FFE000003F
FFF000003F
FFF800003F
FFFC00003F
FFFE00003F
FFFF00003F
FFFF80003F
FEFFC0003F
FE7FE0003F
FE3FF0003F
FE1FF8003F
FE0FFC003F
FE07FE003F
FE03FF003F
FE01FF803F
FE00FFC03F
FE007FE03F
FE003FF03F
FE001FF83F
FE000FFC3F
FE0007FE3F
FE0003FF3F
FE0001FFBF
FE0000FFFF
FE00007FFF
FE00003FFF
FE00001FFF
FE00000FFF
FE000007FF
FE000003FF
FE000001FF
FE000000FF
FE0000007F
FE000000FF
00000001FF
00000003FE
00000007FE
0000003FFC
0000FFFFFC
0000FFFFF8
0000FFFFF0
0000FFFFC0
0000FFFF00
0000FFFC00
0000FFC000
ENDCHAR
STARTCHAR Omacron
ENCODING 332
SWIDTH 968 0
DWIDTH 51 0
BBX 47 47 2 0
BITMAP
00007FFC0000
00007FFC0000
00007FFC0000
000000000000
000000000000
000000000000
000000000000
000000000000
0003FFFF8000
001FFFFFF000
007FFFFFFC00
00FFFFFFFF00
03FFFFFFFF80
07FFFFFFFFC0
0FFFFFFFFFE0
0FFE0000FFF0
1FF800001FF0
3FE000000FF8
3FC0000007F8
3F80000003FC
7F80000001FC
7F00000001FC
7F00000000FE
FE00000000FE
FE00000000FE
FE00000000FE
FE00000000FE
FE00000000FE
FE00000000FE
FE00000000FE
FE00000000FE
7F00000000FE
7F00000000FE
7F00000001FC
7F80000001FC
3F80000003FC
3FC0000007F8
1FE000000FF8
1FF800001FF0
0FFE0000FFE0
07FFFFFFFFE0
03FFFFFFFFC0
01FFFFFFFF80
00FFFFFFFE00
003FFFFFFC00
000FFFFFF000
0001FFFF8000
ENDCHAR
STARTCHAR omacron
ENCODING 333
SWIDTH 968 0
DWIDTH 51 0
BBX 47 47 2 0
BITMAP
00007FFC0000
00007FFC0000
00007FFC0000
000000000000
000000000000
000000000000
000000000000
000000000000
0003FFFF8000
001FFFFFF000
007FFFFFFC00
00FFFFFFFF00
03FFFFFFFF80
07FFFFFFFFC0
0FFFFFFFFFE0
0FFE0000FFF0
1FF800001FF0
3FE000000FF8
3FC0000007F8
3F80000003FC
7F80000001FC
7F00000001FC
7F00000000FE
FE00000000FE
FE00000000FE
FE00000000FE
FE00000000FE
FE00000000FE
FE00000000FE
FE00000000FE
FE00000000FE
7F00000000FE
7F00000000FE
7F00000001FC
7F80000001FC
3F80000003FC
3FC0000007F8
1FE000000FF8
1FF800001FF0
0FFE0000FFE0
07FFFFFFFFE0
03FFFFFFFFC0
01FFFFFFFF80
00FFFFFFFE00
003FFFFFFC00
000FFFFFF000
0001FFFF8000
ENDCHAR
STARTCHAR Obreve
ENCODING 334
SWIDTH 968 0
DWIDTH 51 0
BBX 47 48 2 0
BITMAP
0000F01E0000
0000701E0000
0000701E0000
0000783C0000
00003C3C0000
00001FF80000
00000FE00000
000000000000
000000000000
0003FFFF8000
001FFFFFF000
007FFFFFFC00
00FFFFFFFF00
03FFFFFFFF80
07FFFFFFFFC0
0FFFFFFFFFE0
0FFE0000FFF0
1FF800001FF0
3FE000000FF8
3FC0000007F8
3F80000003FC
7F80000001FC
7F00000001FC
7F00000000FE
FE00000000FE
FE00000000FE
FE00000000FE
FE00000000FE
FE00000000FE
FE00000000FE
FE00000000FE
FE00000000FE
7F00000000FE
7F00000000FE
7F00000001FC
7F80000001FC
3F80000003FC
3FC0000007F8
1FE000000FF8
1FF800001FF0
0FFE0000FFE0
07FFFFFFFFE0
03FFFFFFFFC0
01FFFFFFFF80
00FFFFFFFE00
003FFFFFFC00
000FFFFFF000
0001FFFF8000
ENDCHAR
STARTCHAR obreve
ENCODING 335
SWIDTH 968 0
DWIDTH 51 0
BBX 47 48 2 0
BITMAP
0000F01E0000
0000701E0000
0000701E0000
0000783C0000
00003C3C0000
00001FF80000
00000FE00000
000000000000
000000000000
0003FFFF8000
001FFFFFF000
007FFFFFFC00
00FFFFFFFF00
03FFFFFFFF80
07FFFFFFFFC0
0FFFFFFFFFE0
0FFE0000FFF0
1FF800001FF0
3FE000000FF8
3FC0000007F8
3F80000003FC
7F80000001FC
7F00000001FC
7F00000000FE
FE00000000FE
FE00000000FE
FE00000000FE
FE00000000FE
FE00000000FE
FE00000000FE
FE00000000FE
FE00000000FE
7F00000000FE
7F00000000FE
7F00000001FC
7F80000001FC
3F80000003FC
3FC0000007F8
1FE000000FF8
1FF800001FF0
0FFE0000FFE0
07FFFFFFFFE0
03FFFFFFFFC0
01FFFFFFFF80
00FFFFFFFE00
003FFFFFFC00
000FFFFFF000
0001FFFF8000
ENDCHAR
STARTCHAR Ohungarumlaut
ENCODING 336
SWIDTH 968 0
DWIDTH 51 0
BBX 47 49 2 0
BITMAP
00000F878000
00000F0F0000
00001E0F0000
00001E1E0000
00001C1E0000
0000381C0000
000038380000
000000000000
000000000000
000000000000
0003FFFF8000
001FFFFFF000
007FFFFFFC00
00FFFFFFFF00
03FFFFFFFF80
07FFFFFFFFC0
0FFFFFFFFFE0
0FFE0000FFF0
1FF800001FF0
3FE000000FF8
3FC0000007F8
3F80000003FC
7F80000001FC
7F00000001FC
7F00000000FE
FE00000000FE
FE00000000FE
FE00000000FE
FE00000000FE
FE00000000FE
FE00000000FE
FE00000000FE
FE00000000FE
7F00000000FE
7F00000000FE
7F00000001FC
7F80000001FC
3F80000003FC
3FC0000007F8
1FE000000FF8
1FF800001FF0
0FFE0000FFE0
07FFFFFFFFE0
03FFFFFFFFC0
01FFFFFFFF80
00FFFFFFFE00
003FFFFFFC00
000FFFFFF000
0001FFFF8000
ENDCHAR
STARTCHAR ohungarumlaut
ENCODING 337
SWIDTH 968 0
DWIDTH 51 0
BBX 47 49 2 0
BITMAP
00000F878000
00000F0F0000
00001E0F0000
00001E1E0000
00001C1E0000
0000381C0000
000038380000
000000000000
000000000000
000000000000
0003FFFF8000
001FFFFFF000
007FFFFFFC00
00FFFFFFFF00
03FFFFFFFF80
07FFFFFFFFC0
0FFFFFFFFFE0
0FFE0000FFF0
1FF800001FF0
3FE000000FF8
3FC0000007F8
3F80000003FC
7F80000001FC
7F00000001FC
7F00000000FE
FE00000000FE
FE00000000FE
FE00000000FE
FE00000000FE
FE00000000FE
FE00000000FE
FE00000000FE
FE00000000FE
7F00000000FE
7F00000000FE
7F00000001FC
7F80000001FC
3F80000003FC
3FC0000007F8
1FE000000FF8
1FF800001FF0
0FFE0000FFE0
07FFFFFFFFE0
03FFFFFFFFC0
01FFFFFFFF80
00FFFFFFFE00
003FFFFFFC00
000FFFFFF000
0001FFFF8000
ENDCHAR
STARTCHAR OE
ENCODING 338
SWIDTH 1304 0
DWIDTH 69 0
BBX 65 39 2 0
BITMAP
0003FFFFFFFFFFFF80
001FFFFFFFFFFFFF80
007FFFFFFFFFFFFF80
00FFFFFFFFFFFFFF80
03FFFFFFFFFFFFFF80
07FFFFFFFFFFFFFF80
0FFFFFFFFFFFFFFF80
0FFE0000FC00000000
1FF80000FC00000000
3FE00000FC00000000
3FC00000FC00000000
3F800000FC00000000
7F800000FC00000000
7F000000FC00000000
7F000000FC00000000
FE000000FC00000000
FE000000FC1FFFFE00
FE000000FC1FFFFE00
FE000000FC1FFFFE00
FE000000FC1FFFFE00
FE000000FC1FFFFE00
FE000000FC1FFFFE00
FE000000FC00000000
7F000000FC00000000
7F000000FC00000000
7F000000FC00000000
7F800000FC00000000
3F800000FC00000000
3FC00000FC00000000
1FE00000FC00000000
1FF80000FC00000000
0FFE0000FC00000000
07FFFFFFFFFFFFFF80
03FFFFFFFFFFFFFF80
01FFFFFFFFFFFFFF80
00FFFFFFFFFFFFFF80
003FFFFFFFFFFFFF80
000FFFFFFFFFFFFF80
0001FFFFFFFFFFFF80
ENDCHAR
STARTCHAR oe
ENCODING 339
SWIDTH 1304 0
DWIDTH 69 0
BBX 65 39 2 0
BITMAP
0003FFFFFFFFFFFF80
001FFFFFFFFFFFFF80
007FFFFFFFFFFFFF80
00FFFFFFFFFFFFFF80
03FFFFFFFFFFFFFF80
07FFFFFFFFFFFFFF80
0FFFFFFFFFFFFFFF80
0FFE0000FC00000000
1FF80000FC00000000
3FE00000FC00000000
3FC00000FC00000000
3F800000FC00000000
7F800000FC00000000
7F000000FC00000000
7F000000FC00000000
FE000000FC00000000
FE000000FC1FFFFE00
FE000000FC1FFFFE00
FE000000FC1FFFFE00
FE000000FC1FFFFE00
FE000000FC1FFFFE00
FE000000FC1FFFFE00
FE000000FC00000000
7F000000FC00000000
7F000000FC00000000
7F000000FC00000000
7F800000FC00000000
3F800000FC00000000
3FC00000FC00000000
1FE00000FC00000000
1FF80000FC00000000
0FFE0000FC00000000
07FFFFFFFFFFFFFF80
03FFFFFFFFFFFFFF80
01FFFFFFFFFFFFFF80
00FFFFFFFFFFFFFF80
003FFFFFFFFFFFFF80
000FFFFFFFFFFFFF80
0001FFFFFFFFFFFF80
ENDCHAR
STARTCHAR Racute
ENCODING 340
SWIDTH 921 0
DWIDTH 49 0
BBX 46 49 3 0
BITMAP
000000100000
000000F00000
000007F00000
00007FF00000
0003FFF00000
0003FF000000
0003E0000000
000200000000
000000000000
000000000000
FFFFFFFF0000
FFFFFFFFE000
FFFFFFFFF800
FFFFFFFFFC00
FFFFFFFFFE00
FFFFFFFFFF00
FFFFFFFFFF00
FE000000FF80
FE0000007F80
FE0000003F80
FE0000001FC0
FE0000001FC0
FE0000001FC0
FE0000001FC0
FE0000001FC0
FE0000001FC0
FE0000001FC0
FE0000001FC0
FE0000001F80
FE0000003F80
FE0000007F80
FE000001FF00
FE0FFFFFFF00
FE0FFFFFFE00
FE0FFFFFFC00
FE0FFFFFF800
FE0FFFFFE000
FE0FFFFFE000
FE00001FF000
FE00000FF800
FE000007F800
FE000007FC00
FE000003FE00
FE000001FF00
FE000000FF80
FE0000007FC0
FE0000003FE0
FE0000001FF0
FE0000000FFC
ENDCHAR
STARTCHAR racute
ENCODING 341
SWIDTH 921 0
DWIDTH 49 0
BBX 46 49 3 0
BITMAP
000000100000
000000F00000
000007F00000
00007FF00000
0003FFF00000
0003FF000000
0003E0000000
000200000000
000000000000
000000000000
FFFFFFFF0000
FFFFFFFFE000
FFFFFFFFF800
FFFFFFFFFC00
FFFFFFFFFE00
FFFFFFFFFF00
FFFFFFFFFF00
FE000000FF80
FE0000007F80
FE0000003F80
FE0000001FC0
FE0000001FC0
FE0000001FC0
FE0000001FC0
FE0000001FC0
FE0000001FC0
FE0000001FC0
FE0000001FC0
FE0000001F80
FE0000003F80
FE0000007F80
FE000001FF00
FE0FFFFFFF00
FE0FFFFFFE00
FE0FFFFFFC00
FE0FFFFFF800
FE0FFFFFE000
FE0FFFFFE000
FE00001FF000
FE00000FF800
FE000007F800
FE000007FC00
FE000003FE00
FE000001FF00
FE000000FF80
FE0000007FC0
FE0000003FE0
FE0000001FF0
FE0000000FFC
ENDCHAR
STARTCHAR Rcommaaccent
ENCODING 342
SWIDTH 921 0
DWIDTH 49 0
BBX 46 50 3 -11
BITMAP
FFFFFFFF0000
FFFFFFFFE000
FFFFFFFFF800
FFFFFFFFFC00
FFFFFFFFFE00
FFFFFFFFFF00
FFFFFFFFFF00
FE000000FF80
FE0000007F80
FE0000003F80
FE0000001FC0
FE0000001FC0
FE0000001FC0
FE0000001FC0
FE0000001FC0
FE0000001FC0
FE0000001FC0
FE0000001FC0
FE0000001F80
FE0000003F80
FE0000007F80
FE000001FF00
FE0FFFFFFF00
FE0FFFFFFE00
FE0FFFFFFC00
FE0FFFFFF800
FE0FFFFFE000
FE0FFFFFE000
FE00001FF000
FE00000FF800
FE000007F800
FE000007FC00
FE000003FE00
FE000001FF00
FE000000FF80
FE0000007FC0
FE0000003FE0
FE0000001FF0
FE0000000FFC
000000000000
000000000000
000000000000
00003F800000
00001F000000
00001F000000
00001E000000
00000E000000
00000E000000
000004000000
000004000000
ENDCHAR
STARTCHAR rcommaaccent
ENCODING 343
SWIDTH 921 0
DWIDTH 49 0
BBX 46 50 3 -11
BITMAP
FFFFFFFF0000
FFFFFFFFE000
FFFFFFFFF800
FFFFFFFFFC00
FFFFFFFFFE00
FFFFFFFFFF00
FFFFFFFFFF00
FE000000FF80
FE0000007F80
FE0000003F80
FE0000001FC0
FE0000001FC0
FE0000001FC0
FE0000001FC0
FE0000001FC0
FE0000001FC0
FE0000001FC0
FE0000001FC0
FE0000001F80
FE0000003F80
FE0000007F80
FE000001FF00
FE0FFFFFFF00
FE0FFFFFFE00
FE0FFFFFFC00
FE0FFFFFF800
FE0FFFFFE000
FE0FFFFFE000
FE00001FF000
FE00000FF800
FE000007F800
FE000007FC00
FE000003FE00
FE000001FF00
FE000000FF80
FE0000007FC0
FE0000003FE0
FE0000001FF0
FE0000000FFC
000000000000
000000000000
000000000000
00003F800000
00001F000000
00001F000000
00001E000000
00000E000000
00000E000000
000004000000
000004000000
ENDCHAR
STARTCHAR Rcaron
ENCODING 344
SWIDTH 921 0
DWIDTH 49 0
BBX 46 48 3 0
BITMAP
000F03E00000
000783C00000
000387800000
0003C7000000
0001EE000000
0000FE000000
0000FC000000
000000000000
000000000000
FFFFFFFF0000
FFFFFFFFE000
FFFFFFFFF800
FFFFFFFFFC00
FFFFFFFFFE00
FFFFFFFFFF00
FFFFFFFFFF00
FE000000FF80
FE0000007F80
FE0000003F80
FE0000001FC0
FE0000001FC0
FE0000001FC0
FE0000001FC0
FE0000001FC0
FE0000001FC0
FE0000001FC0
FE0000001FC0
FE0000001F80
FE0000003F80
FE0000007F80
FE000001FF00
FE0FFFFFFF00
FE0FFFFFFE00
FE0FFFFFFC00
FE0FFFFFF800
FE0FFFFFE000
FE0FFFFFE000
FE00001FF000
FE00000FF800
FE000007F800
FE000007FC00
FE000003FE00
FE000001FF00
FE000000FF80
FE0000007FC0
FE0000003FE0
FE0000001FF0
FE0000000FFC
ENDCHAR
STARTCHAR rcaron
ENCODING 345
SWIDTH 921 0
DWIDTH 49 0
BBX 46 48 3 0
BITMAP
000F03E00000
000783C00000
000387800000
0003C7000000
0001EE000000
0000FE000000
0000FC000000
000000000000
000000000000
FFFFFFFF0000
FFFFFFFFE000
FFFFFFFFF800
FFFFFFFFFC00
FFFFFFFFFE00
FFFFFFFFFF00
FFFFFFFFFF00
FE000000FF80
FE0000007F80
FE0000003F80
FE0000001FC0
FE0000001FC0
FE0000001FC0
FE0000001FC0
FE0000001FC0
FE0000001FC0
FE0000001FC0
FE0000001FC0
FE0000001F80
FE0000003F80
FE0000007F80
FE000001FF00
FE0FFFFFFF00
FE0FFFFFFE00
FE0FFFFFFC00
FE0FFFFFF800
FE0FFFFFE000
FE0FFFFFE000
FE00001FF000
FE00000FF800
FE000007F800
FE000007FC00
FE000003FE00
FE000001FF00
FE000000FF80
FE0000007FC0
FE0000003FE0
FE0000001FF0
FE0000000FFC
ENDCHAR
STARTCHAR Sacute
ENCODING 346
SWIDTH 880 0
DWIDTH 47 0
BBX 41 49 3 0
BITMAP
000000080000
000000780000
000003F80000
00001FF80000
0001FFF80000
0001FF800000
0001F0000000
000100000000
000000000000
000000000000
00FFFFFFFE00
07FFFFFFFE00
1FFFFFFFFE00
3FFFFFFFFE00
3FFFFFFFFE00
7FFFFFFFFE00
7FFFFFFFFE00
FF8000000000
FF0000000000
FE0000000000
FE0000000000
FE0000000000
FE0000000000
FE0000000000
FF0000000000
7F8000000000
7FFFFFFFC000
3FFFFFFFF000
1FFFFFFFFC00
0FFFFFFFFE00
07FFFFFFFF00
00FFFFFFFF00
00000000FF00
000000003F80
000000003F80
000000001F80
000000001F80
000000001F80
000000001F80
000000003F80
000000003F80
00000000FF80
FFFFFFFFFF00
FFFFFFFFFF00
FFFFFFFFFE00
FFFFFFFFFC00
FFFFFFFFF800
FFFFFFFFF000
FFFFFFFF8000
ENDCHAR
STARTCHAR sacute
ENCODING 347
SWIDTH 880 0
DWIDTH 47 0
BBX 41 49 3 0
BITMAP
000000080000
000000780000
000003F80000
00001FF80000
0001FFF80000
0001FF800000
0001F0000000
000100000000
000000000000
000000000000
00FFFFFFFE00
07FFFFFFFE00
1FFFFFFFFE00
3FFFFFFFFE00
3FFFFFFFFE00
7FFFFFFFFE00
7FFFFFFFFE00
FF8000000000
FF0000000000
FE0000000000
FE0000000000
FE0000000000
FE0000000000
FE0000000000
FF0000000000
7F8000000000
7FFFFFFFC000
3FFFFFFFF000
1FFFFFFFFC00
0FFFFFFFFE00
07FFFFFFFF00
00FFFFFFFF00
00000000FF00
000000003F80
000000003F80
000000001F80
000000001F80
000000001F80
000000001F80
000000003F80
000000003F80
00000000FF80
FFFFFFFFFF00
FFFFFFFFFF00
FFFFFFFFFE00
FFFFFFFFFC00
FFFFFFFFF800
FFFFFFFFF000
FFFFFFFF8000
ENDCHAR
STARTCHAR Scedilla
ENCODING 350
SWIDTH 880 0
DWIDTH 47 0
BBX 41 50 3 -11
BITMAP
00FFFFFFFE00
07FFFFFFFE00
1FFFFFFFFE00
3FFFFFFFFE00
3FFFFFFFFE00
7FFFFFFFFE00
7FFFFFFFFE00
FF8000000000
FF0000000000
FE0000000000
FE0000000000
FE0000000000
FE0000000000
FE0000000000
FF0000000000
7F8000000000
7FFFFFFFC000
3FFFFFFFF000
1FFFFFFFFC00
0FFFFFFFFE00
07FFFFFFFF00
00FFFFFFFF00
00000000FF00
000000003F80
000000003F80
000000001F80
000000001F80
000000001F80
000000001F80
000000003F80
000000003F80
00000000FF80
FFFFFFFFFF00
FFFFFFFFFF00
FFFFFFFFFE00
FFFFFFFFFC00
FFFFFFFFF800
FFFFFFFFF000
FFFFFFFF8000
000000000000
000000000000
000000000000
00007F000000
00007E000000
00003E000000
00003C000000
00001C000000
000018000000
000008000000
000008000000
ENDCHAR
STARTCHAR scedilla
ENCODING 351
SWIDTH 880 0
DWIDTH 47 0
BBX 41 50 3 -11
BITMAP
00FFFFFFFE00
07FFFFFFFE00
1FFFFFFFFE00
3FFFFFFFFE00
3FFFFFFFFE00
7FFFFFFFFE00
7FFFFFFFFE00
FF8000000000
FF0000000000
FE0000000000
FE0000000000
FE0000000000
FE0000000000
FE0000000000
FF0000000000
7F8000000000
7FFFFFFFC000
3FFFFFFFF000
1FFFFFFFFC00
0FFFFFFFFE00
07FFFFFFFF00
00FFFFFFFF00
00000000FF00
000000003F80
000000003F80
000000001F80
000000001F80
000000001F80
000000001F80
000000003F80
000000003F80
00000000FF80
FFFFFFFFFF00
FFFFFFFFFF00
FFFFFFFFFE00
FFFFFFFFFC00
FFFFFFFFF800
FFFFFFFFF000
FFFFFFFF8000
000000000000
000000000000
000000000000
00007F000000
00007E000000
00003E000000
00003C000000
00001C000000
000018000000
000008000000
000008000000
ENDCHAR
STARTCHAR Scaron
ENCODING 352
SWIDTH 880 0
DWIDTH 47 0
BBX 41 48 3 0
BITMAP
0003C0F00000
0001C1E00000
0001E1C00000
0000F3C00000
000077800000
00007F000000
00003F000000
000000000000
000000000000
00FFFFFFFE00
07FFFFFFFE00
1FFFFFFFFE00
3FFFFFFFFE00
3FFFFFFFFE00
7FFFFFFFFE00
7FFFFFFFFE00
FF8000000000
FF0000000000
FE0000000000
FE0000000000
FE0000000000
FE0000000000
FE0000000000
FF0000000000
7F8000000000
7FFFFFFFC000
3FFFFFFFF000
1FFFFFFFFC00
0FFFFFFFFE00
07FFFFFFFF00
00FFFFFFFF00
00000000FF00
000000003F80
000000003F80
000000001F80
000000001F80
000000001F80
000000001F80
000000003F80
000000003F80
00000000FF80
FFFFFFFFFF00
FFFFFFFFFF00
FFFFFFFFFE00
FFFFFFFFFC00
FFFFFFFFF800
FFFFFFFFF000
FFFFFFFF8000
ENDCHAR
STARTCHAR scaron
ENCODING 353
SWIDTH 880 0
DWIDTH 47 0
BBX 41 48 3 0
BITMAP
0003C0F00000
0001C1E00000
0001E1C00000
0000F3C00000
000077800000
00007F000000
00003F000000
000000000000
000000000000
00FFFFFFFE00
07FFFFFFFE00
1FFFFFFFFE00
3FFFFFFFFE00
3FFFFFFFFE00
7FFFFFFFFE00
7FFFFFFFFE00
FF8000000000
FF0000000000
FE0000000000
FE0000000000
FE0000000000
FE0000000000
FE0000000000
FF0000000000
7F8000000000
7FFFFFFFC000
3FFFFFFFF000
1FFFFFFFFC00
0FFFFFFFFE00
07FFFFFFFF00
00FFFFFFFF00
00000000FF00
000000003F80
000000003F80
000000001F80
000000001F80
000000001F80
000000001F80
000000003F80
000000003F80
00000000FF80
FFFFFFFFFF00
FFFFFFFFFF00
FFFFFFFFFE00
FFFFFFFFFC00
FFFFFFFFF800
FFFFFFFFF000
FFFFFFFF8000
ENDCHAR
STARTCHAR Tcommaaccent
ENCODING 354
SWIDTH 720 0
DWIDTH 38 0
BBX 36 50 1 -11
BITMAP
FFFFFFFFF0
FFFFFFFFF0
FFFFFFFFF0
FFFFFFFFF0
FFFFFFFFF0
FFFFFFFFF0
FFFFFFFFF0
0001F80000
0001F80000
0001F80000
0001F80000
0001F80000
0001F80000
0001F80000
0001F80000
0001F80000
0001F80000
0001F80000
0001F80000
0001F80000
0001F80000
0001F80000
0001F80000
0001F80000
0001F80000
0001F80000
0001F80000
0001F80000
0001F80000
0001F80000
0001F80000
0001F80000
0001F80000
0001F80000
0001F80000
0001F80000
0001F80000
0001F80000
0001F80000
0000000000
0000000000
0000000000
0001FC0000
0001F80000
0000F80000
0000F00000
0000F00000
0000600000
0000600000
0000200000
ENDCHAR
STARTCHAR tcommaaccent
ENCODING 355
SWIDTH 720 0
DWIDTH 38 0
BBX 36 50 1 -11
BITMAP
FFFFFFFFF0
FFFFFFFFF0
FFFFFFFFF0
FFFFFFFFF0
FFFFFFFFF0
FFFFFFFFF0
FFFFFFFFF0
0001F80000
0001F80000
0001F80000
0001F80000
0001F80000
0001F80000
0001F80000
0001F80000
0001F80000
0001F80000
0001F80000
0001F80000
0001F80000
0001F80000
0001F80000
0001F80000
0001F80000
0001F80000
0001F80000
0001F80000
0001F80000
0001F80000
0001F80000
0001F80000
0001F80000
0001F80000
0001F80000
0001F80000
0001F80000
0001F80000
0001F80000
0001F80000
0000000000
0000000000
0000000000
0001FC0000
0001F80000
0000F80000
0000F00000
0000F00000
0000600000
0000600000
0000200000
ENDCHAR
STARTCHAR Tcaron
ENCODING 356
SWIDTH 720 0
DWIDTH 38 0
BBX 36 48 1 0
BITMAP
001E078000
000E070000
00070F0000
00079E0000
00039C0000
0001F80000
0001F80000
0000000000
0000000000
FFFFFFFFF0
FFFFFFFFF0
FFFFFFFFF0
FFFFFFFFF0
FFFFFFFFF0
FFFFFFFFF0
FFFFFFFFF0
0001F80000
0001F80000
0001F80000
0001F80000
0001F80000
0001F80000
0001F80000
0001F80000
0001F80000
0001F80000
0001F80000
0001F80000
0001F80000
0001F80000
0001F80000
0001F80000
0001F80000
0001F80000
0001F80000
0001F80000
0001F80000
0001F80000
0001F80000
0001F80000
0001F80000
0001F80000
0001F80000
0001F80000
0001F80000
0001F80000
0001F80000
0001F80000
ENDCHAR
STARTCHAR tcaron
ENCODING 357
SWIDTH 720 0
DWIDTH 38 0
BBX 36 48 1 0
BITMAP
001E078000
000E070000
00070F0000
00079E0000
00039C0000
0001F80000
0001F80000
0000000000
0000000000
FFFFFFFFF0
FFFFFFFFF0
FFFFFFFFF0
FFFFFFFFF0
FFFFFFFFF0
FFFFFFFFF0
FFFFFFFFF0
0001F80000
0001F80000
0001F80000
0001F80000
0001F80000
0001F80000
0001F80000
0001F80000
0001F80000
0001F80000
0001F80000
0001F80000
0001F80000
0001F80000
0001F80000
0001F80000
0001F80000
0001F80000
0001F80000
0001F80000
0001F80000
0001F80000
0001F80000
0001F80000
0001F80000
0001F80000
0001F80000
0001F80000
0001F80000
0001F80000
0001F80000
0001F80000
ENDCHAR
STARTCHAR Tbar
ENCODING 358
SWIDTH 720 0
DWIDTH 38 0
BBX 36 39 1 0
BITMAP
FFFFFFFFF0
FFFFFFFFF0
FFFFFFFFF0
FFFFFFFFF0
FFFFFFFFF0
FFFFFFFFF0
FFFFFFFFF0
0001F80000
0001F80000
0001F80000
0001F80000
0001F80000
0001F80000
0001F80000
0001F80000
0001F80000
0001F80000
0001F80000
0001F80000
0001F80000
0001F80000
007FFFF000
007FFFF000
007FFFF000
007FFFF000
007FFFF000
0001F80000
0001F80000
0001F80000
0001F80000
0001F80000
0001F80000
0001F80000
0001F80000
0001F80000
0001F80000
0001F80000
0001F80000
0001F80000
ENDCHAR
STARTCHAR tbar
ENCODING 359
SWIDTH 720 0
DWIDTH 38 0
BBX 36 39 1 0
BITMAP
FFFFFFFFF0
FFFFFFFFF0
FFFFFFFFF0
FFFFFFFFF0
FFFFFFFFF0
FFFFFFFFF0
FFFFFFFFF0
0001F80000
0001F80000
0001F80000
0001F80000
0001F80000
0001F80000
0001F80000
0001F80000
0001F80000
0001F80000
0001F80000
0001F80000
0001F80000
0001F80000
007FFFF000
007FFFF000
007FFFF000
007FFFF000
007FFFF000
0001F80000
0001F80000
0001F80000
0001F80000
0001F80000
0001F80000
0001F80000
0001F80000
0001F80000
0001F80000
0001F80000
0001F80000
0001F80000
ENDCHAR
STARTCHAR Utilde
ENCODING 360
SWIDTH 889 0
DWIDTH 47 0
BBX 41 49 3 -1
BITMAP
0001E0100000
0003F8200000
0003FFE00000
00020FE00000
000403C00000
000000000000
000000000000
000000000000
000000000000
FE0000001F80
FE0000001F80
FE0000001F80
FE0000001F80
FE0000001F80
FE0000001F80
FE0000001F80
FE0000001F80
FE0000001F80
FE0000001F80
FE0000001F80
FE0000001F80
FE0000001F80
FE0000001F80
FE0000001F80
FE0000001F80
FE0000001F80
FE0000001F80
FE0000001F80
FE0000001F80
FE0000001F80
FE0000001F80
FE0000001F80
FE0000001F80
FE0000001F80
FE0000003F80
FE0000003F80
FF0000003F80
FF0000007F80
7F8000007F00
7FC00000FF00
3FE00003FF00
3FFE001FFE00
1FFFFFFFFC00
0FFFFFFFFC00
07FFFFFFF000
03FFFFFFE000
00FFFFFF8000
003FFFFE0000
0001FFC00000
ENDCHAR
STARTCHAR utilde
ENCODING 361
SWIDTH 889 0
DWIDTH 47 0
BBX 41 49 3 -1
BITMAP
0001E0100000
0003F8200000
0003FFE00000
00020FE00000
000403C00000
000000000000
000000000000
000000000000
000000000000
FE0000001F80
FE0000001F80
FE0000001F80
FE0000001F80
FE0000001F80
FE0000001F80
FE0000001F80
FE0000001F80
FE0000001F80
FE0000001F80
FE0000001F80
FE0000001F80
FE0000001F80
FE0000001F80
FE0000001F80
FE0000001F80
FE0000001F80
FE0000001F80
FE0000001F80
FE0000001F80
FE0000001F80
FE0000001F80
FE0000001F80
FE0000001F80
FE0000001F80
FE0000003F80
FE0000003F80
FF0000003F80
FF0000007F80
7F8000007F00
7FC00000FF00
3FE00003FF00
3FFE001FFE00
1FFFFFFFFC00
0FFFFFFFFC00
07FFFFFFF000
03FFFFFFE000
00FFFFFF8000
003FFFFE0000
0001FFC00000
ENDCHAR
STARTCHAR Umacron
ENCODING 362
SWIDTH 889 0
DWIDTH 47 0
BBX 41 48 3 -1
BITMAP
0003FFE00000
0003FFE00000
0003FFE00000
000000000000
000000000000
000000000000
000000000000
000000000000
FE0000001F80
FE0000001F80
FE0000001F80
FE0000001F80
FE0000001F80
FE0000001F80
FE0000001F80
FE0000001F80
FE0000001F80
FE0000001F80
FE0000001F80
FE0000001F80
FE0000001F80
FE0000001F80
FE0000001F80
FE0000001F80
FE0000001F80
FE0000001F80
FE0000001F80
FE0000001F80
FE0000001F80
FE0000001F80
FE0000001F80
FE0000001F80
FE0000001F80
FE0000003F80
FE0000003F80
FF0000003F80
FF0000007F80
7F8000007F00
7FC00000FF00
3FE00003FF00
3FFE001FFE00
1FFFFFFFFC00
0FFFFFFFFC00
07FFFFFFF000
03FFFFFFE000
00FFFFFF8000
003FFFFE0000
0001FFC00000
ENDCHAR
STARTCHAR umacron
ENCODING 363
SWIDTH 889 0
DWIDTH 47 0
BBX 41 48 3 -1
BITMAP
0003FFE00000
0003FFE00000
0003FFE00000
000000000000
000000000000
000000000000
000000000000
000000000000
FE0000001F80
FE0000001F80
FE0000001F80
FE0000001F80
FE0000001F80
FE0000001F80
FE0000001F80
FE0000001F80
FE0000001F80
FE0000001F80
FE0000001F80
FE0000001F80
FE0000001F80
FE0000001F80
FE0000001F80
FE0000001F80
FE0000001F80
FE0000001F80
FE0000001F80
FE0000001F80
FE0000001F80
FE0000001F80
FE0000001F80
FE0000001F80
FE0000001F80
FE0000003F80
FE0000003F80
FF0000003F80
FF0000007F80
7F8000007F00
7FC00000FF00
3FE00003FF00
3FFE001FFE00
1FFFFFFFFC00
0FFFFFFFFC00
07FFFFFFF000
03FFFFFFE000
00FFFFFF8000
003FFFFE0000
0001FFC00000
ENDCHAR
STARTCHAR Ubreve
ENCODING 364
SWIDTH 889 0
DWIDTH 47 0
BBX 41 49 3 -1
BITMAP
000780F00000
000780F00000
000380E00000
0003C1E00000
0001E3C00000
0001FFC00000
00007F000000
000000000000
000000000000
FE0000001F80
FE0000001F80
FE0000001F80
FE0000001F80
FE0000001F80
FE0000001F80
FE0000001F80
FE0000001F80
FE0000001F80
FE0000001F80
FE0000001F80
FE0000001F80
FE0000001F80
FE0000001F80
FE0000001F80
FE0000001F80
FE0000001F80
FE0000001F80
FE0000001F80
FE0000001F80
FE0000001F80
FE0000001F80
FE0000001F80
FE0000001F80
FE0000001F80
FE0000003F80
FE0000003F80
FF0000003F80
FF0000007F80
7F8000007F00
7FC00000FF00
3FE00003FF00
3FFE001FFE00
1FFFFFFFFC00
0FFFFFFFFC00
07FFFFFFF000
03FFFFFFE000
00FFFFFF8000
003FFFFE0000
0001FFC00000
ENDCHAR
STARTCHAR ubreve
ENCODING 365
SWIDTH 889 0
DWIDTH 47 0
BBX 41 49 3 -1
BITMAP
000780F00000
000780F00000
000380E00000
0003C1E00000
0001E3C00000
0001FFC00000
00007F000000
000000000000
000000000000
FE0000001F80
FE0000001F80
FE0000001F80
FE0000001F80
FE0000001F80
FE0000001F80
FE0000001F80
FE0000001F80
FE0000001F80
FE0000001F80
FE0000001F80
FE0000001F80
FE0000001F80
FE0000001F80
FE0000001F80
FE0000001F80
FE0000001F80
FE0000001F80
FE0000001F80
FE0000001F80
FE0000001F80
FE0000001F80
FE0000001F80
FE0000001F80
FE0000001F80
FE0000003F80
FE0000003F80
FF0000003F80
FF0000007F80
7F8000007F00
7FC00000FF00
3FE00003FF00
3FFE001FFE00
1FFFFFFFFC00
0FFFFFFFFC00
07FFFFFFF000
03FFFFFFE000
00FFFFFF8000
003FFFFE0000
0001FFC00000
ENDCHAR
STARTCHAR Uring
ENCODING 366
SWIDTH 889 0
DWIDTH 47 0
BBX 41 53 3 -1
BITMAP
00007F000000
0001FFC00000
000380E00000
000300600000
000300600000
000300600000
000300600000
000300600000
000180C00000
0001FFC00000
00007F000000
000000000000
000000000000
FE0000001F80
FE0000001F80
FE0000001F80
FE0000001F80
FE0000001F80
FE0000001F80
FE0000001F80
FE0000001F80
FE0000001F80
FE0000001F80
FE0000001F80
FE0000001F80
FE0000001F80
FE0000001F80
FE0000001F80
FE0000001F80
FE0000001F80
FE0000001F80
FE0000001F80
FE0000001F80
FE0000001F80
FE0000001F80
FE0000001F80
FE0000001F80
FE0000001F80
FE0000003F80
FE0000003F80
FF0000003F80
FF0000007F80
7F8000007F00
7FC00000FF00
3FE00003FF00
3FFE001FFE00
1FFFFFFFFC00
0FFFFFFFFC00
07FFFFFFF000
03FFFFFFE000
00FFFFFF8000
003FFFFE0000
0001FFC00000
ENDCHAR
STARTCHAR uring
ENCODING 367
SWIDTH 889 0
DWIDTH 47 0
BBX 41 53 3 -1
BITMAP
00007F000000
0001FFC00000
000380E00000
000300600000
000300600000
000300600000
000300600000
000300600000
000180C00000
0001FFC00000
00007F000000
000000000000
000000000000
FE0000001F80
FE0000001F80
FE0000001F80
FE0000001F80
FE0000001F80
FE0000001F80
FE0000001F80
FE0000001F80
FE0000001F80
FE0000001F80
FE0000001F80
FE0000001F80
FE0000001F80
FE0000001F80
FE0000001F80
FE0000001F80
FE0000001F80
FE0000001F80
FE0000001F80
FE0000001F80
FE0000001F80
FE0000001F80
FE0000001F80
FE0000001F80
FE0000001F80
FE0000003F80
FE0000003F80
FF0000003F80
FF0000007F80
7F8000007F00
7FC00000FF00
3FE00003FF00
3FFE001FFE00
1FFFFFFFFC00
0FFFFFFFFC00
07FFFFFFF000
03FFFFFFE000
00FFFFFF8000
003FFFFE0000
0001FFC00000
ENDCHAR
STARTCHAR Uhungarumlaut
ENCODING 368
SWIDTH 889 0
DWIDTH 47 0
BBX 41 50 3 -1
BITMAP
00007C7C0000
000078780000
0000F0780000
0000F0F00000
0000E0E00000
0001C0E00000
0001C1C00000
000000000000
000000000000
000000000000
FE0000001F80
FE0000001F80
FE0000001F80
FE0000001F80
FE0000001F80
FE0000001F80
FE0000001F80
FE0000001F80
FE0000001F80
FE0000001F80
FE0000001F80
FE0000001F80
FE0000001F80
FE0000001F80
FE0000001F80
FE0000001F80
FE0000001F80
FE0000001F80
FE0000001F80
FE0000001F80
FE0000001F80
FE0000001F80
FE0000001F80
FE0000001F80
FE0000001F80
FE0000003F80
FE0000003F80
FF0000003F80
FF0000007F80
7F8000007F00
7FC00000FF00
3FE00003FF00
3FFE001FFE00
1FFFFFFFFC00
0FFFFFFFFC00
07FFFFFFF000
03FFFFFFE000
00FFFFFF8000
003FFFFE0000
0001FFC00000
ENDCHAR
STARTCHAR uhungarumlaut
ENCODING 369
SWIDTH 889 0
DWIDTH 47 0
BBX 41 50 3 -1
BITMAP
00007C7C0000
000078780000
0000F0780000
0000F0F00000
0000E0E00000
0001C0E00000
0001C1C00000
000000000000
000000000000
000000000000
FE0000001F80
FE0000001F80
FE0000001F80
FE0000001F80
FE0000001F80
FE0000001F80
FE0000001F80
FE0000001F80
FE0000001F80
FE0000001F80
FE0000001F80
FE0000001F80
FE0000001F80
FE0000001F80
FE0000001F80
FE0000001F80
FE0000001F80
FE0000001F80
FE0000001F80
FE0000001F80
FE0000001F80
FE0000001F80
FE0000001F80
FE0000001F80
FE0000001F80
FE0000003F80
FE0000003F80
FF0000003F80
FF0000007F80
7F8000007F00
7FC00000FF00
3FE00003FF00
3FFE001FFE00
1FFFFFFFFC00
0FFFFFFFFC00
07FFFFFFF000
03FFFFFFE000
00FFFFFF8000
003FFFFE0000
0001FFC00000
ENDCHAR
STARTCHAR Uogonek
ENCODING 370
SWIDTH 889 0
DWIDTH 47 0
BBX 41 50 3 -11
BITMAP
FE0000001F80
FE0000001F80
FE0000001F80
FE0000001F80
FE0000001F80
FE0000001F80
FE0000001F80
FE0000001F80
FE0000001F80
FE0000001F80
FE0000001F80
FE0000001F80
FE0000001F80
FE0000001F80
FE0000001F80
FE0000001F80
FE0000001F80
FE0000001F80
FE0000001F80
FE0000001F80
FE0000001F80
FE0000001F80
FE0000001F80
FE0000001F80
FE0000001F80
FE0000003F80
FE0000003F80
FF0000003F80
FF0000007F80
7F8000007F00
7FC00000FF00
3FE00003FF00
3FFE001FFE00
1FFFFFFFFC00
0FFFFFFFFC00
07FFFFFFF800
03FFFFFFF000
00FFFFFFC000
003FFFFF0000
0001FFF00000
000007000000
00001E000000
000038000000
0000F0000000
0000F0000000
0000F0000000
0000FFC00000
0000FFC00000
0000FFC00000
00003FC00000
ENDCHAR
STARTCHAR uogonek
ENCODING 371
SWIDTH 889 0
DWIDTH 47 0
BBX 41 50 3 -11
BITMAP
FE0000001F80
FE0000001F80
FE0000001F80
FE0000001F80
FE0000001F80
FE0000001F80
FE0000001F80
FE0000001F80
FE0000001F80
FE0000001F80
FE0000001F80
FE0000001F80
FE0000001F80
FE0000001F80
FE0000001F80
FE0000001F80
FE0000001F80
FE0000001F80
FE0000001F80
FE0000001F80
FE0000001F80
FE0000001F80
FE0000001F80
FE0000001F80
FE0000001F80
FE0000003F80
FE0000003F80
FF0000003F80
FF0000007F80
7F8000007F00
7FC00000FF00
3FE00003FF00
3FFE001FFE00
1FFFFFFFFC00
0FFFFFFFFC00
07FFFFFFF800
03FFFFFFF000
00FFFFFFC000
003FFFFF0000
0001FFF00000
000007000000
00001E000000
000038000000
0000F0000000
0000F0000000
0000F0000000
0000FFC00000
0000FFC00000
0000FFC00000
00003FC00000
ENDCHAR
STARTCHAR Wcircumflex
ENCODING 372
SWIDTH 1268 0
DWIDTH 67 0
BBX 65 50 1 -1
BITMAP
00000003E000000000
00000007F000000000
0000000F7800000000
0000000E3800000000
0000001E3C00000000
0000003C1E00000000
000000780F00000000
000000000000000000
000000000000000000
000000000000000000
FF001FF00000003F80
7F800FF00000007F80
7F800FF80000007F00
3FC007F8000000FF00
3FC007FC000000FE00
1FE003FC000001FE00
1FE003FC000001FC00
0FF001FE000003F800
0FF001FE000007F800
07F800FF000007F000
07F800FF00000FF000
03FC007F80000FE000
03FC007F80001FE000
01FE003FC0001FC000
01FE003FC0003FC000
00FF001FE0003F8000
00FF000FE0007F8000
007F800FF0007F0000
007F8007F000FF0000
003FC007F800FE0000
001FC007F801FE0000
001FE00FFC01FC0000
000FE00FFC03FC0000
000FF01FFE03F80000
0007F01FFE07F80000
0007F83FFF07F00000
0003F83FFF0FE00000
0003FC7F7F8FE00000
0001FCFF3F9FC00000
0001FEFE3FDFC00000
0000FFFC1FFF800000
0000FFFC1FFF800000
00007FF80FFF000000
00007FF80FFF000000
00003FF007FE000000
00003FF007FE000000
00001FE003FC000000
00001FE003FC000000
00000FC001F8000000
0000078000F0000000
ENDCHAR
STARTCHAR wcircumflex
ENCODING 373
SWIDTH 1268 0
DWIDTH 67 0
BBX 65 50 1 -1
BITMAP
00000003E000000000
00000007F000000000
0000000F7800000000
0000000E3800000000
0000001E3C00000000
0000003C1E00000000
000000780F00000000
000000000000000000
000000000000000000
000000000000000000
FF001FF00000003F80
7F800FF00000007F80
7F800FF80000007F00
3FC007F8000000FF00
3FC007FC000000FE00
1FE003FC000001FE00
1FE003FC000001FC00
0FF001FE000003F800
0FF001FE000007F800
07F800FF000007F000
07F800FF00000FF000
03FC007F80000FE000
03FC007F80001FE000
01FE003FC0001FC000
01FE003FC0003FC000
00FF001FE0003F8000
00FF000FE0007F8000
007F800FF0007F0000
007F8007F000FF0000
003FC007F800FE0000
001FC007F801FE0000
001FE00FFC01FC0000
000FE00FFC03FC0000
000FF01FFE03F80000
0007F01FFE07F80000
0007F83FFF07F00000
0003F83FFF0FE00000
0003FC7F7F8FE00000
0001FCFF3F9FC00000
0001FEFE3FDFC00000
0000FFFC1FFF800000
0000FFFC1FFF800000
00007FF80FFF000000
00007FF80FFF000000
00003FF007FE000000
00003FF007FE000000
00001FE003FC000000
00001FE003FC000000
00000FC001F8000000
0000078000F0000000
ENDCHAR
STARTCHAR Ycircumflex
ENCODING 374
SWIDTH 926 0
DWIDTH 49 0
BBX 47 49 1 0
BITMAP
000007C00000
00000FE00000
00000EF00000
00001E780000
00003C380000
0000383C0000
0000781E0000
000080000000
000000000000
000000000000
FF80000003FE
7FC0000003FC
3FE0000007F8
1FF000000FF0
1FF800001FF0
0FF800003FE0
07FC00007FC0
03FE0000FF80
01FF0000FF00
00FF8001FE00
007FC003FE00
007FC007FC00
003FE00FF800
001FF01FF000
000FF81FE000
0007FC3FC000
0003FE7F8000
0003FEFF8000
0001FFFF0000
0000FFFE0000
00007FFC0000
00003FF80000
00001FF00000
00000FE00000
00000FE00000
00000FE00000
00000FE00000
00000FE00000
00000FE00000
00000FE00000
00000FE00000
00000FE00000
00000FE00000
00000FE00000
00000FE00000
00000FE00000
00000FE00000
00000FE00000
00000FE00000
ENDCHAR
STARTCHAR ycircumflex
ENCODING 375
SWIDTH 926 0
DWIDTH 49 0
BBX 47 49 1 0
BITMAP
000007C00000
00000FE00000
00000EF00000
00001E780000
00003C380000
0000383C0000
0000781E0000
000080000000
000000000000
000000000000
FF80000003FE
7FC0000003FC
3FE0000007F8
1FF000000FF0
1FF800001FF0
0FF800003FE0
07FC00007FC0
03FE0000FF80
01FF0000FF00
00FF8001FE00
007FC003FE00
007FC007FC00
003FE00FF800
001FF01FF000
000FF81FE000
0007FC3FC000
0003FE7F8000
0003FEFF8000
0001FFFF0000
0000FFFE0000
00007FFC0000
00003FF80000
00001FF00000
00000FE00000
00000FE00000
00000FE00000
00000FE00000
00000FE00000
00000FE00000
00000FE00000
00000FE00000
00000FE00000
00000FE00000
00000FE00000
00000FE00000
00000FE00000
00000FE00000
00000FE00000
00000FE00000
ENDCHAR
STARTCHAR Ydieresis
ENCODING 376
SWIDTH 926 0
DWIDTH 49 0
BBX 47 48 1 0
BITMAP
0000781C0000
0000F83E0000
0000FC3E0000
0000F83E0000
0000701C0000
000000000000
000000000000
000000000000
000000000000
FF80000003FE
7FC0000003FC
3FE0000007F8
1FF000000FF0
1FF800001FF0
0FF800003FE0
07FC00007FC0
03FE0000FF80
01FF0000FF00
00FF8001FE00
007FC003FE00
007FC007FC00
003FE00FF800
001FF01FF000
000FF81FE000
0007FC3FC000
0003FE7F8000
0003FEFF8000
0001FFFF0000
0000FFFE0000
00007FFC0000
00003FF80000
00001FF00000
00000FE00000
00000FE00000
00000FE00000
00000FE00000
00000FE00000
00000FE00000
00000FE00000
00000FE00000
00000FE00000
00000FE00000
00000FE00000
00000FE00000
00000FE00000
00000FE00000
00000FE00000
00000FE00000
ENDCHAR
STARTCHAR Zacute
ENCODING 377
SWIDTH 802 0
DWIDTH 43 0
BBX 38 49 2 0
BITMAP
0000001000
000000F000
000007F000
00007FF000
0003FFF000
0003FF0000
0003E00000
0002000000
0000000000
0000000000
7FFFFFFFF0
7FFFFFFFFC
7FFFFFFFFC
7FFFFFFFFC
7FFFFFFFFC
7FFFFFFFF8
7FFFFFFFF8
0000003FF0
0000007FE0
000000FFC0
000001FF80
000003FF00
000007FE00
00000FFC00
00001FF800
00003FF000
00007FE000
00007FC000
0000FF8000
0001FF0000
0003FE0000
0007FC0000
000FF80000
001FF00000
003FE00000
007FC00000
00FF800000
01FF000000
03FE000000
07FC000000
0FF8000000
1FF0000000
3FFFFFFFFC
7FFFFFFFFC
FFFFFFFFFC
FFFFFFFFFC
FFFFFFFFFC
7FFFFFFFFC
3FFFFFFFFC
ENDCHAR
STARTCHAR zacute
ENCODING 378
SWIDTH 802 0
DWIDTH 43 0
BBX 38 49 2 0
BITMAP
0000001000
000000F000
000007F000
00007FF000
0003FFF000
0003FF0000
0003E00000
0002000000
0000000000
0000000000
7FFFFFFFF0
7FFFFFFFFC
7FFFFFFFFC
7FFFFFFFFC
7FFFFFFFFC
7FFFFFFFF8
7FFFFFFFF8
0000003FF0
0000007FE0
000000FFC0
000001FF80
000003FF00
000007FE00
00000FFC00
00001FF800
00003FF000
00007FE000
00007FC000
0000FF8000
0001FF0000
0003FE0000
0007FC0000
000FF80000
001FF00000
003FE00000
007FC00000
00FF800000
01FF000000
03FE000000
07FC000000
0FF8000000
1FF0000000
3FFFFFFFFC
7FFFFFFFFC
FFFFFFFFFC
FFFFFFFFFC
FFFFFFFFFC
7FFFFFFFFC
3FFFFFFFFC
ENDCHAR
STARTCHAR Zdotaccent
ENCODING 379
SWIDTH 802 0
DWIDTH 43 0
BBX 38 48 2 0
BITMAP
0000380000
00007C0000
00007C0000
00007C0000
0000380000
0000000000
0000000000
0000000000
0000000000
7FFFFFFFF0
7FFFFFFFFC
7FFFFFFFFC
7FFFFFFFFC
7FFFFFFFFC
7FFFFFFFF8
7FFFFFFFF8
0000003FF0
0000007FE0
000000FFC0
000001FF80
000003FF00
000007FE00
00000FFC00
00001FF800
00003FF000
00007FE000
00007FC000
0000FF8000
0001FF0000
0003FE0000
0007FC0000
000FF80000
001FF00000
003FE00000
007FC00000
00FF800000
01FF000000
03FE000000
07FC000000
0FF8000000
1FF0000000
3FFFFFFFFC
7FFFFFFFFC
FFFFFFFFFC
FFFFFFFFFC
FFFFFFFFFC
7FFFFFFFFC
3FFFFFFFFC
ENDCHAR
STARTCHAR zdotaccent
ENCODING 380
SWIDTH 802 0
DWIDTH 43 0
BBX 38 48 2 0
BITMAP
0000380000
00007C0000
00007C0000
00007C0000
0000380000
0000000000
0000000000
0000000000
0000000000
7FFFFFFFF0
7FFFFFFFFC
7FFFFFFFFC
7FFFFFFFFC
7FFFFFFFFC
7FFFFFFFF8
7FFFFFFFF8
0000003FF0
0000007FE0
000000FFC0
000001FF80
000003FF00
000007FE00
00000FFC00
00001FF800
00003FF000
00007FE000
00007FC000
0000FF8000
0001FF0000
0003FE0000
0007FC0000
000FF80000
001FF00000
003FE00000
007FC00000
00FF800000
01FF000000
03FE000000
07FC000000
0FF8000000
1FF0000000
3FFFFFFFFC
7FFFFFFFFC
FFFFFFFFFC
FFFFFFFFFC
FFFFFFFFFC
7FFFFFFFFC
3FFFFFFFFC
ENDCHAR
STARTCHAR Zcaron
ENCODING 381
SWIDTH 802 0
DWIDTH 43 0
BBX 38 48 2 0
BITMAP
001E03C000
000F078000
0007870000
00038F0000
0001DE0000
0001FC0000
0000F80000
0000000000
0000000000
7FFFFFFFF0
7FFFFFFFFC
7FFFFFFFFC
7FFFFFFFFC
7FFFFFFFFC
7FFFFFFFF8
7FFFFFFFF8
0000003FF0
0000007FE0
000000FFC0
000001FF80
000003FF00
000007FE00
00000FFC00
00001FF800
00003FF000
00007FE000
00007FC000
0000FF8000
0001FF0000
0003FE0000
0007FC0000
000FF80000
001FF00000
003FE00000
007FC00000
00FF800000
01FF000000
03FE000000
07FC000000
0FF8000000
1FF0000000
3FFFFFFFFC
7FFFFFFFFC
FFFFFFFFFC
FFFFFFFFFC
FFFFFFFFFC
7FFFFFFFFC
3FFFFFFFFC
ENDCHAR
STARTCHAR zcaron
ENCODING 382
SWIDTH 802 0
DWIDTH 43 0
BBX 38 48 2 0
BITMAP
001E03C000
000F078000
0007870000
00038F0000
0001DE0000
0001FC0000
0000F80000
0000000000
0000000000
7FFFFFFFF0
7FFFFFFFFC
7FFFFFFFFC
7FFFFFFFFC
7FFFFFFFFC
7FFFFFFFF8
7FFFFFFFF8
0000003FF0
0000007FE0
000000FFC0
000001FF80
000003FF00
000007FE00
00000FFC00
00001FF800
00003FF000
00007FE000
00007FC000
0000FF8000
0001FF0000
0003FE0000
0007FC0000
000FF80000
001FF00000
003FE00000
007FC00000
00FF800000
01FF000000
03FE000000
07FC000000
0FF8000000
1FF0000000
3FFFFFFFFC
7FFFFFFFFC
FFFFFFFFFC
FFFFFFFFFC
FFFFFFFFFC
7FFFFFFFFC
3FFFFFFFFC
ENDCHAR
STARTCHAR Scommaaccent
ENCODING 536
SWIDTH 880 0
DWIDTH 47 0
BBX 41 50 3 -11
BITMAP
00FFFFFFFE00
07FFFFFFFE00
1FFFFFFFFE00
3FFFFFFFFE00
3FFFFFFFFE00
7FFFFFFFFE00
7FFFFFFFFE00
FF8000000000
FF0000000000
FE0000000000
FE0000000000
FE0000000000
FE0000000000
FE0000000000
FF0000000000
7F8000000000
7FFFFFFFC000
3FFFFFFFF000
1FFFFFFFFC00
0FFFFFFFFE00
07FFFFFFFF00
00FFFFFFFF00
00000000FF00
000000003F80
000000003F80
000000001F80
000000001F80
000000001F80
000000001F80
000000003F80
000000003F80
00000000FF80
FFFFFFFFFF00
FFFFFFFFFF00
FFFFFFFFFE00
FFFFFFFFFC00
FFFFFFFFF800
FFFFFFFFF000
FFFFFFFF8000
000000000000
000000000000
000000000000
00007F000000
00007E000000
00003E000000
00003C000000
00001C000000
000018000000
000008000000
000008000000
ENDCHAR
STARTCHAR scommaaccent
ENCODING 537
SWIDTH 880 0
DWIDTH 47 0
BBX 41 50 3 -11
BITMAP
00FFFFFFFE00
07FFFFFFFE00
1FFFFFFFFE00
3FFFFFFFFE00
3FFFFFFFFE00
7FFFFFFFFE00
7FFFFFFFFE00
FF8000000000
FF0000000000
FE0000000000
FE0000000000
FE0000000000
FE0000000000
FE0000000000
FF0000000000
7F8000000000
7FFFFFFFC000
3FFFFFFFF000
1FFFFFFFFC00
0FFFFFFFFE00
07FFFFFFFF00
00FFFFFFFF00
00000000FF00
000000003F80
000000003F80
000000001F80
000000001F80
000000001F80
000000001F80
000000003F80
000000003F80
00000000FF80
FFFFFFFFFF00
FFFFFFFFFF00
FFFFFFFFFE00
FFFFFFFFFC00
FFFFFFFFF800
FFFFFFFFF000
FFFFFFFF8000
000000000000
000000000000
000000000000
00007F000000
00007E000000
00003E000000
00003C000000
00001C000000
000018000000
000008000000
000008000000
ENDCHAR
STARTCHAR uni021A
ENCODING 538
SWIDTH 720 0
DWIDTH 38 0
BBX 36 50 1 -11
BITMAP
FFFFFFFFF0
FFFFFFFFF0
FFFFFFFFF0
FFFFFFFFF0
FFFFFFFFF0
FFFFFFFFF0
FFFFFFFFF0
0001F80000
0001F80000
0001F80000
0001F80000
0001F80000
0001F80000
0001F80000
0001F80000
0001F80000
0001F80000
0001F80000
0001F80000
0001F80000
0001F80000
0001F80000
0001F80000
0001F80000
0001F80000
0001F80000
0001F80000
0001F80000
0001F80000
0001F80000
0001F80000
0001F80000
0001F80000
0001F80000
0001F80000
0001F80000
0001F80000
0001F80000
0001F80000
0000000000
0000000000
0000000000
0001FC0000
0001F80000
0000F80000
0000F00000
0000F00000
0000600000
0000600000
0000200000
ENDCHAR
STARTCHAR uni021B
ENCODING 539
SWIDTH 720 0
DWIDTH 38 0
BBX 36 50 1 -11
BITMAP
FFFFFFFFF0
FFFFFFFFF0
FFFFFFFFF0
FFFFFFFFF0
FFFFFFFFF0
FFFFFFFFF0
FFFFFFFFF0
0001F80000
0001F80000
0001F80000
0001F80000
0001F80000
0001F80000
0001F80000
0001F80000
0001F80000
0001F80000
0001F80000
0001F80000
0001F80000
0001F80000
0001F80000
0001F80000
0001F80000
0001F80000
0001F80000
0001F80000
0001F80000
0001F80000
0001F80000
0001F80000
0001F80000
0001F80000
0001F80000
0001F80000
0001F80000
0001F80000
0001F80000
0001F80000
0000000000
0000000000
0000000000
0001FC0000
0001F80000
0000F80000
0000F00000
0000F00000
0000600000
0000600000
0000200000
ENDCHAR
STARTCHAR circumflex
ENCODING 710
SWIDTH 379 0
DWIDTH 20 0
BBX 14 7 3 42
BITMAP
0FC0
0FC0
1CE0
3CF0
3878
7038
F03C
ENDCHAR
STARTCHAR caron
ENCODING 711
SWIDTH 379 0
DWIDTH 20 0
BBX 14 7 3 41
BITMAP
F03C
7038
3878
3CF0
1CE0
0FC0
0FC0
ENDCHAR
STARTCHAR breve
ENCODING 728
SWIDTH 382 0
DWIDTH 20 0
BBX 14 7 3 41
BITMAP
E01C
F01C
F03C
703C
7878
3FF0
1FE0
ENDCHAR
STARTCHAR dotaccent
ENCODING 729
SWIDTH 208 0
DWIDTH 11 0
BBX 5 5 3 43
BITMAP
70
F8
F8
F8
70
ENDCHAR
STARTCHAR ring
ENCODING 730
SWIDTH 362 0
DWIDTH 19 0
BBX 13 11 3 41
BITMAP
1FC0
7FF0
6038
C018
C018
C018
C018
C018
6038
7FF0
1FC0
ENDCHAR
STARTCHAR ogonek
ENCODING 731
SWIDTH 234 0
DWIDTH 12 0
BBX 10 11 1 -11
BITMAP
03C0
0700
1E00
3800
7000
F000
F000
FFC0
FFC0
7FC0
3FC0
ENDCHAR
STARTCHAR tilde
ENCODING 732
SWIDTH 362 0
DWIDTH 19 0
BBX 13 5 3 43
BITMAP
7808
FE08
FFF8
83F8
80F0
ENDCHAR
STARTCHAR hungarumlaut
ENCODING 733
SWIDTH 399 0
DWIDTH 21 0
BBX 15 7 3 42
BITMAP
3E1E
3C3E
783C
7838
7078
F070
E0E0
ENDCHAR
STARTCHAR commaaccent
ENCODING 806
SWIDTH 219 0
DWIDTH 12 0
BBX 7 8 2 -11
BITMAP
FE
7E
7C
3C
38
18
18
10
ENDCHAR
STARTCHAR Wgrave
ENCODING 7808
SWIDTH 1268 0
DWIDTH 67 0
BBX 65 50 1 -1
BITMAP
000000800000000000
000000F00000000000
000000FE0000000000
000000FFC000000000
000000FFFC00000000
0000000FFC00000000
000000007C00000000
000000000400000000
000000000000000000
000000000000000000
FF001FF00000003F80
7F800FF00000007F80
7F800FF80000007F00
3FC007F8000000FF00
3FC007FC000000FE00
1FE003FC000001FE00
1FE003FC000001FC00
0FF001FE000003F800
0FF001FE000007F800
07F800FF000007F000
07F800FF00000FF000
03FC007F80000FE000
03FC007F80001FE000
01FE003FC0001FC000
01FE003FC0003FC000
00FF001FE0003F8000
00FF000FE0007F8000
007F800FF0007F0000
007F8007F000FF0000
003FC007F800FE0000
001FC007F801FE0000
001FE00FFC01FC0000
000FE00FFC03FC0000
000FF01FFE03F80000
0007F01FFE07F80000
0007F83FFF07F00000
0003F83FFF0FE00000
0003FC7F7F8FE00000
0001FCFF3F9FC00000
0001FEFE3FDFC00000
0000FFFC1FFF800000
0000FFFC1FFF800000
00007FF80FFF000000
00007FF80FFF000000
00003FF007FE000000
00003FF007FE000000
00001FE003FC000000
00001FE003FC000000
00000FC001F8000000
0000078000F0000000
ENDCHAR
STARTCHAR wgrave
ENCODING 7809
SWIDTH 1268 0
DWIDTH 67 0
BBX 65 50 1 -1
BITMAP
000000800000000000
000000F00000000000
000000FE0000000000
000000FFC000000000
000000FFFC00000000
0000000FFC00000000
000000007C00000000
000000000400000000
000000000000000000
000000000000000000
FF001FF00000003F80
7F800FF00000007F80
7F800FF80000007F00
3FC007F8000000FF00
3FC007FC000000FE00
1FE003FC000001FE00
1FE003FC000001FC00
0FF001FE000003F800
0FF001FE000007F800
07F800FF000007F000
07F800FF00000FF000
03FC007F80000FE000
03FC007F80001FE000
01FE003FC0001FC000
01FE003FC0003FC000
00FF001FE0003F8000
00FF000FE0007F8000
007F800FF0007F0000
007F8007F000FF0000
003FC007F800FE0000
001FC007F801FE0000
001FE00FFC01FC0000
000FE00FFC03FC0000
000FF01FFE03F80000
0007F01FFE07F80000
0007F83FFF07F00000
0003F83FFF0FE00000
0003FC7F7F8FE00000
0001FCFF3F9FC00000
0001FEFE3FDFC00000
0000FFFC1FFF800000
0000FFFC1FFF800000
00007FF80FFF000000
00007FF80FFF000000
00003FF007FE000000
00003FF007FE000000
00001FE003FC000000
00001FE003FC000000
00000FC001F8000000
0000078000F0000000
ENDCHAR
STARTCHAR Wacute
ENCODING 7810
SWIDTH 1268 0
DWIDTH 67 0
BBX 65 50 1 -1
BITMAP
000000000080000000
000000000780000000
000000003F80000000
00000001FF80000000
0000001FFF80000000
0000001FF800000000
0000001F0000000000
000000100000000000
000000000000000000
000000000000000000
FF001FF00000003F80
7F800FF00000007F80
7F800FF80000007F00
3FC007F8000000FF00
3FC007FC000000FE00
1FE003FC000001FE00
1FE003FC000001FC00
0FF001FE000003F800
0FF001FE000007F800
07F800FF000007F000
07F800FF00000FF000
03FC007F80000FE000
03FC007F80001FE000
01FE003FC0001FC000
01FE003FC0003FC000
00FF001FE0003F8000
00FF000FE0007F8000
007F800FF0007F0000
007F8007F000FF0000
003FC007F800FE0000
001FC007F801FE0000
001FE00FFC01FC0000
000FE00FFC03FC0000
000FF01FFE03F80000
0007F01FFE07F80000
0007F83FFF07F00000
0003F83FFF0FE00000
0003FC7F7F8FE00000
0001FCFF3F9FC00000
0001FEFE3FDFC00000
0000FFFC1FFF800000
0000FFFC1FFF800000
00007FF80FFF000000
00007FF80FFF000000
00003FF007FE000000
00003FF007FE000000
00001FE003FC000000
00001FE003FC000000
00000FC001F8000000
0000078000F0000000
ENDCHAR
STARTCHAR wacute
ENCODING 7811
SWIDTH 1268 0
DWIDTH 67 0
BBX 65 50 1 -1
BITMAP
000000000080000000
000000000780000000
000000003F80000000
00000001FF80000000
0000001FFF80000000
0000001FF800000000
0000001F0000000000
000000100000000000
000000000000000000
000000000000000000
FF001FF00000003F80
7F800FF00000007F80
7F800FF80000007F00
3FC007F8000000FF00
3FC007FC000000FE00
1FE003FC000001FE00
1FE003FC000001FC00
0FF001FE000003F800
0FF001FE000007F800
07F800FF000007F000
07F800FF00000FF000
03FC007F80000FE000
03FC007F80001FE000
01FE003FC0001FC000
01FE003FC0003FC000
00FF001FE0003F8000
00FF000FE0007F8000
007F800FF0007F0000
007F8007F000FF0000
003FC007F800FE0000
001FC007F801FE0000
001FE00FFC01FC0000
000FE00FFC03FC0000
000FF01FFE03F80000
0007F01FFE07F80000
0007F83FFF07F00000
0003F83FFF0FE00000
0003FC7F7F8FE00000
0001FCFF3F9FC00000
0001FEFE3FDFC00000
0000FFFC1FFF800000
0000FFFC1FFF800000
00007FF80FFF000000
00007FF80FFF000000
00003FF007FE000000
00003FF007FE000000
00001FE003FC000000
00001FE003FC000000
00000FC001F8000000
0000078000F0000000
ENDCHAR
STARTCHAR Wdieresis
ENCODING 7812
SWIDTH 1268 0
DWIDTH 67 0
BBX 65 49 1 -1
BITMAP
000000380E00000000
0000007C1F00000000
0000007C1F00000000
0000007C1F00000000
000000380E00000000
000000000000000000
000000000000000000
000000000000000000
000000000000000000
FF001FF00000003F80
7F800FF00000007F80
7F800FF80000007F00
3FC007F8000000FF00
3FC007FC000000FE00
1FE003FC000001FE00
1FE003FC000001FC00
0FF001FE000003F800
0FF001FE000007F800
07F800FF000007F000
07F800FF00000FF000
03FC007F80000FE000
03FC007F80001FE000
01FE003FC0001FC000
01FE003FC0003FC000
00FF001FE0003F8000
00FF000FE0007F8000
007F800FF0007F0000
007F8007F000FF0000
003FC007F800FE0000
001FC007F801FE0000
001FE00FFC01FC0000
000FE00FFC03FC0000
000FF01FFE03F80000
0007F01FFE07F80000
0007F83FFF07F00000
0003F83FFF0FE00000
0003FC7F7F8FE00000
0001FCFF3F9FC00000
0001FEFE3FDFC00000
0000FFFC1FFF800000
0000FFFC1FFF800000
00007FF80FFF000000
00007FF80FFF000000
00003FF007FE000000
00003FF007FE000000
00001FE003FC000000
00001FE003FC000000
00000FC001F8000000
0000078000F0000000
ENDCHAR
STARTCHAR wdieresis
ENCODING 7813
SWIDTH 1268 0
DWIDTH 67 0
BBX 65 49 1 -1
BITMAP
000000380E00000000
0000007C1F00000000
0000007C1F00000000
0000007C1F00000000
000000380E00000000
000000000000000000
000000000000000000
000000000000000000
000000000000000000
FF001FF00000003F80
7F800FF00000007F80
7F800FF80000007F00
3FC007F8000000FF00
3FC007FC000000FE00
1FE003FC000001FE00
1FE003FC000001FC00
0FF001FE000003F800
0FF001FE000007F800
07F800FF000007F000
07F800FF00000FF000
03FC007F80000FE000
03FC007F80001FE000
01FE003FC0001FC000
01FE003FC0003FC000
00FF001FE0003F8000
00FF000FE0007F8000
007F800FF0007F0000
007F8007F000FF0000
003FC007F800FE0000
001FC007F801FE0000
001FE00FFC01FC0000
000FE00FFC03FC0000
000FF01FFE03F80000
0007F01FFE07F80000
0007F83FFF07F00000
0003F83FFF0FE00000
0003FC7F7F8FE00000
0001FCFF3F9FC00000
0001FEFE3FDFC00000
0000FFFC1FFF800000
0000FFFC1FFF800000
00007FF80FFF000000
00007FF80FFF000000
00003FF007FE000000
00003FF007FE000000
00001FE003FC000000
00001FE003FC000000
00000FC001F8000000
0000078000F0000000
ENDCHAR
STARTCHAR Ygrave
ENCODING 7922
SWIDTH 926 0
DWIDTH 49 0
BBX 47 49 1 0
BITMAP
000100000000
0001E0000000
0001FC000000
0001FFC00000
0001FFF80000
00001FF80000
000000F80000
000000080000
000000000000
000000000000
FF80000003FE
7FC0000003FC
3FE0000007F8
1FF000000FF0
1FF800001FF0
0FF800003FE0
07FC00007FC0
03FE0000FF80
01FF0000FF00
00FF8001FE00
007FC003FE00
007FC007FC00
003FE00FF800
001FF01FF000
000FF81FE000
0007FC3FC000
0003FE7F8000
0003FEFF8000
0001FFFF0000
0000FFFE0000
00007FFC0000
00003FF80000
00001FF00000
00000FE00000
00000FE00000
00000FE00000
00000FE00000
00000FE00000
00000FE00000
00000FE00000
00000FE00000
00000FE00000
00000FE00000
00000FE00000
00000FE00000
00000FE00000
00000FE00000
00000FE00000
00000FE00000
ENDCHAR
STARTCHAR ygrave
ENCODING 7923
SWIDTH 926 0
DWIDTH 49 0
BBX 47 49 1 0
BITMAP
000100000000
0001E0000000
0001FC000000
0001FFC00000
0001FFF80000
00001FF80000
000000F80000
000000080000
000000000000
000000000000
FF80000003FE
7FC0000003FC
3FE0000007F8
1FF000000FF0
1FF800001FF0
0FF800003FE0
07FC00007FC0
03FE0000FF80
01FF0000FF00
00FF8001FE00
007FC003FE00
007FC007FC00
003FE00FF800
001FF01FF000
000FF81FE000
0007FC3FC000
0003FE7F8000
0003FEFF8000
0001FFFF0000
0000FFFE0000
00007FFC0000
00003FF80000
00001FF00000
00000FE00000
00000FE00000
00000FE00000
00000FE00000
00000FE00000
00000FE00000
00000FE00000
00000FE00000
00000FE00000
00000FE00000
00000FE00000
00000FE00000
00000FE00000
00000FE00000
00000FE00000
00000FE00000
ENDCHAR
STARTCHAR endash
ENCODING 8211
SWIDTH 590 0
DWIDTH 31 0
BBX 28 5 2 17
BITMAP
FFFFFFF0
FFFFFFF0
FFFFFFF0
FFFFFFF0
FFFFFFF0
ENDCHAR
STARTCHAR emdash
ENCODING 8212
SWIDTH 866 0
DWIDTH 46 0
BBX 42 5 2 17
BITMAP
FFFFFFFFFFC0
FFFFFFFFFFC0
FFFFFFFFFFC0
FFFFFFFFFFC0
FFFFFFFFFFC0
ENDCHAR
STARTCHAR quoteleft
ENCODING 8216
SWIDTH 259 0
DWIDTH 14 0
BBX 7 14 3 25
BITMAP
FE
7E
7E
7E
7E
7E
3E
3E
3E
3E
3E
1E
1E
1E
ENDCHAR
STARTCHAR quoteright
ENCODING 8217
SWIDTH 259 0
DWIDTH 14 0
BBX 6 14 4 25
BITMAP
FC
FC
FC
FC
FC
F8
F8
F8
F8
F8
F0
F0
F0
F0
ENDCHAR
STARTCHAR quotesinglbase
ENCODING 8218
SWIDTH 259 0
DWIDTH 14 0
BBX 6 14 4 -6
BITMAP
FC
FC
FC
FC
FC
F8
F8
F8
F8
F8
F0
F0
F0
F0
ENDCHAR
STARTCHAR quotedblleft
ENCODING 8220
SWIDTH 462 0
DWIDTH 24 0
BBX 19 14 3 25
BITMAP
FE0FE0
7E0FE0
7E0FE0
7E0FE0
7E0FE0
7E07E0
3E07E0
3E07E0
3E07E0
3E07E0
3E03E0
1E03E0
1E03E0
1E03E0
ENDCHAR
STARTCHAR quotedblright
ENCODING 8221
SWIDTH 462 0
DWIDTH 24 0
BBX 18 14 4 25
BITMAP
FC1FC0
FC1F80
FC1F80
FC1F80
FC1F80
F81F80
F81F00
F81F00
F81F00
F81F00
F01F00
F01F00
F01E00
F01E00
ENDCHAR
STARTCHAR quotedblbase
ENCODING 8222
SWIDTH 462 0
DWIDTH 24 0
BBX 18 14 4 -6
BITMAP
FC1FC0
FC1F80
FC1F80
FC1F80
FC1F80
F81F80
F81F00
F81F00
F81F00
F81F00
F01F00
F01F00
F01E00
F01E00
ENDCHAR
STARTCHAR dagger
ENCODING 8224
SWIDTH 466 0
DWIDTH 25 0
BBX 18 39 3 0
BITMAP
00E000
00E000
00E000
00E000
00E000
00E000
00E000
00E000
00E000
FFFFC0
FFFFC0
FFFFC0
00E000
00E000
00E000
00E000
00E000
00E000
00E000
00E000
00E000
00E000
00E000
00E000
00E000
00E000
00E000
00E000
00E000
00E000
00E000
00E000
00E000
00E000
00E000
00E000
00E000
00E000
00E000
ENDCHAR
STARTCHAR daggerdbl
ENCODING 8225
SWIDTH 466 0
DWIDTH 25 0
BBX 18 39 3 0
BITMAP
00E000
00E000
00E000
00E000
00E000
00E000
00E000
00E000
00E000
FFFFC0
FFFFC0
FFFFC0
00E000
00E000
00E000
00E000
00E000
00E000
00E000
00E000
00E000
00E000
00E000
00E000
00E000
00E000
00E000
00E000
FFFFC0
FFFFC0
FFFFC0
00E000
00E000
00E000
00E000
00E000
00E000
00E000
00E000
ENDCHAR
STARTCHAR bullet
ENCODING 8226
SWIDTH 413 0
DWIDTH 22 0
BBX 16 15 3 12
BITMAP
07C0
1FF0
3FFC
7FFC
7FFE
7FFE
FFFE
FFFF
FFFE
7FFE
7FFE
7FFC
3FFC
1FF0
07E0
ENDCHAR
STARTCHAR ellipsis
ENCODING 8230
SWIDTH 1310 0
DWIDTH 69 0
BBX 63 7 3 0
BITMAP
3800000380000038
7E000007E000007C
7E00000FE00000FE
FF00000FE00000FE
FE00000FE00000FE
7E000007E00000FC
3C000003C0000078
ENDCHAR
STARTCHAR perthousand
ENCODING 8240
SWIDTH 1314 0
DWIDTH 70 0
BBX 65 45 2 -4
BITMAP
000000000F80000000
000000001F00000000
01F800003E00000000
07FF00003C00000000
1FFF80007800000000
3E07C000F800000000
3C01E001F000000000
7801E001E000000000
7000F003C000000000
F000F007C000000000
F000700F8000000000
F000701F0000000000
F000701E0000000000
F000703C0000000000
7000F07C0000000000
7000F0F80000000000
7801E0F00000000000
3C01E1E00000000000
1E07C3E00000000000
0FFF87C00000000000
07FE0F800000000000
01F80F000000000000
00001F07F0000FE000
00003E1FFC003FF800
00007C3FFF007FFC00
0000787C1F00F83E00
0000F0F00781E00F00
0001F0E003C3C00700
0003E1E001C3800780
0003C1C001C3800380
000781C001E7800380
000F81C001E7800380
001F01C001E7800380
003E01C001E3800380
003C01C001C3800380
007801E001C3C00780
00F800E003C1C00700
01F000F00781E00F00
01E0007C1F00F83E00
03C0003FFE007FFC00
07C0001FFC003FF800
0F800007F0000FE000
1F0000000000000000
1E0000000000000000
3E0000000000000000
ENDCHAR
STARTCHAR guilsinglleft
ENCODING 8249
SWIDTH 367 0
DWIDTH 19 0
BBX 15 20 2 10
BITMAP
0002
0006
001E
003E
00F8
03F0
07C0
1F00
7E00
F800
F000
7C00
1F00
0F80
03E0
00F8
007E
001E
0006
0002
ENDCHAR
STARTCHAR guilsinglright
ENCODING 8250
SWIDTH 368 0
DWIDTH 20 0
BBX 15 20 2 10
BITMAP
8000
E000
F000
FC00
3F00
0F80
07E0
01F8
007C
001E
001E
007C
00F8
03E0
0F80
1F00
7C00
F000
E000
8000
ENDCHAR
STARTCHAR fraction
ENCODING 8260
SWIDTH 185 0
DWIDTH 10 0
BBX 40 45 -15 -4
BITMAP
000000001F
000000003C
000000007C
00000000F8
00000000F0
00000001E0
00000003E0
00000007C0
0000000780
0000000F00
0000001F00
0000003E00
0000007C00
0000007800
000000F000
000001F000
000003E000
000003C000
0000078000
00000F8000
00001F0000
00003E0000
00003C0000
0000780000
0000F80000
0001F00000
0001E00000
0003C00000
0007C00000
000F800000
001F000000
001E000000
003E000000
007C000000
00F8000000
00F0000000
01E0000000
03E0000000
07C0000000
0780000000
0F00000000
1F00000000
3E00000000
7C00000000
F800000000
ENDCHAR
STARTCHAR zerosuperior
ENCODING 8304
SWIDTH 449 0
DWIDTH 24 0
BBX 20 20 2 19
BITMAP
01F800
0FFE00
1FFF80
3E07C0
7803C0
7801E0
F000E0
F000F0
E000F0
E000F0
E000F0
E000F0
F000F0
7000E0
7801E0
3803C0
3E07C0
1FFF00
07FE00
01F800
ENDCHAR
STARTCHAR foursuperior
ENCODING 8308
SWIDTH 452 0
DWIDTH 24 0
BBX 21 19 2 19
BITMAP
E003C0
E003C0
E003C0
E003C0
E003C0
E003C0
E003C0
E003C0
E003C0
F003C0
F003C0
7FFFF8
3FFFF8
1FFFF8
0003C0
0003C0
0003C0
0003C0
0003C0
ENDCHAR
STARTCHAR fivesuperior
ENCODING 8309
SWIDTH 472 0
DWIDTH 25 0
BBX 21 19 2 19
BITMAP
FFFFF0
FFFFF0
FFFFF0
F00000
F00000
F00000
F00000
F00000
FFFFC0
FFFFE0
FFFFF0
000078
000038
000038
000078
000078
FFFFF0
FFFFE0
FFFFC0
ENDCHAR
STARTCHAR sixsuperior
ENCODING 8310
SWIDTH 466 0
DWIDTH 25 0
BBX 20 19 2 19
BITMAP
07FFF0
1FFFF0
3FFFF0
7C0000
780000
F00000
F00000
E00000
FFFFC0
FFFFE0
FFFFF0
E000F0
F00070
F00070
780070
7C00F0
3FFFF0
1FFFE0
07FF80
ENDCHAR
STARTCHAR sevensuperior
ENCODING 8311
SWIDTH 408 0
DWIDTH 22 0
BBX 18 19 2 20
BITMAP
FFFFC0
FFFFC0
FFFFC0
000780
000F00
001F00
003E00
003C00
007800
00F000
01F000
03E000
07C000
078000
0F0000
1E0000
3E0000
7C0000
F80000
ENDCHAR
STARTCHAR eightsuperior
ENCODING 8312
SWIDTH 479 0
DWIDTH 25 0
BBX 21 19 2 19
BITMAP
0FFFC0
3FFFF0
7FFFF0
7800F8
F00078
F00078
700078
780070
3FFFE0
3FFFE0
7FFFF0
F00078
F00038
F00038
F00038
F800F8
7FFFF0
3FFFF0
1FFFC0
ENDCHAR
STARTCHAR ninesuperior
ENCODING 8313
SWIDTH 460 0
DWIDTH 24 0
BBX 20 19 2 19
BITMAP
1FFE00
3FFF80
7FFFC0
F003E0
E000F0
E000F0
E00070
F00070
FFFFF0
7FFFF0
1FFFF0
000070
000070
0000F0
0000F0
0003E0
3FFFC0
3FFF80
3FFE00
ENDCHAR
STARTCHAR zeroinferior
ENCODING 8320
SWIDTH 449 0
DWIDTH 24 0
BBX 20 20 2 -1
BITMAP
01F800
0FFE00
1FFF80
3E07C0
7803C0
7801E0
F000E0
F000F0
E000F0
E000F0
E000F0
E000F0
F000F0
7000E0
7801E0
3803C0
3E07C0
1FFF00
07FE00
01F800
ENDCHAR
STARTCHAR oneinferior
ENCODING 8321
SWIDTH 222 0
DWIDTH 12 0
BBX 8 19 1 0
BITMAP
F8
FE
FE
0F
07
07
07
07
07
07
07
07
07
07
07
07
07
07
07
ENDCHAR
STARTCHAR twoinferior
ENCODING 8322
SWIDTH 442 0
DWIDTH 23 0
BBX 19 19 2 -1
BITMAP
7FFF00
7FFFC0
7FFFC0
0001E0
0000E0
0000E0
0000E0
0001E0
1FFFC0
3FFF80
7FFF00
700000
F00000
F00000
F00000
F00000
FFFFE0
FFFFE0
FFFFE0
ENDCHAR
STARTCHAR threeinferior
ENCODING 8323
SWIDTH 443 0
DWIDTH 23 0
BBX 19 19 2 -1
BITMAP
FFFF00
FFFFC0
FFFFC0
0001E0
0001E0
0000E0
0001E0
0001C0
07FF80
07FF80
07FFE0
0001E0
0000E0
0000E0
0000E0
0001E0
FFFFE0
FFFFC0
FFFF00
ENDCHAR
STARTCHAR fourinferior
ENCODING 8324
SWIDTH 452 0
DWIDTH 24 0
BBX 21 19 2 -1
BITMAP
E003C0
E003C0
E003C0
E003C0
E003C0
E003C0
E003C0
E003C0
E003C0
F003C0
F003C0
7FFFF8
3FFFF8
1FFFF8
0003C0
0003C0
0003C0
0003C0
0003C0
ENDCHAR
STARTCHAR fiveinferior
ENCODING 8325
SWIDTH 472 0
DWIDTH 25 0
BBX 21 19 2 -1
BITMAP
FFFFF0
FFFFF0
FFFFF0
F00000
F00000
F00000
F00000
F00000
FFFFC0
FFFFE0
FFFFF0
000078
000038
000038
000078
000078
FFFFF0
FFFFE0
FFFFC0
ENDCHAR
STARTCHAR sixinferior
ENCODING 8326
SWIDTH 466 0
DWIDTH 25 0
BBX 20 19 2 -1
BITMAP
07FFF0
1FFFF0
3FFFF0
7C0000
780000
F00000
F00000
E00000
FFFFC0
FFFFE0
FFFFF0
E000F0
F00070
F00070
780070
7C00F0
3FFFF0
1FFFE0
07FF80
ENDCHAR
STARTCHAR seveninferior
ENCODING 8327
SWIDTH 408 0
DWIDTH 22 0
BBX 18 19 2 0
BITMAP
FFFFC0
FFFFC0
FFFFC0
000780
000F00
001F00
003E00
003C00
007800
00F000
01F000
03E000
07C000
078000
0F0000
1E0000
3E0000
7C0000
F80000
ENDCHAR
STARTCHAR eightinferior
ENCODING 8328
SWIDTH 479 0
DWIDTH 25 0
BBX 21 19 2 -1
BITMAP
0FFFC0
3FFFF0
7FFFF0
7800F8
F00078
F00078
700078
780070
3FFFE0
3FFFE0
7FFFF0
F00078
F00038
F00038
F00038
F800F8
7FFFF0
3FFFF0
1FFFC0
ENDCHAR
STARTCHAR nineinferior
ENCODING 8329
SWIDTH 460 0
DWIDTH 24 0
BBX 20 19 2 -1
BITMAP
1FFE00
3FFF80
7FFFC0
F003E0
E000F0
E000F0
E00070
F00070
FFFFF0
7FFFF0
1FFFF0
000070
000070
0000F0
0000F0
0003E0
3FFFC0
3FFF80
3FFE00
ENDCHAR
STARTCHAR Euro
ENCODING 8364
SWIDTH 884 0
DWIDTH 47 0
BBX 43 39 2 0
BITMAP
00003FFFFFE0
0003FFFFFFC0
000FFFFFFFC0
001FFFFFFF80
003FFFFFFF00
007FFFFFFF00
00FFFFFFFE00
01FFC0000000
03FF00000000
03FE00000000
07FC00000000
07F800000000
0FF000000000
0FF000000000
FFFFFFFFC000
FFFFFFFF8000
FFFFFFFF8000
0FC000000000
1FC000000000
1FC000000000
1FC000000000
0FC000000000
FFFFFFF80000
FFFFFFF00000
0FE000000000
0FF000000000
07F000000000
07F800000000
03FC00000000
03FE00000000
01FF00000000
01FFC0000000
00FFFFFFFF00
007FFFFFFF00
003FFFFFFF00
001FFFFFFF00
0007FFFFFF00
0001FFFFFF00
00003FFFFF00
ENDCHAR
STARTCHAR uni2117
ENCODING 8471
SWIDTH 829 0
DWIDTH 44 0
BBX 40 40 2 -1
BITMAP
0000FF0000
000FFFF000
003E007C00
0078000E00
01E0000780
03800001C0
07000000E0
0600000060
0C00000030
1800000018
1800000018
300000000C
300FFFE00C
600FFFF806
600C003806
600C001C06
C00C000C02
C00C000C03
C00C000C03
C00C000C03
C00C001803
C00C7FF003
C00C7FE003
400C000002
600C000006
600C000006
600C000006
300C00000C
300000000C
1800000018
1800000018
0C00000030
0600000060
07000000E0
03800001C0
01E0000700
0078000E00
003E007C00
000FFFF000
0000FF8000
ENDCHAR
STARTCHAR trademark
ENCODING 8482
SWIDTH 536 0
DWIDTH 28 0
BBX 23 13 2 26
BITMAP
FFCC06
FFCC0E
0C0E0E
0C0E0E
0C0F1E
0C0F1E
0C0F3E
0C0DB6
0C0DB6
0C0DF6
0C0CE6
0C0CE6
0C0CE6
ENDCHAR
STARTCHAR onethird
ENCODING 8531
SWIDTH 951 0
DWIDTH 50 0
BBX 46 45 2 -4
BITMAP
000000001F00
000000003C00
078000007C00
07E00000F800
07F00000F000
00F00001E000
00700003E000
00700007C000
0078000F8000
0078000F0000
0078001E0000
0078003E0000
0078007C0000
007800780000
007800F00000
007801F00000
007803E00000
007807C00000
007807800000
00780F800000
00781F000000
00003E000000
00003C000000
0000781FFFE0
0000F81FFFF0
0001F01FFFF8
0001E000007C
0003C000003C
0007C000003C
000F8000003C
001F00000078
001E0001FFF0
003C0001FFF0
007C0001FFF8
00F80000003C
00F00000001C
01E00000001C
03E00000003C
07C00000007C
0F80001FFFF8
0F00001FFFF0
1F00001FFFE0
3E0000000000
7C0000000000
F80000000000
ENDCHAR
STARTCHAR twothirds
ENCODING 8532
SWIDTH 979 0
DWIDTH 52 0
BBX 48 45 2 -4
BITMAP
0000000003E0
000000000780
000000000F80
FFFF00001F00
FFFFC0001E00
FFFFC0003C00
0001E0007C00
0001E000F800
0000E000F000
0001E001E000
0001E003E000
1FFFC007C000
3FFF800F8000
7FFE000F0000
F000001E0000
F000003E0000
E000007C0000
E00000780000
E00000F00000
FFFFE1F00000
FFFFE3E00000
FFFFE7C00000
000007800000
00000F8FFFF0
00001F0FFFFC
00003E0FFFFE
00003C00001E
00007800000E
0000F800000E
0001F000000E
0001E000001E
0003C0007FFC
0007C0007FFC
000F80007FFE
001F0000001E
001E0000000F
003C0000000F
007C0000000F
00F80000001E
00F0000FFFFE
01E0000FFFFC
03E0000FFFF0
07C000000000
0F8000000000
1F0000000000
ENDCHAR
STARTCHAR oneeighth
ENCODING 8539
SWIDTH 985 0
DWIDTH 52 0
BBX 48 45 2 -4
BITMAP
000000001F00
000000003C00
078000007C00
07E00000F800
07F00000F000
00F00001E000
00700003E000
00700007C000
0078000F8000
0078000F0000
0078001E0000
0078003E0000
0078007C0000
007800780000
007800F00000
007801F00000
007803E00000
007807C00000
007807800000
00780F800000
00781F000000
00003E000000
00003C000000
00007803FFF0
0000F807FFFC
0001F00FFFFE
0001E01F001E
0003C01E000F
0007C01E000F
000F801E000E
001F000F001E
001E0007FFFC
003C0007FFFC
007C000FFFFE
00F8001E000F
00F0001C000F
01E0001C0007
03E0001E000F
07C0001F001F
0F80000FFFFE
0F000007FFFC
1F000003FFF8
3E0000000000
7C0000000000
F80000000000
ENDCHAR
STARTCHAR threeeighths
ENCODING 8540
SWIDTH 972 0
DWIDTH 52 0
BBX 47 45 2 -4
BITMAP
0000000007C0
000000000F80
000000000F00
FFFF00001E00
FFFFC0003E00
FFFFE0007C00
0001E0007800
0000E000F000
0000E001E000
0000E003E000
0001E007C000
07FFC0078000
07FFC00F0000
07FFE01F0000
0001E03E0000
0000F03C0000
0000F0780000
0000F0F80000
0001E1F00000
FFFFE3E00000
FFFFC3C00000
FFFF07800000
00000F800000
00001F03FFF0
00001E0FFFFC
00003C1FFFFC
00007C1E001E
0000F81C001E
0001F01C000E
0001E01C001E
0003E01E001C
0007C00FFFF8
000F800FFFF8
000F001FFFFC
001E003C001E
003E003C000E
007C003C000E
0078003C000E
00F0001E001E
01F0001FFFFC
03E0000FFFFC
07C00003FFF0
078000000000
0F0000000000
1F0000000000
ENDCHAR
STARTCHAR fiveeighths
ENCODING 8541
SWIDTH 973 0
DWIDTH 52 0
BBX 47 45 2 -4
BITMAP
0000000003E0
000000000780
000000000F80
FFFFF0001F00
FFFFF0001E00
FFFFF0003C00
F00000007C00
F0000000F800
F0000000F000
F0000001E000
F0000003E000
FFFFC007C000
FFFFE00F8000
FFFFF00F0000
0000701E0000
0000783E0000
0000787C0000
000078780000
000070F00000
FFFFF1F00000
FFFFE3E00000
FFFFC7C00000
000007800000
00000F83FFF0
00001F0FFFFC
00003E1FFFFC
00003C1E001E
0000781C001E
0000F81C000E
0001F01C001E
0001E01E001C
0003C00FFFF8
0007C00FFFF8
000F801FFFFC
001F001C001E
001E003C000E
003C003C000E
007C003C000E
00F8001E001E
00F0001FFFFC
01E0000FFFFC
03E00003FFF0
07C000000000
0F8000000000
1F0000000000
ENDCHAR
STARTCHAR seveneighths
ENCODING 8542
SWIDTH 965 0
DWIDTH 51 0
BBX 47 45 2 -4
BITMAP
000000001F00
000000003C00
3FFFF0007C00
3FFFF800F800
3FFFF000F000
0001F001E000
0003E003E000
0003C007C000
0007800F8000
000F000F0000
001F001E0000
003E003E0000
007C007C0000
007800780000
00F000F00000
01E001F00000
03E003E00000
07C007C00000
078007800000
0F000F800000
1E001F000000
00003E000000
00003C000000
00007807FFE0
0000F80FFFF8
0001F01FFFFC
0001E03E003C
0003C03C001E
0007C03C001E
000F803C001C
001F001E003C
001E000FFFF8
003C000FFFF8
007C001FFFFC
00F8003C001E
00F00038001E
01E00038000E
03E00038001E
07C0003E003E
0F80001FFFFC
0F00000FFFF8
1F000007FFF0
3E0000000000
7C0000000000
F80000000000
ENDCHAR
STARTCHAR minus
ENCODING 8722
SWIDTH 690 0
DWIDTH 37 0
BBX 30 5 3 18
BITMAP
FFFFFFFC
FFFFFFFC
FFFFFFFC
FFFFFFFC
FFFFFFFC
ENDCHAR
STARTCHAR approxequal
ENCODING 8776
SWIDTH 691 0
DWIDTH 37 0
BBX 30 20 3 10
BITMAP
0FF00004
3FFE0004
FFFFE03C
FFFFFFFC
FFFFFFFC
F80FFFFC
C001FFF8
80001FE0
00000000
00000000
00000000
00000000
0FF00004
3FFE0004
FFFFE03C
FFFFFFFC
FFFFFFFC
F80FFFFC
C001FFF8
80001FE0
ENDCHAR
STARTCHAR notequal
ENCODING 8800
SWIDTH 690 0
DWIDTH 37 0
BBX 39 45 -1 -4
BITMAP
000000003E
000000007C
00000000F8
00000000F0
00000001E0
00000003E0
00000007C0
0000000780
0000000F00
0000001F00
0000003E00
0000007C00
0FFFFFFFC0
0FFFFFFFC0
0FFFFFFFC0
0FFFFFFFC0
0FFFFFFFC0
000007C000
00000F8000
00001F0000
00001E0000
00003C0000
0000780000
0000F80000
0001F00000
0003E00000
0FFFFFFFC0
0FFFFFFFC0
0FFFFFFFC0
0FFFFFFFC0
0FFFFFFFC0
003E000000
007C000000
00F8000000
00F0000000
01F0000000
03E0000000
07C0000000
0780000000
0F00000000
1F00000000
3E00000000
3C00000000
7800000000
F800000000
ENDCHAR
STARTCHAR lessequal
ENCODING 8804
SWIDTH 690 0
DWIDTH 37 0
BBX 30 38 3 -3
BITMAP
00000004
0000000C
0000007C
000001FC
000007FC
00003FFC
0000FFE0
0003FF80
001FFC00
007FF000
01FF8000
0FFE0000
3FF00000
7FC00000
FE000000
FF000000
7FC00000
3FF80000
07FE0000
01FFC000
007FF000
000FFE00
0003FF80
0000FFF0
00001FFC
000007FC
000001FC
0000003C
0000000C
00000000
00000000
00000000
00000000
FFFFFFFC
FFFFFFFC
FFFFFFFC
FFFFFFFC
FFFFFFFC
ENDCHAR
STARTCHAR greaterequal
ENCODING 8805
SWIDTH 690 0
DWIDTH 37 0
BBX 30 38 3 -3
BITMAP
80000000
E0000000
F8000000
FF000000
FFC00000
7FF00000
1FFE0000
03FF8000
00FFE000
001FFC00
0007FF00
0000FFC0
00003FF8
000007FC
000000FC
000001FC
00000FFC
00003FF0
0001FFC0
0007FF00
003FF800
00FFE000
07FF0000
1FFC0000
FFF00000
FF800000
FE000000
F8000000
C0000000
00000000
00000000
00000000
00000000
FFFFFFFC
FFFFFFFC
FFFFFFFC
FFFFFFFC
FFFFFFFC
ENDCHAR
STARTCHAR .notdef
ENCODING -1
SWIDTH 430 0
DWIDTH 23 0
BBX 17 39 3 0
BITMAP
3FFE00
FFFF00
E00380
C00180
C00180
C00180
C00180
C00180
C00180
C00180
C00180
C00180
C00180
C00180
C00180
C00180
C00180
C00180
C00180
C00180
C00180
C00180
C00180
C00180
C00180
C00180
C00180
C00180
C00180
C00180
C00180
C00180
C00180
C00180
C00180
C00180
E00380
FFFF00
3FFE00
ENDCHAR
STARTCHAR nonmarkingreturn
ENCODING -1
SWIDTH 104 0
DWIDTH 6 0
BBX 1 1 0 0
BITMAP
00
ENDCHAR
STARTCHAR .null
ENCODING -1
SWIDTH 104 0
DWIDTH 6 0
BBX 1 1 0 0
BITMAP
00
ENDCHAR
STARTCHAR .ttfautohint
ENCODING -1
SWIDTH 104 0
DWIDTH 6 0
BBX 1 1 0 0
BITMAP
00
ENDCHAR
ENDFONT
